<svg xmlns="http://www.w3.org/2000/svg" xmlns:xlink="http://www.w3.org/1999/xlink" width="1080" zoomAndPan="magnify" viewBox="0 0 810 809.999993" height="1080" preserveAspectRatio="xMidYMid meet" version="1.0"><defs><clipPath id="9813723e55"><path d="M 153.480469 81 L 656.503906 81 L 656.503906 729 L 153.480469 729 Z M 153.480469 81 " clip-rule="nonzero"/></clipPath><clipPath id="bf60c2e732"><path d="M 153.480469 316.082031 C 153.480469 181.875 266.085938 81 404.992188 81 C 543.898438 81 656.503906 181.875 656.503906 316.082031 C 656.503906 489.164062 404.992188 729 404.992188 729 C 404.992188 729 153.480469 489.164062 153.480469 316.082031 Z M 153.480469 316.082031 " clip-rule="nonzero"/></clipPath><clipPath id="62ffd00a9c"><path d="M 0.480469 0 L 503.503906 0 L 503.503906 648 L 0.480469 648 Z M 0.480469 0 " clip-rule="nonzero"/></clipPath><clipPath id="55c899a904"><path d="M 0.480469 235.082031 C 0.480469 100.875 113.085938 0 251.992188 0 C 390.898438 0 503.503906 100.875 503.503906 235.082031 C 503.503906 408.164062 251.992188 648 251.992188 648 C 251.992188 648 0.480469 408.164062 0.480469 235.082031 Z M 0.480469 235.082031 " clip-rule="nonzero"/></clipPath><clipPath id="24c1558660"><rect x="0" width="504" y="0" height="648"/></clipPath><clipPath id="67899b6ec5"><path d="M 205.492188 126.609375 L 604.507812 126.609375 L 604.507812 525.625 L 205.492188 525.625 Z M 205.492188 126.609375 " clip-rule="nonzero"/></clipPath><clipPath id="28ac54191c"><path d="M 405 126.609375 C 294.816406 126.609375 205.492188 215.933594 205.492188 326.117188 C 205.492188 436.300781 294.816406 525.625 405 525.625 C 515.183594 525.625 604.507812 436.300781 604.507812 326.117188 C 604.507812 215.933594 515.183594 126.609375 405 126.609375 Z M 405 126.609375 " clip-rule="nonzero"/></clipPath><clipPath id="ccd09c1873"><path d="M 0.492188 0.609375 L 399.507812 0.609375 L 399.507812 399.625 L 0.492188 399.625 Z M 0.492188 0.609375 " clip-rule="nonzero"/></clipPath><clipPath id="3e08875e06"><path d="M 200 0.609375 C 89.816406 0.609375 0.492188 89.933594 0.492188 200.117188 C 0.492188 310.300781 89.816406 399.625 200 399.625 C 310.183594 399.625 399.507812 310.300781 399.507812 200.117188 C 399.507812 89.933594 310.183594 0.609375 200 0.609375 Z M 200 0.609375 " clip-rule="nonzero"/></clipPath><clipPath id="19e3078442"><rect x="0" width="400" y="0" height="400"/></clipPath><clipPath id="26604f53b6"><path d="M 257.019531 193.851562 L 377.769531 193.851562 L 377.769531 420.351562 L 257.019531 420.351562 Z M 257.019531 193.851562 " clip-rule="nonzero"/></clipPath><clipPath id="aba43e5a6b"><path d="M 455 209.507812 L 494 209.507812 L 494 248 L 455 248 Z M 455 209.507812 " clip-rule="nonzero"/></clipPath><clipPath id="f5c94c76ae"><path d="M 392.21875 297 L 516 297 L 516 405 L 392.21875 405 Z M 392.21875 297 " clip-rule="nonzero"/></clipPath></defs><g clip-path="url(#9813723e55)"><g clip-path="url(#bf60c2e732)"><g transform="matrix(1, 0, 0, 1, 153, 81)"><g clip-path="url(#24c1558660)"><g clip-path="url(#62ffd00a9c)"><g clip-path="url(#55c899a904)"><path fill="#1f48ff" d="M 503.503906 648 L 0.480469 648 L 0.480469 -0.429688 L 503.503906 -0.429688 Z M 503.503906 648 " fill-opacity="1" fill-rule="nonzero"/></g></g></g></g></g></g><g clip-path="url(#67899b6ec5)"><g clip-path="url(#28ac54191c)"><g transform="matrix(1, 0, 0, 1, 205, 126)"><g clip-path="url(#19e3078442)"><g clip-path="url(#ccd09c1873)"><g clip-path="url(#3e08875e06)"><path fill="#ffffff" d="M 0.492188 0.609375 L 399.507812 0.609375 L 399.507812 399.625 L 0.492188 399.625 Z M 0.492188 0.609375 " fill-opacity="1" fill-rule="nonzero"/></g></g></g></g></g></g><g clip-path="url(#26604f53b6)"><path fill="#1f48ff" d="M 353.777344 242.507812 C 367.179688 242.507812 378.082031 231.605469 378.082031 218.203125 C 378.082031 204.804688 367.179688 193.898438 353.777344 193.898438 C 340.375 193.898438 329.472656 204.804688 329.472656 218.203125 C 329.472656 231.605469 340.375 242.507812 353.777344 242.507812 Z M 371.082031 326.058594 C 371.664062 322.765625 370.925781 319.445312 369.007812 316.707031 L 339.25 274.007812 C 337.871094 272.027344 337.679688 269.453125 338.75 267.285156 C 339.972656 264.804688 340.5 262.023438 340.25 259.191406 C 339.894531 255.105469 337.96875 251.410156 334.828125 248.777344 C 332.070312 246.460938 328.570312 245.183594 324.972656 245.183594 C 320.425781 245.183594 316.140625 247.179688 313.214844 250.664062 L 265.570312 307.425781 C 260.058594 313.988281 257.023438 322.320312 257.023438 330.894531 L 257.023438 404.78125 C 257.023438 413.152344 263.617188 420.199219 271.988281 420.398438 C 280.613281 420.605469 287.699219 413.648438 287.703125 405.066406 L 287.703125 338.609375 C 287.703125 332.285156 289.941406 326.136719 294.003906 321.296875 L 319.980469 290.335938 L 347.035156 328.96875 C 343.121094 332.082031 340.605469 336.882812 340.605469 342.261719 C 340.605469 344.078125 342.078125 345.550781 343.894531 345.550781 C 345.710938 345.550781 347.183594 344.078125 347.183594 342.261719 C 347.183594 338.875 348.8125 335.863281 351.324219 333.960938 C 352.859375 335.097656 354.644531 335.871094 356.578125 336.214844 C 357.304688 336.339844 358.042969 336.40625 358.777344 336.40625 C 360.914062 336.40625 362.984375 335.855469 364.839844 334.816406 C 366.777344 336.707031 367.988281 339.347656 367.988281 342.261719 L 367.988281 417.113281 C 367.988281 418.929688 369.460938 420.402344 371.277344 420.402344 C 373.09375 420.402344 374.566406 418.929688 374.566406 417.113281 L 374.566406 342.261719 C 374.566406 337.5625 372.648438 333.304688 369.554688 330.226562 C 370.296875 328.957031 370.820312 327.554688 371.082031 326.058594 Z M 371.082031 326.058594 " fill-opacity="1" fill-rule="nonzero"/></g><g clip-path="url(#aba43e5a6b)"><path fill="#1f48ff" d="M 493.730469 228.410156 C 493.730469 217.984375 485.246094 209.5 474.816406 209.5 C 464.390625 209.5 455.90625 217.984375 455.90625 228.410156 C 455.90625 238.835938 464.390625 247.320312 474.816406 247.320312 C 485.246094 247.320312 493.730469 238.835938 493.730469 228.410156 " fill-opacity="1" fill-rule="nonzero"/></g><path fill="#1f48ff" d="M 522.507812 322.214844 C 520.410156 318.789062 516.757812 316.726562 512.742188 316.691406 L 487.375 316.496094 L 489.066406 281.894531 L 501.171875 292.792969 C 502.707031 294.175781 504.578125 295.171875 506.582031 295.679688 L 540.222656 304.179688 C 542.484375 304.753906 544.835938 304.410156 546.839844 303.214844 C 548.84375 302.019531 550.265625 300.113281 550.835938 297.851562 C 551.40625 295.589844 551.0625 293.238281 549.871094 291.230469 C 548.671875 289.226562 546.769531 287.808594 544.503906 287.238281 L 514.132812 279.558594 C 512.75 279.207031 511.457031 278.527344 510.390625 277.578125 L 498.816406 265.503906 C 492.273438 258.679688 483.46875 254.671875 474.027344 254.230469 L 463.898438 253.75 C 457.085938 253.425781 450.332031 255.003906 444.363281 258.308594 L 427.566406 267.609375 C 423.828125 269.21875 421.292969 272.871094 421.09375 276.941406 L 419.273438 314.152344 C 419.042969 318.875 422.691406 322.976562 427.40625 323.296875 C 429.726562 323.457031 431.980469 322.679688 433.746094 321.105469 C 435.53125 319.519531 436.621094 317.246094 436.738281 314.871094 L 438.128906 286.441406 C 438.257812 283.800781 439.914062 281.429688 442.355469 280.402344 L 451.433594 276.582031 L 448.472656 330.722656 C 448.257812 334.617188 449.617188 338.324219 452.296875 341.152344 C 454.980469 343.984375 458.605469 345.546875 462.503906 345.546875 L 512.675781 345.546875 L 533.0625 378.585938 C 534.492188 380.90625 536.746094 382.53125 539.398438 383.160156 C 540.183594 383.347656 540.980469 383.4375 541.769531 383.4375 C 543.636719 383.4375 545.476562 382.921875 547.109375 381.914062 C 551.882812 378.96875 553.382812 372.683594 550.457031 367.898438 L 522.507812 322.214844 " fill-opacity="1" fill-rule="nonzero"/><g clip-path="url(#f5c94c76ae)"><path fill="#1f48ff" d="M 510.398438 349.226562 C 510.046875 348.6875 509.445312 348.363281 508.800781 348.363281 L 502.425781 348.363281 C 501.492188 348.363281 500.695312 349.035156 500.542969 349.953125 C 498.757812 360.574219 493.234375 370.300781 484.996094 377.335938 C 476.667969 384.449219 466.039062 388.367188 455.070312 388.367188 C 442.753906 388.367188 431.171875 383.566406 422.460938 374.859375 C 413.753906 366.148438 408.957031 354.570312 408.957031 342.25 C 408.957031 334.84375 410.660156 327.769531 414.019531 321.226562 C 414.15625 320.957031 414.230469 320.65625 414.230469 320.351562 L 414.230469 298.988281 C 414.230469 298.21875 413.765625 297.527344 413.054688 297.230469 C 412.347656 296.933594 411.527344 297.089844 410.980469 297.632812 C 405.140625 303.402344 400.550781 310.140625 397.34375 317.65625 C 394.019531 325.445312 392.335938 333.71875 392.335938 342.25 C 392.335938 359.007812 398.859375 374.761719 410.710938 386.609375 C 422.558594 398.460938 438.3125 404.988281 455.070312 404.988281 C 462.171875 404.988281 469.140625 403.808594 475.78125 401.484375 C 482.203125 399.242188 488.1875 395.976562 493.578125 391.78125 C 504.332031 383.40625 512.179688 371.589844 515.679688 358.496094 C 515.820312 357.972656 515.730469 357.414062 515.433594 356.960938 L 510.398438 349.226562 " fill-opacity="1" fill-rule="nonzero"/></g></svg>