<svg xmlns="http://www.w3.org/2000/svg" xmlns:xlink="http://www.w3.org/1999/xlink" width="1080" zoomAndPan="magnify" viewBox="0 0 810 809.999993" height="1080" preserveAspectRatio="xMidYMid meet" version="1.0"><defs><clipPath id="53f0be9055"><path d="M 153.480469 81 L 656.503906 81 L 656.503906 729 L 153.480469 729 Z M 153.480469 81 " clip-rule="nonzero"/></clipPath><clipPath id="22c1937d4b"><path d="M 153.480469 316.082031 C 153.480469 181.875 266.085938 81 404.992188 81 C 543.898438 81 656.503906 181.875 656.503906 316.082031 C 656.503906 489.164062 404.992188 729 404.992188 729 C 404.992188 729 153.480469 489.164062 153.480469 316.082031 Z M 153.480469 316.082031 " clip-rule="nonzero"/></clipPath><clipPath id="bb119215c1"><path d="M 0.480469 0 L 503.503906 0 L 503.503906 648 L 0.480469 648 Z M 0.480469 0 " clip-rule="nonzero"/></clipPath><clipPath id="e6787c2c58"><path d="M 0.480469 235.082031 C 0.480469 100.875 113.085938 0 251.992188 0 C 390.898438 0 503.503906 100.875 503.503906 235.082031 C 503.503906 408.164062 251.992188 648 251.992188 648 C 251.992188 648 0.480469 408.164062 0.480469 235.082031 Z M 0.480469 235.082031 " clip-rule="nonzero"/></clipPath><clipPath id="a563c5fd8e"><rect x="0" width="504" y="0" height="648"/></clipPath><clipPath id="11d5b20aaf"><path d="M 205.492188 126.609375 L 604.507812 126.609375 L 604.507812 525.625 L 205.492188 525.625 Z M 205.492188 126.609375 " clip-rule="nonzero"/></clipPath><clipPath id="7b4cc4d5f1"><path d="M 405 126.609375 C 294.816406 126.609375 205.492188 215.933594 205.492188 326.117188 C 205.492188 436.300781 294.816406 525.625 405 525.625 C 515.183594 525.625 604.507812 436.300781 604.507812 326.117188 C 604.507812 215.933594 515.183594 126.609375 405 126.609375 Z M 405 126.609375 " clip-rule="nonzero"/></clipPath><clipPath id="c100ca241e"><path d="M 0.492188 0.609375 L 399.507812 0.609375 L 399.507812 399.625 L 0.492188 399.625 Z M 0.492188 0.609375 " clip-rule="nonzero"/></clipPath><clipPath id="7206ea127e"><path d="M 200 0.609375 C 89.816406 0.609375 0.492188 89.933594 0.492188 200.117188 C 0.492188 310.300781 89.816406 399.625 200 399.625 C 310.183594 399.625 399.507812 310.300781 399.507812 200.117188 C 399.507812 89.933594 310.183594 0.609375 200 0.609375 Z M 200 0.609375 " clip-rule="nonzero"/></clipPath><clipPath id="0ca1b41a61"><rect x="0" width="400" y="0" height="400"/></clipPath><clipPath id="7dda74b127"><path d="M 271.613281 180 L 538.613281 180 L 538.613281 468.703125 L 271.613281 468.703125 Z M 271.613281 180 " clip-rule="nonzero"/></clipPath></defs><g clip-path="url(#53f0be9055)"><g clip-path="url(#22c1937d4b)"><g transform="matrix(1, 0, 0, 1, 153, 81)"><g clip-path="url(#a563c5fd8e)"><g clip-path="url(#bb119215c1)"><g clip-path="url(#e6787c2c58)"><path fill="#1f48ff" d="M 503.503906 648 L 0.480469 648 L 0.480469 -0.429688 L 503.503906 -0.429688 Z M 503.503906 648 " fill-opacity="1" fill-rule="nonzero"/></g></g></g></g></g></g><g clip-path="url(#11d5b20aaf)"><g clip-path="url(#7b4cc4d5f1)"><g transform="matrix(1, 0, 0, 1, 205, 126)"><g clip-path="url(#0ca1b41a61)"><g clip-path="url(#c100ca241e)"><g clip-path="url(#7206ea127e)"><path fill="#ffffff" d="M 0.492188 0.609375 L 399.507812 0.609375 L 399.507812 399.625 L 0.492188 399.625 Z M 0.492188 0.609375 " fill-opacity="1" fill-rule="nonzero"/></g></g></g></g></g></g><g clip-path="url(#7dda74b127)"><path fill="#1f48ff" d="M 293.621094 467.582031 L 332.625 467.582031 C 334.21875 467.582031 335.523438 466.28125 335.523438 464.683594 L 335.523438 461.308594 C 335.523438 459.714844 334.21875 458.414062 332.625 458.414062 L 318.035156 458.414062 L 318.035156 427.875 L 335.09375 427.875 C 335.34375 427.875 335.585938 427.863281 335.824219 427.835938 C 339.03125 427.472656 341.519531 424.753906 341.519531 421.453125 C 341.519531 417.90625 338.644531 415.027344 335.09375 415.027344 L 309.214844 415.027344 C 308.246094 415.027344 307.285156 415.027344 306.316406 415.027344 C 294.273438 415.027344 284.460938 405.21875 284.460938 393.175781 L 284.460938 335.363281 C 284.460938 331.816406 281.585938 328.941406 278.039062 328.941406 C 274.492188 328.941406 271.613281 331.816406 271.613281 335.363281 L 271.613281 393.175781 C 271.613281 412.308594 287.183594 427.875 306.316406 427.875 L 308.210938 427.875 L 308.210938 458.414062 L 293.621094 458.414062 C 292.023438 458.414062 290.722656 459.714844 290.722656 461.308594 L 290.722656 464.683594 C 290.722656 466.28125 292.023438 467.582031 293.621094 467.582031 Z M 341.25 262.871094 C 346.414062 265.058594 352.09375 266.269531 358.054688 266.269531 C 381.863281 266.269531 401.167969 246.96875 401.167969 223.15625 C 401.167969 199.347656 381.863281 180.046875 358.054688 180.046875 C 334.246094 180.046875 314.941406 199.347656 314.941406 223.15625 C 314.941406 235.03125 319.746094 245.789062 327.515625 253.585938 C 327.757812 253.832031 327.851562 254.160156 327.769531 254.496094 L 324.535156 268.085938 C 324.449219 268.453125 324.566406 268.8125 324.855469 269.054688 C 325.144531 269.296875 325.519531 269.351562 325.863281 269.203125 L 340.488281 262.875 C 340.738281 262.765625 340.996094 262.761719 341.25 262.871094 Z M 358.054688 217.921875 C 360.945312 217.921875 363.289062 220.265625 363.289062 223.15625 C 363.289062 226.046875 360.945312 228.390625 358.054688 228.390625 C 355.164062 228.390625 352.820312 226.046875 352.820312 223.15625 C 352.820312 220.265625 355.164062 217.921875 358.054688 217.921875 Z M 380.121094 217.921875 C 383.011719 217.921875 385.355469 220.265625 385.355469 223.15625 C 385.355469 226.046875 383.011719 228.390625 380.121094 228.390625 C 377.226562 228.390625 374.882812 226.046875 374.882812 223.15625 C 374.882812 220.265625 377.226562 217.921875 380.121094 217.921875 Z M 335.992188 217.921875 C 338.882812 217.921875 341.226562 220.265625 341.226562 223.15625 C 341.226562 226.046875 338.882812 228.390625 335.992188 228.390625 C 333.097656 228.390625 330.753906 226.046875 330.753906 223.15625 C 330.753906 220.265625 333.097656 217.921875 335.992188 217.921875 Z M 468.742188 262.871094 C 463.578125 265.058594 457.898438 266.269531 451.9375 266.269531 C 428.128906 266.269531 408.828125 246.96875 408.828125 223.15625 C 408.828125 199.347656 428.128906 180.046875 451.9375 180.046875 C 475.75 180.046875 495.050781 199.347656 495.050781 223.15625 C 495.050781 235.03125 490.246094 245.789062 482.480469 253.585938 C 482.234375 253.832031 482.140625 254.160156 482.222656 254.496094 L 485.457031 268.085938 C 485.546875 268.453125 485.425781 268.8125 485.136719 269.054688 C 484.851562 269.296875 484.476562 269.351562 484.128906 269.203125 L 469.507812 262.875 C 469.253906 262.765625 468.996094 262.761719 468.742188 262.871094 Z M 463.179688 226.367188 L 472.816406 226.367188 C 474.585938 226.367188 476.027344 224.929688 476.027344 223.15625 C 476.027344 221.382812 474.585938 219.945312 472.816406 219.945312 L 463.179688 219.945312 C 461.40625 219.945312 459.96875 221.382812 459.96875 223.15625 C 459.96875 224.929688 461.40625 226.367188 463.179688 226.367188 Z M 431.0625 226.367188 L 453.542969 226.367188 C 455.316406 226.367188 456.757812 224.929688 456.757812 223.15625 C 456.757812 221.382812 455.316406 219.945312 453.542969 219.945312 L 431.0625 219.945312 C 429.289062 219.945312 427.851562 221.382812 427.851562 223.15625 C 427.851562 224.929688 429.289062 226.367188 431.0625 226.367188 Z M 431.0625 208.703125 L 472.816406 208.703125 C 474.585938 208.703125 476.027344 207.265625 476.027344 205.492188 C 476.027344 203.71875 474.585938 202.28125 472.816406 202.28125 L 431.0625 202.28125 C 429.289062 202.28125 427.851562 203.71875 427.851562 205.492188 C 427.851562 207.265625 429.289062 208.703125 431.0625 208.703125 Z M 431.0625 244.035156 L 472.816406 244.035156 C 474.585938 244.035156 476.027344 242.59375 476.027344 240.824219 C 476.027344 239.050781 474.585938 237.609375 472.816406 237.609375 L 431.0625 237.609375 C 429.289062 237.609375 427.851562 239.050781 427.851562 240.824219 C 427.851562 242.59375 429.289062 244.035156 431.0625 244.035156 Z M 501.78125 428.878906 L 501.78125 427.875 L 503.675781 427.875 C 522.8125 427.875 538.378906 412.308594 538.378906 393.175781 L 538.378906 335.363281 C 538.378906 331.816406 535.503906 328.941406 531.953125 328.941406 C 528.40625 328.941406 525.53125 331.816406 525.53125 335.363281 L 525.53125 393.175781 C 525.53125 405.21875 515.71875 415.027344 503.675781 415.027344 C 502.710938 415.027344 501.746094 415.027344 500.777344 415.027344 L 474.898438 415.027344 C 471.351562 415.027344 468.472656 417.90625 468.472656 421.453125 C 468.472656 424.753906 470.964844 427.472656 474.167969 427.835938 C 474.40625 427.863281 474.652344 427.875 474.898438 427.875 L 491.957031 427.875 L 491.957031 458.414062 L 477.367188 458.414062 C 475.773438 458.414062 474.472656 459.714844 474.472656 461.308594 L 474.472656 464.683594 C 474.472656 466.28125 475.773438 467.582031 477.367188 467.582031 L 516.371094 467.582031 C 517.96875 467.582031 519.269531 466.28125 519.269531 464.683594 L 519.269531 461.308594 C 519.269531 459.714844 517.96875 458.414062 516.371094 458.414062 L 501.78125 458.414062 Z M 400.179688 376.160156 L 331.390625 376.160156 C 328.398438 376.160156 325.945312 373.710938 325.945312 370.71875 C 325.945312 367.722656 328.398438 365.273438 331.390625 365.273438 L 478.601562 365.273438 C 481.597656 365.273438 484.046875 367.722656 484.046875 370.71875 C 484.046875 373.710938 481.597656 376.160156 478.601562 376.160156 L 409.8125 376.160156 L 409.8125 462.765625 C 409.8125 465.414062 407.648438 467.582031 404.996094 467.582031 C 402.347656 467.582031 400.179688 465.414062 400.179688 462.765625 Z M 495.636719 322.886719 C 497.203125 319.488281 500.746094 317.097656 504.679688 317.097656 C 509.980469 317.097656 514.316406 321.433594 514.316406 326.734375 L 514.316406 394.175781 C 514.316406 399.476562 509.980469 403.8125 504.679688 403.8125 C 503.710938 403.8125 502.746094 403.8125 501.78125 403.8125 L 464.746094 403.8125 C 463.515625 403.8125 462.464844 404.539062 462.035156 405.691406 L 441.039062 461.488281 C 439.015625 466.863281 432.964844 469.605469 427.589844 467.582031 C 422.21875 465.558594 419.417969 459.488281 421.496094 454.136719 L 447.292969 387.851562 C 447.738281 386.714844 448.777344 386.003906 449.996094 386.003906 L 492.148438 386.003906 C 493.738281 386.003906 495.046875 384.703125 495.046875 383.105469 L 495.046875 368.882812 C 495.046875 363.003906 494.972656 357.128906 494.882812 351.25 C 494.867188 350.113281 494.242188 349.148438 493.210938 348.667969 C 492.183594 348.1875 491.042969 348.328125 490.160156 349.046875 L 478.050781 358.875 C 474.496094 361.761719 469.226562 361.214844 466.34375 357.660156 L 461.125 351.238281 C 461.105469 351.210938 461.085938 351.1875 461.066406 351.160156 L 450.949219 337.800781 C 448.574219 334.667969 449.199219 330.15625 452.332031 327.78125 C 455.46875 325.40625 459.929688 326.066406 462.351562 329.164062 L 470.859375 340.050781 C 471.359375 340.691406 472.027344 341.0625 472.835938 341.148438 C 473.644531 341.234375 474.375 341.011719 475 340.488281 L 494.863281 323.894531 C 495.207031 323.609375 495.449219 323.292969 495.636719 322.886719 Z M 501.90625 273.589844 C 492.867188 273.589844 485.535156 280.917969 485.535156 289.960938 C 485.535156 299.003906 492.867188 306.332031 501.90625 306.332031 C 510.949219 306.332031 518.277344 299.003906 518.277344 289.960938 C 518.277344 280.917969 510.949219 273.589844 501.90625 273.589844 Z M 314.355469 322.886719 C 314.542969 323.292969 314.785156 323.609375 315.128906 323.894531 L 334.992188 340.488281 C 335.617188 341.011719 336.347656 341.234375 337.15625 341.148438 C 337.964844 341.0625 338.632812 340.691406 339.132812 340.050781 L 347.640625 329.164062 C 350.0625 326.066406 354.523438 325.40625 357.660156 327.78125 C 360.796875 330.15625 361.417969 334.667969 359.042969 337.800781 L 348.925781 351.160156 C 348.90625 351.1875 348.890625 351.210938 348.867188 351.238281 L 343.648438 357.660156 C 340.765625 361.214844 335.496094 361.761719 331.941406 358.875 L 319.832031 349.046875 C 318.949219 348.328125 317.8125 348.1875 316.78125 348.667969 C 315.75 349.148438 315.125 350.113281 315.109375 351.25 C 315.019531 357.128906 314.949219 363.003906 314.949219 368.882812 L 314.949219 383.105469 C 314.949219 384.703125 316.253906 386.003906 317.84375 386.003906 L 360 386.003906 C 361.214844 386.003906 362.257812 386.714844 362.699219 387.851562 L 388.496094 454.136719 C 390.578125 459.488281 387.773438 465.558594 382.402344 467.582031 C 377.027344 469.605469 370.976562 466.863281 368.957031 461.488281 L 347.960938 405.691406 C 347.527344 404.539062 346.476562 403.8125 345.25 403.8125 L 308.210938 403.8125 C 307.246094 403.8125 306.28125 403.8125 305.3125 403.8125 C 300.011719 403.8125 295.675781 399.476562 295.675781 394.175781 L 295.675781 326.734375 C 295.675781 321.433594 300.011719 317.097656 305.3125 317.097656 C 309.246094 317.097656 312.792969 319.488281 314.355469 322.886719 Z M 308.085938 273.589844 C 317.128906 273.589844 324.457031 280.917969 324.457031 289.960938 C 324.457031 299.003906 317.128906 306.332031 308.085938 306.332031 C 299.042969 306.332031 291.714844 299.003906 291.714844 289.960938 C 291.714844 280.917969 299.042969 273.589844 308.085938 273.589844 Z M 308.085938 273.589844 " fill-opacity="1" fill-rule="evenodd"/></g></svg>