<svg xmlns="http://www.w3.org/2000/svg" xmlns:xlink="http://www.w3.org/1999/xlink" width="1080" zoomAndPan="magnify" viewBox="0 0 810 809.999993" height="1080" preserveAspectRatio="xMidYMid meet" version="1.0"><defs><clipPath id="4afdcbdc2b"><path d="M 153.480469 81 L 656.503906 81 L 656.503906 729 L 153.480469 729 Z M 153.480469 81 " clip-rule="nonzero"/></clipPath><clipPath id="ee0a608ab7"><path d="M 153.480469 316.082031 C 153.480469 181.875 266.085938 81 404.992188 81 C 543.898438 81 656.503906 181.875 656.503906 316.082031 C 656.503906 489.164062 404.992188 729 404.992188 729 C 404.992188 729 153.480469 489.164062 153.480469 316.082031 Z M 153.480469 316.082031 " clip-rule="nonzero"/></clipPath><clipPath id="a33d2638f2"><path d="M 0.480469 0 L 503.503906 0 L 503.503906 648 L 0.480469 648 Z M 0.480469 0 " clip-rule="nonzero"/></clipPath><clipPath id="c298e801e5"><path d="M 0.480469 235.082031 C 0.480469 100.875 113.085938 0 251.992188 0 C 390.898438 0 503.503906 100.875 503.503906 235.082031 C 503.503906 408.164062 251.992188 648 251.992188 648 C 251.992188 648 0.480469 408.164062 0.480469 235.082031 Z M 0.480469 235.082031 " clip-rule="nonzero"/></clipPath><clipPath id="2e3d58853f"><rect x="0" width="504" y="0" height="648"/></clipPath><clipPath id="2c72508f93"><path d="M 205.492188 126.609375 L 604.507812 126.609375 L 604.507812 525.625 L 205.492188 525.625 Z M 205.492188 126.609375 " clip-rule="nonzero"/></clipPath><clipPath id="7e857df341"><path d="M 405 126.609375 C 294.816406 126.609375 205.492188 215.933594 205.492188 326.117188 C 205.492188 436.300781 294.816406 525.625 405 525.625 C 515.183594 525.625 604.507812 436.300781 604.507812 326.117188 C 604.507812 215.933594 515.183594 126.609375 405 126.609375 Z M 405 126.609375 " clip-rule="nonzero"/></clipPath><clipPath id="82a1ea39e2"><path d="M 0.492188 0.609375 L 399.507812 0.609375 L 399.507812 399.625 L 0.492188 399.625 Z M 0.492188 0.609375 " clip-rule="nonzero"/></clipPath><clipPath id="d3ca857f24"><path d="M 200 0.609375 C 89.816406 0.609375 0.492188 89.933594 0.492188 200.117188 C 0.492188 310.300781 89.816406 399.625 200 399.625 C 310.183594 399.625 399.507812 310.300781 399.507812 200.117188 C 399.507812 89.933594 310.183594 0.609375 200 0.609375 Z M 200 0.609375 " clip-rule="nonzero"/></clipPath><clipPath id="efd61d4d5c"><rect x="0" width="400" y="0" height="400"/></clipPath><clipPath id="4d93dce503"><path d="M 350 260.214844 L 395 260.214844 L 395 304 L 350 304 Z M 350 260.214844 " clip-rule="nonzero"/></clipPath><clipPath id="9dee3ea57b"><path d="M 460 384 L 524.117188 384 L 524.117188 444 L 460 444 Z M 460 384 " clip-rule="nonzero"/></clipPath><clipPath id="082a751008"><path d="M 245 160.054688 L 564 160.054688 L 564 328.054688 L 245 328.054688 Z M 245 160.054688 " clip-rule="nonzero"/></clipPath></defs><g clip-path="url(#4afdcbdc2b)"><g clip-path="url(#ee0a608ab7)"><g transform="matrix(1, 0, 0, 1, 153, 81)"><g clip-path="url(#2e3d58853f)"><g clip-path="url(#a33d2638f2)"><g clip-path="url(#c298e801e5)"><path fill="#ff751f" d="M 503.503906 648 L 0.480469 648 L 0.480469 -0.429688 L 503.503906 -0.429688 Z M 503.503906 648 " fill-opacity="1" fill-rule="nonzero"/></g></g></g></g></g></g><g clip-path="url(#2c72508f93)"><g clip-path="url(#7e857df341)"><g transform="matrix(1, 0, 0, 1, 205, 126)"><g clip-path="url(#efd61d4d5c)"><g clip-path="url(#82a1ea39e2)"><g clip-path="url(#d3ca857f24)"><path fill="#ffffff" d="M 0.492188 0.609375 L 399.507812 0.609375 L 399.507812 399.625 L 0.492188 399.625 Z M 0.492188 0.609375 " fill-opacity="1" fill-rule="nonzero"/></g></g></g></g></g></g><path fill="#ff751f" d="M 414.691406 428.144531 L 414.691406 481.179688 C 414.691406 486.550781 419.042969 490.90625 424.417969 490.90625 C 429.785156 490.90625 434.144531 486.550781 434.144531 481.179688 L 434.144531 428.144531 Z M 414.691406 428.144531 " fill-opacity="1" fill-rule="nonzero"/><path fill="#ff751f" d="M 456.839844 428.144531 L 437.386719 428.144531 L 437.386719 481.179688 C 437.386719 486.550781 441.738281 490.90625 447.113281 490.90625 C 452.480469 490.90625 456.839844 486.550781 456.839844 481.179688 Z M 456.839844 428.144531 " fill-opacity="1" fill-rule="nonzero"/><path fill="#ff751f" d="M 333.945312 357.382812 C 335.28125 354.566406 336.445312 351.851562 337.535156 349.292969 C 339.710938 344.1875 341.675781 339.691406 344.023438 335.910156 C 344.335938 335.40625 344.652344 334.917969 344.976562 334.441406 C 345.300781 333.972656 345.628906 333.519531 345.96875 333.070312 L 345.96875 397.390625 C 351.664062 405.519531 355.40625 417.101562 357.09375 431.898438 C 357.515625 435.632812 354.824219 439.011719 351.101562 439.4375 C 350.839844 439.46875 350.582031 439.480469 350.320312 439.480469 C 348.671875 439.480469 347.152344 438.886719 345.96875 437.894531 L 345.96875 478.882812 C 345.96875 485.523438 351.351562 490.90625 357.992188 490.90625 C 364.632812 490.90625 370.019531 485.523438 370.019531 478.882812 L 370.019531 391.082031 L 374.527344 391.082031 L 374.527344 478.882812 C 374.527344 485.527344 379.914062 490.90625 386.550781 490.90625 C 393.191406 490.90625 398.578125 485.527344 398.578125 478.882812 L 398.578125 428.144531 L 391.257812 428.144531 L 391.707031 425.828125 L 398.578125 390.464844 L 398.578125 322.949219 C 401.535156 322.066406 405.636719 320.984375 410.4375 320.078125 C 407.78125 321.859375 404.8125 324.367188 401.800781 327.890625 C 401.375 328.386719 400.949219 328.910156 400.523438 329.445312 L 400.523438 355.410156 C 403.960938 346.507812 407.703125 340.53125 411.035156 336.558594 L 393.617188 426.199219 L 458.707031 426.199219 C 459.421875 412.445312 461.980469 401.578125 466.347656 393.84375 C 467.667969 391.484375 469.101562 389.589844 470.507812 388.082031 L 460.484375 336.503906 C 466.117188 339.703125 473.472656 343.367188 482.671875 346.96875 C 485.5 345.289062 488.789062 344.308594 492.308594 344.308594 C 500.019531 344.308594 506.652344 348.9375 509.617188 355.554688 C 510.476562 355.773438 511.335938 355.992188 512.214844 356.207031 C 515.609375 357.03125 519.027344 354.949219 519.851562 351.554688 C 520.675781 348.160156 518.59375 344.742188 515.199219 343.917969 C 500.890625 340.445312 489.335938 336.28125 480.292969 332.289062 C 480.019531 332.65625 479.722656 333.007812 479.390625 333.339844 C 477.554688 335.148438 475.128906 336.148438 472.554688 336.148438 C 469.933594 336.148438 467.476562 335.121094 465.632812 333.261719 C 463.628906 331.238281 461.460938 329.464844 459.09375 327.921875 L 458.871094 325.496094 C 461.757812 327.234375 464.484375 329.339844 467.019531 331.894531 C 468.539062 333.433594 470.546875 334.203125 472.550781 334.203125 C 474.527344 334.203125 476.503906 333.457031 478.023438 331.957031 C 481.078125 328.933594 481.105469 324.007812 478.082031 320.953125 C 471.003906 313.789062 462.679688 309.160156 454.222656 306.402344 C 453.664062 306.21875 453.105469 306.066406 452.546875 305.898438 C 448.34375 310.453125 442.359375 313.21875 435.785156 313.21875 C 434.042969 313.21875 432.292969 313.015625 430.585938 312.617188 C 425.011719 311.320312 420.246094 308.042969 417.011719 303.367188 C 403.773438 304.828125 393.328125 308.195312 389.519531 309.527344 L 353.484375 309.527344 C 353.273438 309.527344 353.070312 309.542969 352.863281 309.558594 C 351.601562 309.542969 350.320312 309.835938 349.128906 310.46875 C 347.652344 311.246094 346.277344 312.09375 344.957031 312.96875 C 339.453125 316.617188 335.261719 321.027344 332.117188 325.675781 C 326.347656 334.242188 323.578125 343.109375 319.605469 351.277344 C 319.953125 351.257812 320.292969 351.226562 320.640625 351.226562 C 325.964844 351.226562 330.730469 353.621094 333.945312 357.382812 Z M 333.945312 357.382812 " fill-opacity="1" fill-rule="nonzero"/><path fill="#ff751f" d="M 312.324219 385.617188 C 312.707031 385.308594 313.082031 384.996094 313.457031 384.683594 C 308.527344 382.453125 304.816406 378.015625 303.585938 372.628906 C 302.546875 373.511719 301.453125 374.386719 300.28125 375.261719 C 296.828125 377.824219 296.105469 382.699219 298.667969 386.148438 C 299.875 387.777344 301.597656 388.785156 303.441406 389.140625 C 304.367188 388.515625 305.214844 388.023438 305.941406 387.660156 C 307.171875 386.941406 309.167969 386.148438 312.324219 385.617188 Z M 312.324219 385.617188 " fill-opacity="1" fill-rule="nonzero"/><g clip-path="url(#4d93dce503)"><path fill="#ff751f" d="M 394.15625 282.097656 C 394.15625 282.816406 394.121094 283.53125 394.050781 284.246094 C 393.980469 284.957031 393.875 285.664062 393.734375 286.367188 C 393.59375 287.070312 393.421875 287.765625 393.214844 288.453125 C 393.003906 289.136719 392.765625 289.8125 392.488281 290.472656 C 392.214844 291.136719 391.910156 291.78125 391.570312 292.414062 C 391.234375 293.046875 390.867188 293.660156 390.46875 294.257812 C 390.070312 294.851562 389.640625 295.429688 389.1875 295.980469 C 388.734375 296.535156 388.253906 297.066406 387.746094 297.574219 C 387.238281 298.082031 386.707031 298.5625 386.15625 299.015625 C 385.601562 299.46875 385.023438 299.898438 384.429688 300.296875 C 383.832031 300.691406 383.21875 301.0625 382.585938 301.398438 C 381.957031 301.738281 381.308594 302.042969 380.644531 302.316406 C 379.984375 302.589844 379.308594 302.832031 378.625 303.039062 C 377.9375 303.25 377.242188 303.421875 376.539062 303.5625 C 375.835938 303.703125 375.128906 303.808594 374.417969 303.878906 C 373.703125 303.949219 372.988281 303.984375 372.269531 303.984375 C 371.554688 303.984375 370.839844 303.949219 370.125 303.878906 C 369.414062 303.808594 368.703125 303.703125 368 303.5625 C 367.300781 303.421875 366.605469 303.25 365.917969 303.039062 C 365.234375 302.832031 364.558594 302.589844 363.898438 302.316406 C 363.234375 302.042969 362.585938 301.738281 361.957031 301.398438 C 361.324219 301.0625 360.710938 300.691406 360.113281 300.296875 C 359.515625 299.898438 358.941406 299.46875 358.386719 299.015625 C 357.835938 298.5625 357.304688 298.082031 356.796875 297.574219 C 356.289062 297.066406 355.808594 296.535156 355.355469 295.980469 C 354.898438 295.429688 354.472656 294.851562 354.074219 294.257812 C 353.675781 293.660156 353.308594 293.046875 352.972656 292.414062 C 352.632812 291.78125 352.328125 291.136719 352.054688 290.472656 C 351.777344 289.8125 351.539062 289.136719 351.328125 288.453125 C 351.121094 287.765625 350.949219 287.070312 350.808594 286.367188 C 350.667969 285.664062 350.5625 284.957031 350.492188 284.246094 C 350.421875 283.53125 350.386719 282.816406 350.386719 282.097656 C 350.386719 281.382812 350.421875 280.667969 350.492188 279.953125 C 350.5625 279.242188 350.667969 278.53125 350.808594 277.828125 C 350.949219 277.125 351.121094 276.433594 351.328125 275.746094 C 351.539062 275.0625 351.777344 274.386719 352.054688 273.722656 C 352.328125 273.0625 352.632812 272.414062 352.972656 271.78125 C 353.308594 271.152344 353.675781 270.535156 354.074219 269.941406 C 354.472656 269.34375 354.898438 268.769531 355.355469 268.214844 C 355.808594 267.660156 356.289062 267.132812 356.796875 266.625 C 357.304688 266.117188 357.835938 265.636719 358.386719 265.183594 C 358.941406 264.726562 359.515625 264.300781 360.113281 263.902344 C 360.710938 263.503906 361.324219 263.136719 361.957031 262.800781 C 362.585938 262.460938 363.234375 262.15625 363.898438 261.882812 C 364.558594 261.605469 365.234375 261.367188 365.917969 261.15625 C 366.605469 260.949219 367.300781 260.777344 368 260.636719 C 368.703125 260.496094 369.414062 260.390625 370.125 260.320312 C 370.839844 260.25 371.554688 260.214844 372.269531 260.214844 C 372.988281 260.214844 373.703125 260.25 374.417969 260.320312 C 375.128906 260.390625 375.835938 260.496094 376.539062 260.636719 C 377.242188 260.777344 377.9375 260.949219 378.625 261.15625 C 379.308594 261.367188 379.984375 261.605469 380.644531 261.882812 C 381.308594 262.15625 381.957031 262.460938 382.585938 262.800781 C 383.21875 263.136719 383.832031 263.503906 384.429688 263.902344 C 385.023438 264.300781 385.601562 264.726562 386.15625 265.183594 C 386.707031 265.636719 387.238281 266.117188 387.746094 266.625 C 388.253906 267.132812 388.734375 267.660156 389.1875 268.214844 C 389.640625 268.769531 390.070312 269.34375 390.46875 269.941406 C 390.867188 270.535156 391.234375 271.152344 391.570312 271.78125 C 391.910156 272.414062 392.214844 273.0625 392.488281 273.722656 C 392.765625 274.386719 393.003906 275.0625 393.214844 275.746094 C 393.421875 276.433594 393.59375 277.125 393.734375 277.828125 C 393.875 278.53125 393.980469 279.242188 394.050781 279.953125 C 394.121094 280.667969 394.15625 281.382812 394.15625 282.097656 Z M 394.15625 282.097656 " fill-opacity="1" fill-rule="nonzero"/></g><path fill="#ff751f" d="M 473.34375 426.199219 L 473.34375 425.429688 C 473.328125 425.679688 473.316406 425.941406 473.304688 426.199219 Z M 473.34375 426.199219 " fill-opacity="1" fill-rule="nonzero"/><path fill="#ff751f" d="M 509.332031 363.277344 C 509.332031 363.835938 509.304688 364.390625 509.25 364.945312 C 509.195312 365.5 509.113281 366.050781 509.003906 366.597656 C 508.898438 367.144531 508.761719 367.683594 508.601562 368.21875 C 508.4375 368.75 508.25 369.273438 508.035156 369.789062 C 507.824219 370.304688 507.585938 370.808594 507.324219 371.300781 C 507.058594 371.792969 506.773438 372.269531 506.464844 372.734375 C 506.15625 373.195312 505.824219 373.644531 505.46875 374.074219 C 505.117188 374.503906 504.742188 374.917969 504.347656 375.3125 C 503.953125 375.707031 503.539062 376.082031 503.109375 376.433594 C 502.679688 376.789062 502.230469 377.121094 501.769531 377.429688 C 501.304688 377.738281 500.828125 378.023438 500.335938 378.289062 C 499.84375 378.550781 499.339844 378.789062 498.824219 379 C 498.308594 379.214844 497.785156 379.402344 497.253906 379.566406 C 496.71875 379.726562 496.179688 379.863281 495.632812 379.96875 C 495.085938 380.078125 494.535156 380.160156 493.980469 380.214844 C 493.425781 380.269531 492.871094 380.296875 492.3125 380.296875 C 491.753906 380.296875 491.199219 380.269531 490.644531 380.214844 C 490.089844 380.160156 489.539062 380.078125 488.992188 379.96875 C 488.445312 379.863281 487.90625 379.726562 487.371094 379.566406 C 486.835938 379.402344 486.3125 379.214844 485.796875 379 C 485.28125 378.789062 484.78125 378.550781 484.289062 378.289062 C 483.796875 378.023438 483.320312 377.738281 482.855469 377.429688 C 482.390625 377.121094 481.945312 376.789062 481.515625 376.433594 C 481.082031 376.082031 480.671875 375.707031 480.277344 375.3125 C 479.882812 374.917969 479.507812 374.503906 479.15625 374.074219 C 478.800781 373.644531 478.46875 373.195312 478.160156 372.734375 C 477.851562 372.269531 477.5625 371.792969 477.300781 371.300781 C 477.039062 370.808594 476.800781 370.304688 476.585938 369.789062 C 476.375 369.273438 476.1875 368.75 476.023438 368.21875 C 475.863281 367.683594 475.726562 367.144531 475.617188 366.597656 C 475.507812 366.050781 475.425781 365.5 475.371094 364.945312 C 475.316406 364.390625 475.289062 363.835938 475.289062 363.277344 C 475.289062 362.71875 475.316406 362.164062 475.371094 361.609375 C 475.425781 361.054688 475.507812 360.503906 475.617188 359.957031 C 475.726562 359.410156 475.863281 358.867188 476.023438 358.335938 C 476.1875 357.800781 476.375 357.277344 476.585938 356.761719 C 476.800781 356.246094 477.039062 355.746094 477.300781 355.253906 C 477.5625 354.761719 477.851562 354.285156 478.160156 353.820312 C 478.46875 353.355469 478.800781 352.910156 479.15625 352.480469 C 479.507812 352.046875 479.882812 351.636719 480.277344 351.242188 C 480.671875 350.847656 481.082031 350.472656 481.515625 350.121094 C 481.945312 349.765625 482.390625 349.433594 482.855469 349.125 C 483.320312 348.8125 483.796875 348.527344 484.289062 348.265625 C 484.78125 348.003906 485.28125 347.765625 485.796875 347.550781 C 486.3125 347.339844 486.835938 347.148438 487.371094 346.988281 C 487.90625 346.828125 488.445312 346.691406 488.992188 346.582031 C 489.539062 346.472656 490.089844 346.390625 490.644531 346.335938 C 491.199219 346.28125 491.753906 346.253906 492.3125 346.253906 C 492.871094 346.253906 493.425781 346.28125 493.980469 346.335938 C 494.535156 346.390625 495.085938 346.472656 495.632812 346.582031 C 496.179688 346.691406 496.71875 346.828125 497.253906 346.988281 C 497.785156 347.148438 498.308594 347.339844 498.824219 347.550781 C 499.339844 347.765625 499.84375 348.003906 500.335938 348.265625 C 500.828125 348.527344 501.304688 348.8125 501.769531 349.125 C 502.230469 349.433594 502.679688 349.765625 503.109375 350.121094 C 503.539062 350.472656 503.953125 350.847656 504.347656 351.242188 C 504.742188 351.636719 505.117188 352.046875 505.46875 352.480469 C 505.824219 352.910156 506.15625 353.355469 506.464844 353.820312 C 506.773438 354.285156 507.058594 354.761719 507.324219 355.253906 C 507.585938 355.746094 507.824219 356.246094 508.035156 356.761719 C 508.25 357.277344 508.4375 357.800781 508.601562 358.335938 C 508.761719 358.867188 508.898438 359.410156 509.003906 359.957031 C 509.113281 360.503906 509.195312 361.054688 509.25 361.609375 C 509.304688 362.164062 509.332031 362.71875 509.332031 363.277344 Z M 509.332031 363.277344 " fill-opacity="1" fill-rule="nonzero"/><path fill="#ff751f" d="M 475.289062 482.910156 C 475.289062 487.207031 478.773438 490.691406 483.070312 490.691406 C 487.367188 490.691406 490.851562 487.207031 490.851562 482.910156 L 490.851562 450.011719 L 493.769531 450.011719 L 493.769531 482.910156 C 493.769531 487.207031 497.253906 490.691406 501.554688 490.691406 C 505.851562 490.691406 509.332031 487.207031 509.332031 482.910156 L 509.332031 432.117188 L 475.289062 432.117188 Z M 475.289062 482.910156 " fill-opacity="1" fill-rule="nonzero"/><g clip-path="url(#9dee3ea57b)"><path fill="#ff751f" d="M 460.433594 434.457031 C 460.433594 435.800781 460.445312 437.191406 460.480469 438.632812 C 460.550781 441.539062 462.933594 443.851562 465.828125 443.851562 C 465.871094 443.851562 465.917969 443.851562 465.960938 443.847656 C 468.914062 443.777344 471.25 441.320312 471.179688 438.367188 C 471.144531 437.03125 471.128906 435.730469 471.128906 434.457031 C 471.125 419.769531 473.09375 410.394531 475.289062 404.554688 L 475.289062 429.808594 L 509.332031 429.808594 L 509.332031 404.554688 C 511.523438 410.390625 513.492188 419.777344 513.488281 434.457031 C 513.488281 435.722656 513.472656 437.03125 513.441406 438.382812 C 513.378906 441.335938 515.722656 443.785156 518.671875 443.851562 C 518.710938 443.851562 518.753906 443.851562 518.792969 443.851562 C 521.695312 443.851562 524.074219 441.53125 524.140625 438.617188 C 524.171875 437.191406 524.1875 435.808594 524.1875 434.457031 C 524.179688 414 520.648438 402.007812 516.578125 394.800781 C 512.542969 387.585938 507.792969 385.433594 506.6875 385.113281 C 506.453125 385.035156 506.214844 384.980469 505.976562 384.9375 C 505.5 384.78125 504.996094 384.675781 504.46875 384.675781 L 480.152344 384.675781 C 479.617188 384.675781 479.117188 384.78125 478.636719 384.9375 C 478.402344 384.984375 478.164062 385.035156 477.929688 385.113281 C 476.824219 385.433594 472.078125 387.582031 468.039062 394.800781 C 463.96875 402.007812 460.4375 413.996094 460.433594 434.457031 Z M 460.433594 434.457031 " fill-opacity="1" fill-rule="nonzero"/></g><path fill="#ff751f" d="M 440.511719 270.003906 C 441.179688 270.160156 441.835938 270.347656 442.484375 270.566406 C 443.132812 270.789062 443.769531 271.039062 444.394531 271.320312 C 445.015625 271.601562 445.625 271.914062 446.21875 272.257812 C 446.8125 272.601562 447.386719 272.96875 447.941406 273.367188 C 448.5 273.769531 449.035156 274.191406 449.550781 274.644531 C 450.066406 275.09375 450.554688 275.570312 451.023438 276.070312 C 451.492188 276.570312 451.933594 277.089844 452.351562 277.632812 C 452.769531 278.175781 453.160156 278.738281 453.519531 279.320312 C 453.882812 279.902344 454.214844 280.5 454.519531 281.113281 C 454.820312 281.730469 455.09375 282.355469 455.335938 282.996094 C 455.574219 283.636719 455.785156 284.289062 455.960938 284.949219 C 456.140625 285.613281 456.285156 286.28125 456.394531 286.957031 C 456.507812 287.632812 456.585938 288.308594 456.632812 288.992188 C 456.675781 289.675781 456.6875 290.359375 456.664062 291.046875 C 456.644531 291.730469 456.585938 292.410156 456.5 293.089844 C 456.410156 293.769531 456.285156 294.441406 456.132812 295.109375 C 455.976562 295.777344 455.789062 296.433594 455.570312 297.082031 C 455.347656 297.730469 455.097656 298.367188 454.816406 298.992188 C 454.53125 299.613281 454.21875 300.222656 453.878906 300.816406 C 453.535156 301.410156 453.164062 301.984375 452.765625 302.539062 C 452.367188 303.097656 451.941406 303.632812 451.492188 304.148438 C 451.039062 304.664062 450.566406 305.15625 450.066406 305.621094 C 449.566406 306.089844 449.042969 306.535156 448.5 306.949219 C 447.957031 307.367188 447.394531 307.757812 446.816406 308.117188 C 446.234375 308.480469 445.636719 308.8125 445.019531 309.117188 C 444.40625 309.417969 443.78125 309.691406 443.140625 309.933594 C 442.5 310.175781 441.847656 310.382812 441.1875 310.5625 C 440.523438 310.738281 439.855469 310.882812 439.179688 310.996094 C 438.503906 311.105469 437.824219 311.183594 437.140625 311.230469 C 436.460938 311.273438 435.777344 311.285156 435.089844 311.261719 C 434.40625 311.242188 433.726562 311.1875 433.046875 311.097656 C 432.367188 311.007812 431.695312 310.886719 431.027344 310.730469 C 430.359375 310.574219 429.703125 310.386719 429.054688 310.167969 C 428.40625 309.945312 427.769531 309.695312 427.144531 309.414062 C 426.523438 309.132812 425.914062 308.820312 425.320312 308.476562 C 424.726562 308.132812 424.152344 307.765625 423.597656 307.367188 C 423.039062 306.964844 422.503906 306.542969 421.988281 306.089844 C 421.472656 305.640625 420.984375 305.164062 420.515625 304.664062 C 420.046875 304.164062 419.605469 303.644531 419.1875 303.101562 C 418.769531 302.554688 418.378906 301.996094 418.019531 301.414062 C 417.65625 300.832031 417.324219 300.234375 417.019531 299.621094 C 416.71875 299.003906 416.445312 298.378906 416.203125 297.738281 C 415.964844 297.097656 415.753906 296.445312 415.578125 295.785156 C 415.398438 295.121094 415.253906 294.453125 415.144531 293.777344 C 415.03125 293.101562 414.953125 292.425781 414.90625 291.742188 C 414.863281 291.058594 414.851562 290.375 414.875 289.6875 C 414.894531 289.003906 414.953125 288.324219 415.042969 287.644531 C 415.128906 286.964844 415.253906 286.292969 415.40625 285.625 C 415.5625 284.957031 415.75 284.300781 415.96875 283.652344 C 416.191406 283.003906 416.441406 282.367188 416.722656 281.742188 C 417.007812 281.121094 417.320312 280.511719 417.660156 279.917969 C 418.003906 279.324219 418.375 278.75 418.773438 278.195312 C 419.171875 277.636719 419.597656 277.101562 420.046875 276.585938 C 420.5 276.070312 420.972656 275.578125 421.472656 275.113281 C 421.972656 274.644531 422.496094 274.199219 423.039062 273.785156 C 423.582031 273.367188 424.144531 272.976562 424.726562 272.617188 C 425.304688 272.253906 425.902344 271.921875 426.519531 271.617188 C 427.132812 271.316406 427.757812 271.042969 428.398438 270.800781 C 429.039062 270.558594 429.691406 270.351562 430.351562 270.171875 C 431.015625 269.996094 431.683594 269.851562 432.359375 269.738281 C 433.035156 269.628906 433.714844 269.550781 434.398438 269.503906 C 435.078125 269.460938 435.761719 269.449219 436.449219 269.46875 C 437.132812 269.492188 437.8125 269.546875 438.492188 269.636719 C 439.171875 269.726562 439.84375 269.847656 440.511719 270.003906 Z M 440.511719 270.003906 " fill-opacity="1" fill-rule="nonzero"/><path fill="#ff751f" d="M 322.832031 484.160156 C 322.832031 487.648438 325.660156 490.480469 329.152344 490.480469 C 332.644531 490.480469 335.476562 487.648438 335.476562 484.160156 L 335.476562 452.785156 C 331.484375 453.847656 326.675781 454.566406 322.832031 454.777344 Z M 322.832031 484.160156 " fill-opacity="1" fill-rule="nonzero"/><path fill="#ff751f" d="M 305.808594 484.160156 C 305.808594 487.648438 308.640625 490.480469 312.132812 490.480469 C 315.625 490.480469 318.453125 487.648438 318.453125 484.160156 L 318.453125 454.777344 C 314.609375 454.566406 309.800781 453.847656 305.808594 452.785156 Z M 305.808594 484.160156 " fill-opacity="1" fill-rule="nonzero"/><path fill="#ff751f" d="M 336.203125 368.734375 C 336.203125 369.753906 336.105469 370.765625 335.90625 371.769531 C 335.707031 372.769531 335.410156 373.746094 335.019531 374.6875 C 334.628906 375.632812 334.148438 376.527344 333.582031 377.378906 C 333.015625 378.226562 332.367188 379.015625 331.644531 379.738281 C 330.921875 380.460938 330.136719 381.105469 329.289062 381.671875 C 328.4375 382.238281 327.542969 382.71875 326.597656 383.109375 C 325.652344 383.5 324.679688 383.796875 323.679688 383.996094 C 322.675781 384.195312 321.664062 384.296875 320.640625 384.296875 C 319.621094 384.296875 318.609375 384.195312 317.605469 383.996094 C 316.605469 383.796875 315.632812 383.5 314.6875 383.109375 C 313.742188 382.71875 312.847656 382.238281 311.996094 381.671875 C 311.148438 381.105469 310.359375 380.460938 309.636719 379.738281 C 308.914062 379.015625 308.269531 378.226562 307.703125 377.378906 C 307.136719 376.527344 306.65625 375.632812 306.265625 374.6875 C 305.875 373.746094 305.578125 372.769531 305.378906 371.769531 C 305.179688 370.765625 305.082031 369.753906 305.082031 368.734375 C 305.082031 367.710938 305.179688 366.699219 305.378906 365.695312 C 305.578125 364.695312 305.875 363.722656 306.265625 362.777344 C 306.65625 361.832031 307.136719 360.9375 307.703125 360.085938 C 308.269531 359.238281 308.914062 358.453125 309.636719 357.730469 C 310.359375 357.007812 311.148438 356.359375 311.996094 355.792969 C 312.847656 355.226562 313.742188 354.746094 314.6875 354.355469 C 315.632812 353.964844 316.605469 353.667969 317.605469 353.46875 C 318.609375 353.269531 319.621094 353.171875 320.640625 353.171875 C 321.664062 353.171875 322.675781 353.269531 323.679688 353.46875 C 324.679688 353.667969 325.652344 353.964844 326.597656 354.355469 C 327.542969 354.746094 328.4375 355.226562 329.289062 355.792969 C 330.136719 356.359375 330.921875 357.007812 331.644531 357.730469 C 332.367188 358.453125 333.015625 359.238281 333.582031 360.085938 C 334.148438 360.9375 334.628906 361.832031 335.019531 362.777344 C 335.410156 363.722656 335.707031 364.695312 335.90625 365.695312 C 336.105469 366.699219 336.203125 367.710938 336.203125 368.734375 Z M 336.203125 368.734375 " fill-opacity="1" fill-rule="nonzero"/><path fill="#ff751f" d="M 290.40625 437.503906 C 290.589844 437.527344 290.777344 437.535156 290.960938 437.535156 C 293.402344 437.535156 295.503906 435.707031 295.789062 433.226562 C 297.148438 421.3125 299.769531 413.375 302.464844 408.109375 C 300.328125 420.027344 298.027344 435.320312 298.027344 445.957031 C 298.027344 449.710938 312.859375 452.574219 320.640625 452.574219 C 328.421875 452.574219 343.253906 449.710938 343.253906 445.957031 C 343.253906 435.324219 340.957031 420.039062 338.820312 408.125 C 341.511719 413.386719 344.136719 421.320312 345.492188 433.226562 C 345.777344 435.707031 347.878906 437.539062 350.320312 437.539062 C 350.503906 437.539062 350.691406 437.527344 350.875 437.507812 C 353.542969 437.203125 355.460938 434.792969 355.15625 432.125 C 353.019531 413.355469 347.804688 402.46875 342.617188 396.175781 C 339.566406 392.460938 336.558594 390.445312 334.425781 389.382812 C 332.96875 388.507812 329.1875 386.960938 320.640625 386.960938 C 312.109375 386.960938 308.328125 388.5 306.859375 389.375 C 304.730469 390.441406 301.71875 392.453125 298.660156 396.175781 C 293.472656 402.464844 288.257812 413.355469 286.121094 432.125 C 285.820312 434.789062 287.738281 437.199219 290.40625 437.503906 Z M 290.40625 437.503906 " fill-opacity="1" fill-rule="nonzero"/><g clip-path="url(#082a751008)"><path fill="#ff751f" d="M 563.757812 319.453125 L 555.019531 328.191406 L 404.6875 177.859375 L 254.359375 328.191406 L 245.621094 319.453125 L 404.6875 160.386719 Z M 563.757812 319.453125 " fill-opacity="1" fill-rule="nonzero"/></g></svg>