<svg xmlns="http://www.w3.org/2000/svg" xmlns:xlink="http://www.w3.org/1999/xlink" width="1080" zoomAndPan="magnify" viewBox="0 0 810 809.999993" height="1080" preserveAspectRatio="xMidYMid meet" version="1.0"><defs><clipPath id="7998ab34f9"><path d="M 153.480469 81 L 656.503906 81 L 656.503906 729 L 153.480469 729 Z M 153.480469 81 " clip-rule="nonzero"/></clipPath><clipPath id="ffbd3ef16a"><path d="M 153.480469 316.082031 C 153.480469 181.875 266.085938 81 404.992188 81 C 543.898438 81 656.503906 181.875 656.503906 316.082031 C 656.503906 489.164062 404.992188 729 404.992188 729 C 404.992188 729 153.480469 489.164062 153.480469 316.082031 Z M 153.480469 316.082031 " clip-rule="nonzero"/></clipPath><clipPath id="a063333bdc"><path d="M 0.480469 0 L 503.503906 0 L 503.503906 648 L 0.480469 648 Z M 0.480469 0 " clip-rule="nonzero"/></clipPath><clipPath id="8f5e225086"><path d="M 0.480469 235.082031 C 0.480469 100.875 113.085938 0 251.992188 0 C 390.898438 0 503.503906 100.875 503.503906 235.082031 C 503.503906 408.164062 251.992188 648 251.992188 648 C 251.992188 648 0.480469 408.164062 0.480469 235.082031 Z M 0.480469 235.082031 " clip-rule="nonzero"/></clipPath><clipPath id="dda052638c"><rect x="0" width="504" y="0" height="648"/></clipPath><clipPath id="ca28167202"><path d="M 205.492188 126.609375 L 604.507812 126.609375 L 604.507812 525.625 L 205.492188 525.625 Z M 205.492188 126.609375 " clip-rule="nonzero"/></clipPath><clipPath id="b6094f38a8"><path d="M 405 126.609375 C 294.816406 126.609375 205.492188 215.933594 205.492188 326.117188 C 205.492188 436.300781 294.816406 525.625 405 525.625 C 515.183594 525.625 604.507812 436.300781 604.507812 326.117188 C 604.507812 215.933594 515.183594 126.609375 405 126.609375 Z M 405 126.609375 " clip-rule="nonzero"/></clipPath><clipPath id="dd57a90bda"><path d="M 0.492188 0.609375 L 399.507812 0.609375 L 399.507812 399.625 L 0.492188 399.625 Z M 0.492188 0.609375 " clip-rule="nonzero"/></clipPath><clipPath id="33063ff9c8"><path d="M 200 0.609375 C 89.816406 0.609375 0.492188 89.933594 0.492188 200.117188 C 0.492188 310.300781 89.816406 399.625 200 399.625 C 310.183594 399.625 399.507812 310.300781 399.507812 200.117188 C 399.507812 89.933594 310.183594 0.609375 200 0.609375 Z M 200 0.609375 " clip-rule="nonzero"/></clipPath><clipPath id="805b30943e"><rect x="0" width="400" y="0" height="400"/></clipPath><clipPath id="4efccef36f"><path d="M 285.691406 186.578125 L 524.191406 186.578125 L 524.191406 478.328125 L 285.691406 478.328125 Z M 285.691406 186.578125 " clip-rule="nonzero"/></clipPath></defs><g clip-path="url(#7998ab34f9)"><g clip-path="url(#ffbd3ef16a)"><g transform="matrix(1, 0, 0, 1, 153, 81)"><g clip-path="url(#dda052638c)"><g clip-path="url(#a063333bdc)"><g clip-path="url(#8f5e225086)"><path fill="#1f48ff" d="M 503.503906 648 L 0.480469 648 L 0.480469 -0.429688 L 503.503906 -0.429688 Z M 503.503906 648 " fill-opacity="1" fill-rule="nonzero"/></g></g></g></g></g></g><g clip-path="url(#ca28167202)"><g clip-path="url(#b6094f38a8)"><g transform="matrix(1, 0, 0, 1, 205, 126)"><g clip-path="url(#805b30943e)"><g clip-path="url(#dd57a90bda)"><g clip-path="url(#33063ff9c8)"><path fill="#ffffff" d="M 0.492188 0.609375 L 399.507812 0.609375 L 399.507812 399.625 L 0.492188 399.625 Z M 0.492188 0.609375 " fill-opacity="1" fill-rule="nonzero"/></g></g></g></g></g></g><g clip-path="url(#4efccef36f)"><path fill="#1f48ff" d="M 517.59375 478.011719 L 471.230469 478.011719 C 467.566406 478.011719 464.605469 475.042969 464.605469 471.386719 L 464.605469 352.164062 L 345.382812 352.164062 L 345.382812 471.386719 C 345.382812 475.042969 342.421875 478.011719 338.757812 478.011719 L 292.394531 478.011719 C 288.730469 478.011719 285.773438 475.042969 285.773438 471.386719 L 285.773438 193.203125 C 285.773438 189.546875 288.730469 186.578125 292.394531 186.578125 L 338.757812 186.578125 C 342.421875 186.578125 345.382812 189.546875 345.382812 193.203125 L 345.382812 299.175781 L 464.605469 299.175781 L 464.605469 193.203125 C 464.605469 189.546875 467.566406 186.578125 471.230469 186.578125 L 517.59375 186.578125 C 521.257812 186.578125 524.21875 189.546875 524.21875 193.203125 L 524.21875 471.386719 C 524.21875 475.042969 521.257812 478.011719 517.59375 478.011719 Z M 517.59375 478.011719 " fill-opacity="1" fill-rule="nonzero"/></g></svg>