<svg xmlns="http://www.w3.org/2000/svg" xmlns:xlink="http://www.w3.org/1999/xlink" width="1080" zoomAndPan="magnify" viewBox="0 0 810 809.999993" height="1080" preserveAspectRatio="xMidYMid meet" version="1.0"><defs><clipPath id="3f39a9ec8a"><path d="M 153.480469 81 L 656.503906 81 L 656.503906 729 L 153.480469 729 Z M 153.480469 81 " clip-rule="nonzero"/></clipPath><clipPath id="3c3ae2a0d8"><path d="M 153.480469 316.082031 C 153.480469 181.875 266.085938 81 404.992188 81 C 543.898438 81 656.503906 181.875 656.503906 316.082031 C 656.503906 489.164062 404.992188 729 404.992188 729 C 404.992188 729 153.480469 489.164062 153.480469 316.082031 Z M 153.480469 316.082031 " clip-rule="nonzero"/></clipPath><clipPath id="98d38a7ce1"><path d="M 0.480469 0 L 503.503906 0 L 503.503906 648 L 0.480469 648 Z M 0.480469 0 " clip-rule="nonzero"/></clipPath><clipPath id="523ff170fb"><path d="M 0.480469 235.082031 C 0.480469 100.875 113.085938 0 251.992188 0 C 390.898438 0 503.503906 100.875 503.503906 235.082031 C 503.503906 408.164062 251.992188 648 251.992188 648 C 251.992188 648 0.480469 408.164062 0.480469 235.082031 Z M 0.480469 235.082031 " clip-rule="nonzero"/></clipPath><clipPath id="0002222cca"><rect x="0" width="504" y="0" height="648"/></clipPath><clipPath id="ea8d46d3a0"><path d="M 205.492188 126.609375 L 604.507812 126.609375 L 604.507812 525.625 L 205.492188 525.625 Z M 205.492188 126.609375 " clip-rule="nonzero"/></clipPath><clipPath id="4f0c05dd9e"><path d="M 405 126.609375 C 294.816406 126.609375 205.492188 215.933594 205.492188 326.117188 C 205.492188 436.300781 294.816406 525.625 405 525.625 C 515.183594 525.625 604.507812 436.300781 604.507812 326.117188 C 604.507812 215.933594 515.183594 126.609375 405 126.609375 Z M 405 126.609375 " clip-rule="nonzero"/></clipPath><clipPath id="eeab33d4c2"><path d="M 0.492188 0.609375 L 399.507812 0.609375 L 399.507812 399.625 L 0.492188 399.625 Z M 0.492188 0.609375 " clip-rule="nonzero"/></clipPath><clipPath id="e58259b9e2"><path d="M 200 0.609375 C 89.816406 0.609375 0.492188 89.933594 0.492188 200.117188 C 0.492188 310.300781 89.816406 399.625 200 399.625 C 310.183594 399.625 399.507812 310.300781 399.507812 200.117188 C 399.507812 89.933594 310.183594 0.609375 200 0.609375 Z M 200 0.609375 " clip-rule="nonzero"/></clipPath><clipPath id="27cb65a001"><rect x="0" width="400" y="0" height="400"/></clipPath><clipPath id="4e39a76b7b"><path d="M 266.671875 285 L 322 285 L 322 405 L 266.671875 405 Z M 266.671875 285 " clip-rule="nonzero"/></clipPath><clipPath id="75eeb3ae09"><path d="M 376 358 L 432 358 L 432 477.472656 L 376 477.472656 Z M 376 358 " clip-rule="nonzero"/></clipPath></defs><g clip-path="url(#3f39a9ec8a)"><g clip-path="url(#3c3ae2a0d8)"><g transform="matrix(1, 0, 0, 1, 153, 81)"><g clip-path="url(#0002222cca)"><g clip-path="url(#98d38a7ce1)"><g clip-path="url(#523ff170fb)"><path fill="#ff751f" d="M 503.503906 648 L 0.480469 648 L 0.480469 -0.429688 L 503.503906 -0.429688 Z M 503.503906 648 " fill-opacity="1" fill-rule="nonzero"/></g></g></g></g></g></g><g clip-path="url(#ea8d46d3a0)"><g clip-path="url(#4f0c05dd9e)"><g transform="matrix(1, 0, 0, 1, 205, 126)"><g clip-path="url(#27cb65a001)"><g clip-path="url(#eeab33d4c2)"><g clip-path="url(#e58259b9e2)"><path fill="#ffffff" d="M 0.492188 0.609375 L 399.507812 0.609375 L 399.507812 399.625 L 0.492188 399.625 Z M 0.492188 0.609375 " fill-opacity="1" fill-rule="nonzero"/></g></g></g></g></g></g><path fill="#ff751f" d="M 473.175781 330.890625 C 473.175781 331.671875 473.101562 332.445312 472.949219 333.210938 C 472.796875 333.976562 472.570312 334.722656 472.273438 335.445312 C 471.972656 336.164062 471.605469 336.851562 471.171875 337.5 C 470.738281 338.152344 470.246094 338.753906 469.691406 339.304688 C 469.140625 339.855469 468.539062 340.351562 467.890625 340.785156 C 467.238281 341.21875 466.554688 341.585938 465.832031 341.882812 C 465.109375 342.183594 464.367188 342.410156 463.597656 342.5625 C 462.832031 342.714844 462.058594 342.789062 461.277344 342.789062 C 460.496094 342.789062 459.722656 342.714844 458.957031 342.5625 C 458.191406 342.410156 457.445312 342.183594 456.722656 341.882812 C 456 341.585938 455.316406 341.21875 454.667969 340.785156 C 454.015625 340.351562 453.414062 339.855469 452.863281 339.304688 C 452.3125 338.753906 451.816406 338.152344 451.382812 337.5 C 450.949219 336.851562 450.582031 336.164062 450.285156 335.445312 C 449.984375 334.722656 449.757812 333.976562 449.605469 333.210938 C 449.453125 332.445312 449.378906 331.671875 449.378906 330.890625 C 449.378906 330.109375 449.453125 329.335938 449.605469 328.570312 C 449.757812 327.800781 449.984375 327.058594 450.285156 326.335938 C 450.582031 325.613281 450.949219 324.929688 451.382812 324.277344 C 451.816406 323.628906 452.3125 323.027344 452.863281 322.476562 C 453.414062 321.921875 454.015625 321.429688 454.667969 320.996094 C 455.316406 320.5625 456 320.195312 456.722656 319.894531 C 457.445312 319.597656 458.191406 319.371094 458.957031 319.21875 C 459.722656 319.066406 460.496094 318.992188 461.277344 318.992188 C 462.058594 318.992188 462.832031 319.066406 463.597656 319.21875 C 464.367188 319.371094 465.109375 319.597656 465.832031 319.894531 C 466.554688 320.195312 467.238281 320.5625 467.890625 320.996094 C 468.539062 321.429688 469.140625 321.921875 469.691406 322.476562 C 470.246094 323.027344 470.738281 323.628906 471.171875 324.277344 C 471.605469 324.929688 471.972656 325.613281 472.273438 326.335938 C 472.570312 327.058594 472.796875 327.800781 472.949219 328.570312 C 473.101562 329.335938 473.175781 330.109375 473.175781 330.890625 Z M 473.175781 330.890625 " fill-opacity="1" fill-rule="nonzero"/><path fill="#ff751f" d="M 447.210938 458.148438 C 447.210938 461.828125 450.199219 464.816406 453.878906 464.816406 C 457.566406 464.816406 460.550781 461.828125 460.550781 458.148438 L 460.558594 402.191406 L 463.527344 402.191406 L 463.507812 458.148438 C 463.507812 461.828125 466.496094 464.816406 470.175781 464.816406 C 473.859375 464.816406 476.84375 461.828125 476.84375 458.148438 L 476.875 361.675781 L 479.796875 361.675781 L 479.796875 397.226562 C 479.796875 404.375 489.128906 404.375 489.109375 397.226562 L 489.109375 360.914062 C 489.109375 353.011719 484.46875 345.269531 475.222656 345.269531 L 448.554688 345.253906 C 440.128906 345.253906 434.851562 352.125 434.851562 360.695312 L 434.851562 397.226562 C 434.851562 404.324219 444.234375 404.324219 444.234375 397.226562 L 444.234375 361.675781 L 447.21875 361.675781 Z M 447.210938 458.148438 " fill-opacity="1" fill-rule="nonzero"/><path fill="#ff751f" d="M 524.554688 270.957031 C 524.554688 271.738281 524.476562 272.511719 524.324219 273.28125 C 524.171875 274.046875 523.945312 274.789062 523.648438 275.511719 C 523.347656 276.234375 522.980469 276.917969 522.546875 277.570312 C 522.113281 278.21875 521.621094 278.820312 521.066406 279.371094 C 520.515625 279.925781 519.914062 280.417969 519.265625 280.851562 C 518.613281 281.285156 517.929688 281.652344 517.207031 281.953125 C 516.484375 282.25 515.742188 282.476562 514.976562 282.628906 C 514.207031 282.78125 513.433594 282.859375 512.652344 282.859375 C 511.871094 282.859375 511.097656 282.78125 510.332031 282.628906 C 509.566406 282.476562 508.820312 282.25 508.101562 281.953125 C 507.378906 281.652344 506.691406 281.285156 506.042969 280.851562 C 505.394531 280.417969 504.792969 279.925781 504.238281 279.371094 C 503.6875 278.820312 503.195312 278.21875 502.757812 277.570312 C 502.324219 276.917969 501.957031 276.234375 501.660156 275.511719 C 501.359375 274.789062 501.136719 274.046875 500.984375 273.28125 C 500.832031 272.511719 500.753906 271.738281 500.753906 270.957031 C 500.753906 270.175781 500.832031 269.402344 500.984375 268.636719 C 501.136719 267.871094 501.359375 267.125 501.660156 266.402344 C 501.957031 265.683594 502.324219 264.996094 502.757812 264.347656 C 503.195312 263.695312 503.6875 263.097656 504.238281 262.542969 C 504.792969 261.992188 505.394531 261.496094 506.042969 261.0625 C 506.691406 260.628906 507.378906 260.261719 508.101562 259.964844 C 508.820312 259.664062 509.566406 259.4375 510.332031 259.285156 C 511.097656 259.132812 511.871094 259.058594 512.652344 259.058594 C 513.433594 259.058594 514.207031 259.132812 514.976562 259.285156 C 515.742188 259.4375 516.484375 259.664062 517.207031 259.964844 C 517.929688 260.261719 518.613281 260.628906 519.265625 261.0625 C 519.914062 261.496094 520.515625 261.992188 521.066406 262.542969 C 521.621094 263.097656 522.113281 263.695312 522.546875 264.347656 C 522.980469 264.996094 523.347656 265.683594 523.648438 266.402344 C 523.945312 267.125 524.171875 267.871094 524.324219 268.636719 C 524.476562 269.402344 524.554688 270.175781 524.554688 270.957031 Z M 524.554688 270.957031 " fill-opacity="1" fill-rule="nonzero"/><path fill="#ff751f" d="M 498.585938 398.214844 C 498.585938 401.894531 501.578125 404.882812 505.253906 404.882812 C 508.941406 404.882812 511.925781 401.894531 511.925781 398.214844 L 511.933594 342.257812 L 514.902344 342.257812 L 514.882812 398.214844 C 514.882812 401.894531 517.871094 404.882812 521.554688 404.882812 C 525.234375 404.882812 528.21875 401.894531 528.21875 398.214844 L 528.25 301.742188 L 531.171875 301.742188 L 531.171875 337.296875 C 531.171875 344.445312 540.503906 344.445312 540.484375 337.296875 L 540.484375 300.980469 C 540.484375 293.078125 535.84375 285.335938 526.597656 285.335938 L 499.929688 285.324219 C 491.503906 285.324219 486.226562 292.191406 486.226562 300.761719 L 486.226562 337.292969 C 486.226562 344.390625 495.609375 344.390625 495.609375 337.292969 L 495.609375 301.742188 L 498.59375 301.742188 Z M 498.585938 398.214844 " fill-opacity="1" fill-rule="nonzero"/><path fill="#ff751f" d="M 473.492188 212.054688 C 473.492188 212.835938 473.417969 213.609375 473.265625 214.375 C 473.113281 215.144531 472.886719 215.886719 472.585938 216.609375 C 472.289062 217.332031 471.921875 218.015625 471.488281 218.664062 C 471.054688 219.316406 470.5625 219.914062 470.007812 220.46875 C 469.457031 221.019531 468.855469 221.515625 468.207031 221.949219 C 467.554688 222.382812 466.871094 222.75 466.148438 223.046875 C 465.425781 223.347656 464.683594 223.570312 463.917969 223.722656 C 463.152344 223.875 462.378906 223.953125 461.597656 223.953125 C 460.816406 223.953125 460.042969 223.875 459.273438 223.722656 C 458.507812 223.570312 457.765625 223.347656 457.042969 223.046875 C 456.320312 222.75 455.636719 222.382812 454.988281 221.949219 C 454.335938 221.515625 453.734375 221.019531 453.183594 220.46875 C 452.632812 219.914062 452.136719 219.316406 451.703125 218.664062 C 451.269531 218.015625 450.902344 217.332031 450.605469 216.609375 C 450.304688 215.886719 450.082031 215.144531 449.929688 214.375 C 449.777344 213.609375 449.699219 212.835938 449.699219 212.054688 C 449.699219 211.273438 449.777344 210.5 449.929688 209.734375 C 450.082031 208.96875 450.304688 208.226562 450.605469 207.503906 C 450.902344 206.78125 451.269531 206.097656 451.703125 205.445312 C 452.136719 204.796875 452.632812 204.195312 453.183594 203.644531 C 453.734375 203.089844 454.335938 202.597656 454.988281 202.164062 C 455.636719 201.730469 456.320312 201.363281 457.042969 201.066406 C 457.765625 200.765625 458.507812 200.539062 459.273438 200.386719 C 460.042969 200.234375 460.816406 200.160156 461.597656 200.160156 C 462.378906 200.160156 463.152344 200.234375 463.917969 200.386719 C 464.683594 200.539062 465.425781 200.765625 466.148438 201.066406 C 466.871094 201.363281 467.554688 201.730469 468.207031 202.164062 C 468.855469 202.597656 469.457031 203.089844 470.007812 203.644531 C 470.5625 204.195312 471.054688 204.796875 471.488281 205.445312 C 471.921875 206.097656 472.289062 206.78125 472.585938 207.503906 C 472.886719 208.226562 473.113281 208.96875 473.265625 209.734375 C 473.417969 210.5 473.492188 211.273438 473.492188 212.054688 Z M 473.492188 212.054688 " fill-opacity="1" fill-rule="nonzero"/><path fill="#ff751f" d="M 475.542969 226.4375 L 448.875 226.425781 C 440.449219 226.425781 435.171875 233.292969 435.171875 241.863281 L 435.171875 278.394531 C 435.171875 285.492188 444.554688 285.492188 444.554688 278.394531 L 444.554688 242.839844 L 447.539062 242.839844 L 447.53125 320.503906 C 452.414062 319.464844 456.894531 318.257812 460.871094 316.910156 L 460.875 283.355469 L 463.84375 283.355469 L 463.835938 315.832031 C 469.699219 313.589844 474.257812 311.003906 477.175781 308.1875 L 477.195312 242.835938 L 480.117188 242.835938 L 480.117188 278.390625 C 480.117188 285.539062 489.449219 285.539062 489.429688 278.390625 L 489.429688 242.078125 C 489.429688 234.179688 484.789062 226.4375 475.542969 226.4375 Z M 475.542969 226.4375 " fill-opacity="1" fill-rule="nonzero"/><path fill="#ff751f" d="M 357.898438 330.890625 C 357.898438 331.671875 357.820312 332.445312 357.667969 333.210938 C 357.515625 333.976562 357.289062 334.722656 356.992188 335.445312 C 356.691406 336.164062 356.324219 336.851562 355.890625 337.5 C 355.457031 338.152344 354.964844 338.753906 354.410156 339.304688 C 353.859375 339.855469 353.257812 340.351562 352.609375 340.785156 C 351.960938 341.21875 351.273438 341.585938 350.550781 341.882812 C 349.828125 342.183594 349.085938 342.410156 348.320312 342.5625 C 347.554688 342.714844 346.777344 342.789062 345.996094 342.789062 C 345.214844 342.789062 344.441406 342.714844 343.675781 342.5625 C 342.910156 342.410156 342.164062 342.183594 341.445312 341.882812 C 340.722656 341.585938 340.035156 341.21875 339.386719 340.785156 C 338.738281 340.351562 338.136719 339.855469 337.582031 339.304688 C 337.03125 338.753906 336.539062 338.152344 336.101562 337.5 C 335.667969 336.851562 335.300781 336.164062 335.003906 335.445312 C 334.703125 334.722656 334.480469 333.976562 334.328125 333.210938 C 334.175781 332.445312 334.097656 331.671875 334.097656 330.890625 C 334.097656 330.109375 334.175781 329.335938 334.328125 328.570312 C 334.480469 327.800781 334.703125 327.058594 335.003906 326.335938 C 335.300781 325.613281 335.667969 324.929688 336.101562 324.277344 C 336.539062 323.628906 337.03125 323.027344 337.582031 322.476562 C 338.136719 321.921875 338.738281 321.429688 339.386719 320.996094 C 340.035156 320.5625 340.722656 320.195312 341.445312 319.894531 C 342.164062 319.597656 342.910156 319.371094 343.675781 319.21875 C 344.441406 319.066406 345.214844 318.992188 345.996094 318.992188 C 346.777344 318.992188 347.554688 319.066406 348.320312 319.21875 C 349.085938 319.371094 349.828125 319.597656 350.550781 319.894531 C 351.273438 320.195312 351.960938 320.5625 352.609375 320.996094 C 353.257812 321.429688 353.859375 321.921875 354.410156 322.476562 C 354.964844 323.027344 355.457031 323.628906 355.890625 324.277344 C 356.324219 324.929688 356.691406 325.613281 356.992188 326.335938 C 357.289062 327.058594 357.515625 327.800781 357.667969 328.570312 C 357.820312 329.335938 357.898438 330.109375 357.898438 330.890625 Z M 357.898438 330.890625 " fill-opacity="1" fill-rule="nonzero"/><path fill="#ff751f" d="M 360.054688 361.675781 L 363.039062 361.675781 L 363.039062 397.226562 C 363.039062 404.324219 372.421875 404.324219 372.421875 397.226562 L 372.421875 360.695312 C 372.421875 352.121094 367.144531 345.253906 358.71875 345.253906 L 332.050781 345.269531 C 322.804688 345.269531 318.164062 353.011719 318.164062 360.914062 L 318.164062 397.226562 C 318.144531 404.375 327.476562 404.375 327.476562 397.226562 L 327.476562 361.671875 L 330.398438 361.671875 L 330.429688 458.144531 C 330.429688 461.824219 333.414062 464.8125 337.09375 464.8125 C 340.777344 464.8125 343.765625 461.824219 343.765625 458.144531 L 343.746094 402.1875 L 346.714844 402.1875 L 346.722656 458.144531 C 346.722656 461.824219 349.707031 464.8125 353.394531 464.8125 C 357.070312 464.8125 360.0625 461.824219 360.0625 458.144531 Z M 360.054688 361.675781 " fill-opacity="1" fill-rule="nonzero"/><path fill="#ff751f" d="M 306.519531 270.957031 C 306.519531 271.738281 306.445312 272.511719 306.292969 273.28125 C 306.140625 274.046875 305.914062 274.789062 305.617188 275.511719 C 305.316406 276.234375 304.949219 276.917969 304.515625 277.570312 C 304.082031 278.21875 303.589844 278.820312 303.035156 279.371094 C 302.484375 279.925781 301.882812 280.417969 301.234375 280.851562 C 300.582031 281.285156 299.898438 281.652344 299.175781 281.953125 C 298.453125 282.25 297.710938 282.476562 296.941406 282.628906 C 296.175781 282.78125 295.402344 282.859375 294.621094 282.859375 C 293.839844 282.859375 293.066406 282.78125 292.300781 282.628906 C 291.535156 282.476562 290.789062 282.25 290.066406 281.953125 C 289.347656 281.652344 288.660156 281.285156 288.011719 280.851562 C 287.359375 280.417969 286.757812 279.925781 286.207031 279.371094 C 285.65625 278.820312 285.160156 278.21875 284.726562 277.570312 C 284.292969 276.917969 283.925781 276.234375 283.628906 275.511719 C 283.328125 274.789062 283.101562 274.046875 282.949219 273.28125 C 282.796875 272.511719 282.722656 271.738281 282.722656 270.957031 C 282.722656 270.175781 282.796875 269.402344 282.949219 268.636719 C 283.101562 267.871094 283.328125 267.125 283.628906 266.402344 C 283.925781 265.683594 284.292969 264.996094 284.726562 264.347656 C 285.160156 263.695312 285.65625 263.097656 286.207031 262.542969 C 286.757812 261.992188 287.359375 261.496094 288.011719 261.0625 C 288.660156 260.628906 289.347656 260.261719 290.066406 259.964844 C 290.789062 259.664062 291.535156 259.4375 292.300781 259.285156 C 293.066406 259.132812 293.839844 259.058594 294.621094 259.058594 C 295.402344 259.058594 296.175781 259.132812 296.941406 259.285156 C 297.710938 259.4375 298.453125 259.664062 299.175781 259.964844 C 299.898438 260.261719 300.582031 260.628906 301.234375 261.0625 C 301.882812 261.496094 302.484375 261.992188 303.035156 262.542969 C 303.589844 263.097656 304.082031 263.695312 304.515625 264.347656 C 304.949219 264.996094 305.316406 265.683594 305.617188 266.402344 C 305.914062 267.125 306.140625 267.871094 306.292969 268.636719 C 306.445312 269.402344 306.519531 270.175781 306.519531 270.957031 Z M 306.519531 270.957031 " fill-opacity="1" fill-rule="nonzero"/><g clip-path="url(#4e39a76b7b)"><path fill="#ff751f" d="M 308.675781 301.742188 L 311.664062 301.742188 L 311.664062 337.292969 C 311.664062 344.390625 321.042969 344.390625 321.042969 337.292969 L 321.042969 300.761719 C 321.042969 292.191406 315.765625 285.324219 307.339844 285.324219 L 280.675781 285.335938 C 271.429688 285.335938 266.789062 293.078125 266.789062 300.980469 L 266.789062 337.292969 C 266.765625 344.441406 276.097656 344.441406 276.097656 337.292969 L 276.097656 301.738281 L 279.023438 301.738281 L 279.054688 398.210938 C 279.054688 401.894531 282.039062 404.882812 285.71875 404.882812 C 289.398438 404.882812 292.386719 401.894531 292.386719 398.210938 L 292.371094 342.253906 L 295.339844 342.253906 L 295.34375 398.210938 C 295.34375 401.894531 298.332031 404.882812 302.015625 404.882812 C 305.695312 404.882812 308.6875 401.894531 308.6875 398.210938 Z M 308.675781 301.742188 " fill-opacity="1" fill-rule="nonzero"/></g><path fill="#ff751f" d="M 357.574219 212.054688 C 357.574219 212.835938 357.5 213.609375 357.347656 214.375 C 357.195312 215.144531 356.96875 215.886719 356.671875 216.609375 C 356.371094 217.332031 356.003906 218.015625 355.570312 218.664062 C 355.136719 219.316406 354.644531 219.914062 354.089844 220.46875 C 353.539062 221.019531 352.9375 221.515625 352.289062 221.949219 C 351.640625 222.382812 350.953125 222.75 350.230469 223.046875 C 349.511719 223.347656 348.765625 223.570312 348 223.722656 C 347.234375 223.875 346.460938 223.953125 345.679688 223.953125 C 344.898438 223.953125 344.125 223.875 343.359375 223.722656 C 342.59375 223.570312 341.847656 223.347656 341.125 223.046875 C 340.40625 222.75 339.71875 222.382812 339.070312 221.949219 C 338.421875 221.515625 337.820312 221.019531 337.265625 220.46875 C 336.714844 219.914062 336.222656 219.316406 335.789062 218.664062 C 335.351562 218.015625 334.988281 217.332031 334.6875 216.609375 C 334.390625 215.886719 334.164062 215.144531 334.011719 214.375 C 333.859375 213.609375 333.78125 212.835938 333.78125 212.054688 C 333.78125 211.273438 333.859375 210.5 334.011719 209.734375 C 334.164062 208.96875 334.390625 208.226562 334.6875 207.503906 C 334.988281 206.78125 335.351562 206.097656 335.789062 205.445312 C 336.222656 204.796875 336.714844 204.195312 337.265625 203.644531 C 337.820312 203.089844 338.421875 202.597656 339.070312 202.164062 C 339.71875 201.730469 340.40625 201.363281 341.125 201.066406 C 341.847656 200.765625 342.59375 200.539062 343.359375 200.386719 C 344.125 200.234375 344.898438 200.160156 345.679688 200.160156 C 346.460938 200.160156 347.234375 200.234375 348 200.386719 C 348.765625 200.539062 349.511719 200.765625 350.230469 201.066406 C 350.953125 201.363281 351.640625 201.730469 352.289062 202.164062 C 352.9375 202.597656 353.539062 203.089844 354.089844 203.644531 C 354.644531 204.195312 355.136719 204.796875 355.570312 205.445312 C 356.003906 206.097656 356.371094 206.78125 356.671875 207.503906 C 356.96875 208.226562 357.195312 208.96875 357.347656 209.734375 C 357.5 210.5 357.574219 211.273438 357.574219 212.054688 Z M 357.574219 212.054688 " fill-opacity="1" fill-rule="nonzero"/><path fill="#ff751f" d="M 331.730469 226.4375 L 358.398438 226.425781 C 366.824219 226.425781 372.101562 233.292969 372.101562 241.863281 L 372.101562 278.394531 C 372.101562 285.492188 362.71875 285.492188 362.71875 278.394531 L 362.71875 242.839844 L 359.734375 242.839844 L 359.742188 320.5 C 354.859375 319.460938 350.378906 318.253906 346.402344 316.90625 L 346.398438 283.351562 L 343.429688 283.351562 L 343.441406 315.828125 C 337.578125 313.585938 333.019531 311 330.101562 308.1875 L 330.078125 242.835938 L 327.15625 242.835938 L 327.15625 278.390625 C 327.15625 285.539062 317.824219 285.539062 317.847656 278.390625 L 317.847656 242.078125 C 317.847656 234.179688 322.484375 226.4375 331.730469 226.4375 Z M 331.730469 226.4375 " fill-opacity="1" fill-rule="nonzero"/><path fill="#ff751f" d="M 415.140625 343.8125 C 415.140625 350.246094 410.039062 355.441406 403.632812 355.65625 C 397.257812 355.441406 392.128906 350.246094 392.128906 343.8125 C 392.128906 340.59375 393.425781 337.6875 395.5 335.550781 C 397.570312 333.417969 400.449219 332.085938 403.632812 331.964844 C 410.039062 332.179688 415.140625 337.375 415.140625 343.8125 Z M 415.140625 343.8125 " fill-opacity="1" fill-rule="nonzero"/><g clip-path="url(#75eeb3ae09)"><path fill="#ff751f" d="M 431.070312 373.847656 L 431.070312 410.128906 C 431.101562 417.277344 421.761719 417.277344 421.761719 410.128906 L 421.761719 374.589844 L 418.851562 374.589844 L 418.824219 471.066406 C 418.824219 474.746094 415.820312 477.714844 412.140625 477.714844 C 408.460938 477.714844 405.460938 474.746094 405.460938 471.066406 L 405.492188 415.109375 L 401.78125 415.109375 L 401.8125 471.066406 C 401.8125 474.746094 398.808594 477.714844 395.132812 477.714844 C 391.449219 477.714844 388.480469 474.746094 388.480469 471.066406 L 388.449219 374.589844 L 385.511719 374.589844 L 385.511719 410.128906 C 385.511719 417.277344 376.167969 417.277344 376.199219 410.128906 L 376.199219 373.847656 C 376.199219 365.925781 380.839844 358.195312 390.089844 358.195312 L 417.1875 358.195312 C 426.433594 358.195312 431.070312 365.925781 431.070312 373.847656 Z M 431.070312 373.847656 " fill-opacity="1" fill-rule="nonzero"/></g><path fill="#ff751f" d="M 415.109375 202.914062 C 415.109375 209.347656 410.007812 214.542969 403.632812 214.757812 C 397.257812 214.542969 392.160156 209.347656 392.160156 202.914062 C 392.160156 196.476562 397.257812 191.28125 403.632812 191.066406 C 410.007812 191.28125 415.109375 196.476562 415.109375 202.914062 Z M 415.109375 202.914062 " fill-opacity="1" fill-rule="nonzero"/><path fill="#ff751f" d="M 431.070312 232.917969 L 431.070312 269.230469 C 431.070312 276.378906 421.761719 276.378906 421.761719 269.230469 L 421.761719 233.691406 L 418.824219 233.691406 L 418.792969 325.34375 C 414.460938 325.589844 410.003906 325.746094 405.457031 325.777344 L 405.457031 274.210938 L 401.804688 274.210938 L 401.804688 325.777344 C 397.257812 325.746094 392.804688 325.589844 388.472656 325.34375 L 388.441406 233.691406 L 385.535156 233.691406 L 385.535156 269.230469 C 385.535156 276.378906 376.191406 276.378906 376.222656 269.230469 L 376.222656 232.917969 C 376.222656 225.027344 380.863281 217.296875 390.109375 217.296875 L 403.628906 217.265625 L 417.175781 217.296875 C 426.433594 217.296875 431.070312 225.027344 431.070312 232.917969 Z M 431.070312 232.917969 " fill-opacity="1" fill-rule="nonzero"/></svg>