<svg xmlns="http://www.w3.org/2000/svg" xmlns:xlink="http://www.w3.org/1999/xlink" width="1080" zoomAndPan="magnify" viewBox="0 0 810 809.999993" height="1080" preserveAspectRatio="xMidYMid meet" version="1.0"><defs><clipPath id="982cf03d67"><path d="M 153.480469 81 L 656.503906 81 L 656.503906 729 L 153.480469 729 Z M 153.480469 81 " clip-rule="nonzero"/></clipPath><clipPath id="d8ef9609bb"><path d="M 153.480469 316.082031 C 153.480469 181.875 266.085938 81 404.992188 81 C 543.898438 81 656.503906 181.875 656.503906 316.082031 C 656.503906 489.164062 404.992188 729 404.992188 729 C 404.992188 729 153.480469 489.164062 153.480469 316.082031 Z M 153.480469 316.082031 " clip-rule="nonzero"/></clipPath><clipPath id="2994a180d1"><path d="M 0.480469 0 L 503.503906 0 L 503.503906 648 L 0.480469 648 Z M 0.480469 0 " clip-rule="nonzero"/></clipPath><clipPath id="a3ffca010d"><path d="M 0.480469 235.082031 C 0.480469 100.875 113.085938 0 251.992188 0 C 390.898438 0 503.503906 100.875 503.503906 235.082031 C 503.503906 408.164062 251.992188 648 251.992188 648 C 251.992188 648 0.480469 408.164062 0.480469 235.082031 Z M 0.480469 235.082031 " clip-rule="nonzero"/></clipPath><clipPath id="568497c7f6"><rect x="0" width="504" y="0" height="648"/></clipPath><clipPath id="64382fe8b7"><path d="M 205.492188 126.609375 L 604.507812 126.609375 L 604.507812 525.625 L 205.492188 525.625 Z M 205.492188 126.609375 " clip-rule="nonzero"/></clipPath><clipPath id="c6f845accc"><path d="M 405 126.609375 C 294.816406 126.609375 205.492188 215.933594 205.492188 326.117188 C 205.492188 436.300781 294.816406 525.625 405 525.625 C 515.183594 525.625 604.507812 436.300781 604.507812 326.117188 C 604.507812 215.933594 515.183594 126.609375 405 126.609375 Z M 405 126.609375 " clip-rule="nonzero"/></clipPath><clipPath id="41e21092ea"><path d="M 0.492188 0.609375 L 399.507812 0.609375 L 399.507812 399.625 L 0.492188 399.625 Z M 0.492188 0.609375 " clip-rule="nonzero"/></clipPath><clipPath id="de0ec0b51e"><path d="M 200 0.609375 C 89.816406 0.609375 0.492188 89.933594 0.492188 200.117188 C 0.492188 310.300781 89.816406 399.625 200 399.625 C 310.183594 399.625 399.507812 310.300781 399.507812 200.117188 C 399.507812 89.933594 310.183594 0.609375 200 0.609375 Z M 200 0.609375 " clip-rule="nonzero"/></clipPath><clipPath id="eadebd363c"><rect x="0" width="400" y="0" height="400"/></clipPath><clipPath id="fa2bb8592c"><path d="M 289 183.878906 L 371 183.878906 L 371 266 L 289 266 Z M 289 183.878906 " clip-rule="nonzero"/></clipPath><clipPath id="b5720231b3"><path d="M 422 183.878906 L 482 183.878906 L 482 244 L 422 244 Z M 422 183.878906 " clip-rule="nonzero"/></clipPath><clipPath id="5ab3a88dd1"><path d="M 271 325 L 390 325 L 390 465.878906 L 271 465.878906 Z M 271 325 " clip-rule="nonzero"/></clipPath><clipPath id="8e5971bd89"><path d="M 423 429 L 459 429 L 459 465.878906 L 423 465.878906 Z M 423 429 " clip-rule="nonzero"/></clipPath><clipPath id="cd0ab2b383"><path d="M 380 429 L 416 429 L 416 465.878906 L 380 465.878906 Z M 380 429 " clip-rule="nonzero"/></clipPath><clipPath id="dfc24d7726"><path d="M 410 244 L 540 244 L 540 465.878906 L 410 465.878906 Z M 410 244 " clip-rule="nonzero"/></clipPath></defs><g clip-path="url(#982cf03d67)"><g clip-path="url(#d8ef9609bb)"><g transform="matrix(1, 0, 0, 1, 153, 81)"><g clip-path="url(#568497c7f6)"><g clip-path="url(#2994a180d1)"><g clip-path="url(#a3ffca010d)"><path fill="#1f48ff" d="M 503.503906 648 L 0.480469 648 L 0.480469 -0.429688 L 503.503906 -0.429688 Z M 503.503906 648 " fill-opacity="1" fill-rule="nonzero"/></g></g></g></g></g></g><g clip-path="url(#64382fe8b7)"><g clip-path="url(#c6f845accc)"><g transform="matrix(1, 0, 0, 1, 205, 126)"><g clip-path="url(#eadebd363c)"><g clip-path="url(#41e21092ea)"><g clip-path="url(#de0ec0b51e)"><path fill="#ffffff" d="M 0.492188 0.609375 L 399.507812 0.609375 L 399.507812 399.625 L 0.492188 399.625 Z M 0.492188 0.609375 " fill-opacity="1" fill-rule="nonzero"/></g></g></g></g></g></g><g clip-path="url(#fa2bb8592c)"><path fill="#1f48ff" d="M 330.230469 265.210938 C 352.648438 265.210938 370.863281 247.027344 370.863281 224.578125 C 370.863281 202.15625 352.679688 183.972656 330.230469 183.972656 C 307.777344 183.972656 289.59375 202.15625 289.59375 224.605469 C 289.59375 247.027344 307.808594 265.210938 330.230469 265.210938 Z M 324.542969 202.867188 C 324.542969 199.726562 327.089844 197.179688 330.230469 197.179688 C 333.367188 197.179688 335.914062 199.726562 335.914062 202.867188 L 335.914062 218.890625 L 348.296875 218.890625 C 351.433594 218.890625 353.980469 221.4375 353.980469 224.578125 C 353.980469 227.714844 351.433594 230.265625 348.296875 230.265625 L 330.230469 230.265625 C 327.089844 230.265625 324.542969 227.714844 324.542969 224.578125 Z M 324.542969 202.867188 " fill-opacity="1" fill-rule="nonzero"/></g><g clip-path="url(#b5720231b3)"><path fill="#1f48ff" d="M 451.78125 243.148438 C 468.128906 243.148438 481.367188 229.910156 481.367188 213.558594 C 481.367188 197.210938 468.128906 183.972656 451.78125 183.972656 C 435.429688 183.972656 422.191406 197.210938 422.191406 213.558594 C 422.191406 229.878906 435.460938 243.148438 451.78125 243.148438 Z M 451.78125 243.148438 " fill-opacity="1" fill-rule="nonzero"/></g><g clip-path="url(#5ab3a88dd1)"><path fill="#1f48ff" d="M 385.941406 327.796875 C 381.941406 324.328125 375.929688 324.804688 372.492188 328.800781 L 349.777344 355.191406 C 347.347656 358.003906 343.851562 359.605469 340.121094 359.605469 L 320.335938 359.605469 C 316.632812 359.605469 313.109375 358.003906 310.679688 355.191406 L 287.964844 328.800781 C 284.527344 324.804688 278.515625 324.359375 274.519531 327.796875 C 270.519531 331.230469 270.074219 337.242188 273.511719 341.242188 L 304.285156 376.992188 L 304.285156 455.804688 C 304.285156 461.074219 308.546875 465.339844 313.820312 465.339844 C 319.09375 465.339844 323.359375 461.074219 323.359375 455.804688 L 323.359375 417.683594 C 323.359375 416.261719 324.511719 415.109375 325.90625 415.109375 L 334.554688 415.109375 C 335.976562 415.109375 337.101562 416.261719 337.101562 417.683594 L 337.101562 455.804688 C 337.101562 461.074219 341.363281 465.339844 346.636719 465.339844 C 351.910156 465.339844 356.175781 461.074219 356.175781 455.804688 L 356.175781 376.960938 L 386.945312 341.242188 C 390.382812 337.242188 389.9375 331.230469 385.941406 327.796875 Z M 385.941406 327.796875 " fill-opacity="1" fill-rule="nonzero"/></g><path fill="#1f48ff" d="M 306.980469 327.527344 C 306.980469 340.351562 317.375 350.777344 330.230469 350.777344 C 343.054688 350.777344 353.480469 340.382812 353.480469 327.527344 C 353.480469 314.703125 343.082031 304.308594 330.230469 304.308594 C 317.40625 304.308594 306.980469 314.703125 306.980469 327.527344 Z M 306.980469 327.527344 " fill-opacity="1" fill-rule="nonzero"/><g clip-path="url(#8e5971bd89)"><path fill="#1f48ff" d="M 452.875 429.945312 L 429.566406 429.945312 C 426.25 429.945312 423.523438 432.640625 423.523438 435.988281 L 423.523438 459.296875 C 423.523438 462.644531 426.21875 465.339844 429.566406 465.339844 L 452.875 465.339844 C 456.191406 465.339844 458.917969 462.644531 458.917969 459.296875 L 458.917969 435.988281 C 458.917969 432.640625 456.222656 429.945312 452.875 429.945312 Z M 452.875 429.945312 " fill-opacity="1" fill-rule="nonzero"/></g><g clip-path="url(#cd0ab2b383)"><path fill="#1f48ff" d="M 409.664062 429.945312 L 386.355469 429.945312 C 383.039062 429.945312 380.3125 432.640625 380.3125 435.988281 L 380.3125 459.296875 C 380.3125 462.644531 383.007812 465.339844 386.355469 465.339844 L 409.664062 465.339844 C 413.011719 465.339844 415.707031 462.644531 415.707031 459.296875 L 415.707031 435.988281 C 415.707031 432.640625 413.011719 429.945312 409.664062 429.945312 Z M 409.664062 429.945312 " fill-opacity="1" fill-rule="nonzero"/></g><path fill="#1f48ff" d="M 407.945312 422.128906 L 431.253906 422.128906 C 434.601562 422.128906 437.296875 419.433594 437.296875 416.085938 L 437.296875 392.777344 C 437.296875 389.429688 434.601562 386.734375 431.253906 386.734375 L 407.945312 386.734375 C 404.597656 386.734375 401.902344 389.429688 401.902344 392.777344 L 401.902344 416.085938 C 401.933594 419.433594 404.628906 422.128906 407.945312 422.128906 Z M 407.945312 422.128906 " fill-opacity="1" fill-rule="nonzero"/><g clip-path="url(#dfc24d7726)"><path fill="#1f48ff" d="M 523.839844 301.050781 L 507.90625 262.933594 C 502.101562 249.042969 485.367188 240.570312 471.179688 245.605469 C 463.300781 248.390625 457.761719 254.015625 454.179688 260.890625 C 450.449219 268.117188 437.238281 293.585938 437.238281 293.585938 L 416.476562 308.277344 C 410.996094 312.15625 408.597656 319.53125 411.589844 325.542969 C 414.015625 330.460938 418.816406 333.097656 423.671875 333.097656 C 426.367188 333.097656 429.09375 332.296875 431.460938 330.609375 L 455.484375 313.609375 C 457.230469 312.363281 458.652344 310.707031 459.660156 308.808594 L 464.960938 298.53125 L 473.964844 319.207031 C 475.742188 323.265625 476.125 327.765625 475.058594 332.058594 C 471.714844 345.449219 467.0625 362.863281 462.5 375.066406 C 460.84375 379.539062 463.835938 384.367188 468.601562 384.71875 C 474.378906 385.136719 480.597656 385.402344 486.90625 385.578125 L 489.363281 452.546875 C 489.632812 459.417969 495.171875 465.074219 502.160156 465.339844 C 509.503906 465.605469 515.664062 459.890625 515.933594 452.546875 L 518.390625 385.699219 C 524.046875 385.609375 529.054688 385.492188 532.785156 385.371094 C 536.84375 385.253906 539.921875 381.757812 539.507812 377.703125 C 537.847656 361.707031 533.230469 323.5 523.839844 301.050781 Z M 523.839844 301.050781 " fill-opacity="1" fill-rule="nonzero"/></g></svg>