<svg xmlns="http://www.w3.org/2000/svg" xmlns:xlink="http://www.w3.org/1999/xlink" width="1080" zoomAndPan="magnify" viewBox="0 0 810 809.999993" height="1080" preserveAspectRatio="xMidYMid meet" version="1.0"><defs><clipPath id="31950d09c2"><path d="M 153.480469 81 L 656.503906 81 L 656.503906 729 L 153.480469 729 Z M 153.480469 81 " clip-rule="nonzero"/></clipPath><clipPath id="f8a3bb4ac7"><path d="M 153.480469 316.082031 C 153.480469 181.875 266.085938 81 404.992188 81 C 543.898438 81 656.503906 181.875 656.503906 316.082031 C 656.503906 489.164062 404.992188 729 404.992188 729 C 404.992188 729 153.480469 489.164062 153.480469 316.082031 Z M 153.480469 316.082031 " clip-rule="nonzero"/></clipPath><clipPath id="456af749db"><path d="M 0.480469 0 L 503.503906 0 L 503.503906 648 L 0.480469 648 Z M 0.480469 0 " clip-rule="nonzero"/></clipPath><clipPath id="7d974b4c1a"><path d="M 0.480469 235.082031 C 0.480469 100.875 113.085938 0 251.992188 0 C 390.898438 0 503.503906 100.875 503.503906 235.082031 C 503.503906 408.164062 251.992188 648 251.992188 648 C 251.992188 648 0.480469 408.164062 0.480469 235.082031 Z M 0.480469 235.082031 " clip-rule="nonzero"/></clipPath><clipPath id="a4bac9c73b"><rect x="0" width="504" y="0" height="648"/></clipPath><clipPath id="8411fced60"><path d="M 205.492188 126.609375 L 604.507812 126.609375 L 604.507812 525.625 L 205.492188 525.625 Z M 205.492188 126.609375 " clip-rule="nonzero"/></clipPath><clipPath id="e8419c524d"><path d="M 405 126.609375 C 294.816406 126.609375 205.492188 215.933594 205.492188 326.117188 C 205.492188 436.300781 294.816406 525.625 405 525.625 C 515.183594 525.625 604.507812 436.300781 604.507812 326.117188 C 604.507812 215.933594 515.183594 126.609375 405 126.609375 Z M 405 126.609375 " clip-rule="nonzero"/></clipPath><clipPath id="7be55b83b2"><path d="M 0.492188 0.609375 L 399.507812 0.609375 L 399.507812 399.625 L 0.492188 399.625 Z M 0.492188 0.609375 " clip-rule="nonzero"/></clipPath><clipPath id="026b4ac083"><path d="M 200 0.609375 C 89.816406 0.609375 0.492188 89.933594 0.492188 200.117188 C 0.492188 310.300781 89.816406 399.625 200 399.625 C 310.183594 399.625 399.507812 310.300781 399.507812 200.117188 C 399.507812 89.933594 310.183594 0.609375 200 0.609375 Z M 200 0.609375 " clip-rule="nonzero"/></clipPath><clipPath id="74ebd195c4"><rect x="0" width="400" y="0" height="400"/></clipPath><clipPath id="362ba6bcb9"><path d="M 295 226.882812 L 536 226.882812 L 536 445.882812 L 295 445.882812 Z M 295 226.882812 " clip-rule="nonzero"/></clipPath><clipPath id="fccdd43bc4"><path d="M 372 226.882812 L 421 226.882812 L 421 445.882812 L 372 445.882812 Z M 372 226.882812 " clip-rule="nonzero"/></clipPath><clipPath id="deadfe2365"><path d="M 409 306 L 459 306 L 459 445.882812 L 409 445.882812 Z M 409 306 " clip-rule="nonzero"/></clipPath><clipPath id="4cfd764d09"><path d="M 231.601562 232 L 366 232 L 366 371 L 231.601562 371 Z M 231.601562 232 " clip-rule="nonzero"/></clipPath><clipPath id="c42b50c142"><path d="M 488 231 L 578.101562 231 L 578.101562 303 L 488 303 Z M 488 231 " clip-rule="nonzero"/></clipPath></defs><g clip-path="url(#31950d09c2)"><g clip-path="url(#f8a3bb4ac7)"><g transform="matrix(1, 0, 0, 1, 153, 81)"><g clip-path="url(#a4bac9c73b)"><g clip-path="url(#456af749db)"><g clip-path="url(#7d974b4c1a)"><path fill="#9eff1f" d="M 503.503906 648 L 0.480469 648 L 0.480469 -0.429688 L 503.503906 -0.429688 Z M 503.503906 648 " fill-opacity="1" fill-rule="nonzero"/></g></g></g></g></g></g><g clip-path="url(#8411fced60)"><g clip-path="url(#e8419c524d)"><g transform="matrix(1, 0, 0, 1, 205, 126)"><g clip-path="url(#74ebd195c4)"><g clip-path="url(#7be55b83b2)"><g clip-path="url(#026b4ac083)"><path fill="#ffffff" d="M 0.492188 0.609375 L 399.507812 0.609375 L 399.507812 399.625 L 0.492188 399.625 Z M 0.492188 0.609375 " fill-opacity="1" fill-rule="nonzero"/></g></g></g></g></g></g><g clip-path="url(#362ba6bcb9)"><path fill="#9eff1f" d="M 529.898438 446.222656 L 300.679688 446.222656 C 297.691406 446.222656 295.265625 443.800781 295.265625 440.8125 L 295.265625 405.875 C 295.265625 404.8125 295.578125 403.777344 296.164062 402.890625 L 410.773438 229.308594 C 411.773438 227.792969 413.472656 226.878906 415.289062 226.878906 C 417.109375 226.878906 418.804688 227.792969 419.808594 229.308594 L 534.414062 402.890625 C 535 403.777344 535.3125 404.8125 535.3125 405.875 L 535.3125 440.8125 C 535.3125 443.800781 532.886719 446.222656 529.898438 446.222656 Z M 306.09375 435.398438 L 524.484375 435.398438 L 524.484375 407.5 L 415.289062 242.117188 L 306.09375 407.5 Z M 306.09375 435.398438 " fill-opacity="1" fill-rule="nonzero"/></g><g clip-path="url(#fccdd43bc4)"><path fill="#9eff1f" d="M 377.457031 446.226562 C 376.953125 446.226562 376.4375 446.152344 375.925781 446.003906 C 373.058594 445.15625 371.417969 442.148438 372.261719 439.28125 L 409.875 311.625 L 409.875 232.292969 C 409.875 229.300781 412.300781 226.878906 415.289062 226.878906 C 418.28125 226.878906 420.703125 229.300781 420.703125 232.292969 L 420.703125 312.40625 C 420.703125 312.921875 420.628906 313.4375 420.484375 313.933594 L 382.648438 442.339844 C 381.953125 444.695312 379.796875 446.226562 377.457031 446.226562 Z M 377.457031 446.226562 " fill-opacity="1" fill-rule="nonzero"/></g><g clip-path="url(#deadfe2365)"><path fill="#9eff1f" d="M 453.117188 446.226562 C 450.78125 446.226562 448.625 444.699219 447.929688 442.339844 L 410.097656 313.9375 C 409.25 311.070312 410.890625 308.058594 413.757812 307.214844 C 416.625 306.371094 419.636719 308.007812 420.480469 310.878906 L 458.3125 439.28125 C 459.160156 442.148438 457.519531 445.160156 454.652344 446.003906 C 454.140625 446.152344 453.625 446.226562 453.117188 446.226562 Z M 453.117188 446.226562 " fill-opacity="1" fill-rule="nonzero"/></g><g clip-path="url(#4cfd764d09)"><path fill="#9eff1f" d="M 327.472656 370.710938 L 237.179688 370.710938 C 234.1875 370.710938 231.765625 368.289062 231.765625 365.300781 L 231.765625 343.894531 C 231.765625 342.832031 232.078125 341.792969 232.660156 340.910156 L 302.886719 234.542969 C 303.785156 233.1875 305.242188 232.304688 306.859375 232.140625 C 308.480469 231.976562 310.085938 232.546875 311.234375 233.699219 C 311.515625 233.980469 311.761719 234.289062 311.972656 234.617188 L 364.136719 313.621094 C 365.785156 316.117188 365.097656 319.476562 362.605469 321.125 C 360.109375 322.769531 356.75 322.082031 355.101562 319.589844 L 307.40625 247.351562 L 242.59375 345.519531 L 242.59375 359.886719 L 327.472656 359.886719 C 330.460938 359.886719 332.886719 362.308594 332.886719 365.300781 C 332.886719 368.289062 330.460938 370.710938 327.472656 370.710938 Z M 327.472656 370.710938 " fill-opacity="1" fill-rule="nonzero"/></g><path fill="#9eff1f" d="M 284.226562 370.714844 C 283.71875 370.714844 283.207031 370.644531 282.695312 370.492188 C 279.828125 369.648438 278.1875 366.636719 279.03125 363.769531 L 301.996094 285.835938 L 301.996094 237.527344 C 301.996094 234.535156 304.417969 232.113281 307.410156 232.113281 C 310.398438 232.113281 312.820312 234.535156 312.820312 237.527344 L 312.820312 286.617188 C 312.820312 287.136719 312.746094 287.652344 312.601562 288.148438 L 289.417969 366.828125 C 288.722656 369.1875 286.566406 370.714844 284.226562 370.714844 Z M 284.226562 370.714844 " fill-opacity="1" fill-rule="nonzero"/><path fill="#9eff1f" d="M 329.625 367.449219 C 327.289062 367.449219 325.128906 365.921875 324.4375 363.5625 L 302.214844 288.148438 C 301.371094 285.28125 303.011719 282.269531 305.878906 281.425781 C 308.746094 280.578125 311.757812 282.21875 312.601562 285.089844 L 334.820312 360.503906 C 335.667969 363.371094 334.027344 366.378906 331.160156 367.226562 C 330.648438 367.375 330.132812 367.449219 329.625 367.449219 Z M 329.625 367.449219 " fill-opacity="1" fill-rule="nonzero"/><path fill="#9eff1f" d="M 493.648438 356.386719 C 490.65625 356.386719 488.234375 353.960938 488.234375 350.972656 L 488.234375 237.40625 C 488.234375 234.417969 490.65625 231.996094 493.648438 231.996094 C 496.636719 231.996094 499.0625 234.417969 499.0625 237.40625 L 499.0625 350.972656 C 499.0625 353.960938 496.636719 356.386719 493.648438 356.386719 Z M 493.648438 356.386719 " fill-opacity="1" fill-rule="nonzero"/><g clip-path="url(#c42b50c142)"><path fill="#9eff1f" d="M 572.820312 302.332031 C 564.480469 302.332031 560.035156 299.136719 556.464844 296.570312 C 553.457031 294.410156 551.285156 292.847656 546.433594 292.847656 C 541.578125 292.847656 539.40625 294.410156 536.394531 296.570312 C 532.828125 299.136719 528.382812 302.332031 520.042969 302.332031 C 511.699219 302.332031 507.253906 299.136719 503.683594 296.570312 C 500.675781 294.410156 498.503906 292.847656 493.648438 292.847656 C 490.660156 292.847656 488.234375 290.421875 488.234375 287.433594 C 488.234375 284.441406 490.660156 282.019531 493.648438 282.019531 C 501.992188 282.019531 506.433594 285.214844 510.003906 287.78125 C 513.011719 289.941406 515.1875 291.503906 520.042969 291.503906 C 524.894531 291.503906 527.070312 289.941406 530.078125 287.78125 C 533.648438 285.214844 538.089844 282.019531 546.433594 282.019531 C 554.773438 282.019531 559.214844 285.214844 562.785156 287.78125 C 564.386719 288.929688 565.75 289.910156 567.40625 290.578125 L 567.40625 251.800781 C 562.378906 250.796875 559.171875 248.492188 556.464844 246.546875 C 553.457031 244.382812 551.28125 242.820312 546.429688 242.820312 C 541.574219 242.820312 539.402344 244.382812 536.394531 246.546875 C 532.824219 249.113281 528.378906 252.308594 520.039062 252.308594 C 511.695312 252.308594 507.253906 249.113281 503.683594 246.546875 C 500.675781 244.382812 498.503906 242.820312 493.648438 242.820312 C 490.660156 242.820312 488.234375 240.398438 488.234375 237.40625 C 488.234375 234.417969 490.660156 231.992188 493.648438 231.992188 C 501.992188 231.992188 506.433594 235.1875 510.003906 237.753906 C 513.011719 239.917969 515.183594 241.480469 520.039062 241.480469 C 524.890625 241.480469 527.066406 239.917969 530.074219 237.753906 C 533.644531 235.1875 538.085938 231.992188 546.429688 231.992188 C 554.769531 231.992188 559.214844 235.1875 562.785156 237.753906 C 565.792969 239.917969 567.964844 241.480469 572.820312 241.480469 C 575.808594 241.480469 578.234375 243.902344 578.234375 246.894531 L 578.234375 296.917969 C 578.234375 299.910156 575.808594 302.332031 572.820312 302.332031 Z M 572.820312 302.332031 " fill-opacity="1" fill-rule="nonzero"/></g></svg>