<svg xmlns="http://www.w3.org/2000/svg" xmlns:xlink="http://www.w3.org/1999/xlink" width="1080" zoomAndPan="magnify" viewBox="0 0 810 809.999993" height="1080" preserveAspectRatio="xMidYMid meet" version="1.0"><defs><clipPath id="906dc5d2b0"><path d="M 153.480469 81 L 656.503906 81 L 656.503906 729 L 153.480469 729 Z M 153.480469 81 " clip-rule="nonzero"/></clipPath><clipPath id="6383438a86"><path d="M 153.480469 316.082031 C 153.480469 181.875 266.085938 81 404.992188 81 C 543.898438 81 656.503906 181.875 656.503906 316.082031 C 656.503906 489.164062 404.992188 729 404.992188 729 C 404.992188 729 153.480469 489.164062 153.480469 316.082031 Z M 153.480469 316.082031 " clip-rule="nonzero"/></clipPath><clipPath id="a679381d03"><path d="M 0.480469 0 L 503.503906 0 L 503.503906 648 L 0.480469 648 Z M 0.480469 0 " clip-rule="nonzero"/></clipPath><clipPath id="5afa8a7e43"><path d="M 0.480469 235.082031 C 0.480469 100.875 113.085938 0 251.992188 0 C 390.898438 0 503.503906 100.875 503.503906 235.082031 C 503.503906 408.164062 251.992188 648 251.992188 648 C 251.992188 648 0.480469 408.164062 0.480469 235.082031 Z M 0.480469 235.082031 " clip-rule="nonzero"/></clipPath><clipPath id="80d96d5479"><rect x="0" width="504" y="0" height="648"/></clipPath><clipPath id="b43745957b"><path d="M 205.492188 126.609375 L 604.507812 126.609375 L 604.507812 525.625 L 205.492188 525.625 Z M 205.492188 126.609375 " clip-rule="nonzero"/></clipPath><clipPath id="a944b4d2ff"><path d="M 405 126.609375 C 294.816406 126.609375 205.492188 215.933594 205.492188 326.117188 C 205.492188 436.300781 294.816406 525.625 405 525.625 C 515.183594 525.625 604.507812 436.300781 604.507812 326.117188 C 604.507812 215.933594 515.183594 126.609375 405 126.609375 Z M 405 126.609375 " clip-rule="nonzero"/></clipPath><clipPath id="cc15f266e9"><path d="M 0.492188 0.609375 L 399.507812 0.609375 L 399.507812 399.625 L 0.492188 399.625 Z M 0.492188 0.609375 " clip-rule="nonzero"/></clipPath><clipPath id="684c59e82c"><path d="M 200 0.609375 C 89.816406 0.609375 0.492188 89.933594 0.492188 200.117188 C 0.492188 310.300781 89.816406 399.625 200 399.625 C 310.183594 399.625 399.507812 310.300781 399.507812 200.117188 C 399.507812 89.933594 310.183594 0.609375 200 0.609375 Z M 200 0.609375 " clip-rule="nonzero"/></clipPath><clipPath id="9a3104aacc"><rect x="0" width="400" y="0" height="400"/></clipPath><clipPath id="ca65382957"><path d="M 268.160156 318 L 541.910156 318 L 541.910156 449.960938 L 268.160156 449.960938 Z M 268.160156 318 " clip-rule="nonzero"/></clipPath></defs><g clip-path="url(#906dc5d2b0)"><g clip-path="url(#6383438a86)"><g transform="matrix(1, 0, 0, 1, 153, 81)"><g clip-path="url(#80d96d5479)"><g clip-path="url(#a679381d03)"><g clip-path="url(#5afa8a7e43)"><path fill="#9eff1f" d="M 503.503906 648 L 0.480469 648 L 0.480469 -0.429688 L 503.503906 -0.429688 Z M 503.503906 648 " fill-opacity="1" fill-rule="nonzero"/></g></g></g></g></g></g><g clip-path="url(#b43745957b)"><g clip-path="url(#a944b4d2ff)"><g transform="matrix(1, 0, 0, 1, 205, 126)"><g clip-path="url(#9a3104aacc)"><g clip-path="url(#cc15f266e9)"><g clip-path="url(#684c59e82c)"><path fill="#ffffff" d="M 0.492188 0.609375 L 399.507812 0.609375 L 399.507812 399.625 L 0.492188 399.625 Z M 0.492188 0.609375 " fill-opacity="1" fill-rule="nonzero"/></g></g></g></g></g></g><g clip-path="url(#ca65382957)"><path fill="#9eff1f" d="M 538.597656 443.871094 L 467.359375 443.871094 L 467.359375 320.914062 C 466.460938 320.011719 465.613281 319.054688 464.816406 318.046875 C 463.601562 319.273438 462.308594 320.414062 460.953125 321.445312 L 460.953125 443.871094 L 410.542969 443.871094 L 410.542969 433.890625 L 425.789062 433.890625 C 427.558594 433.890625 428.988281 432.457031 428.988281 430.683594 L 428.988281 414.8125 C 428.988281 413.042969 427.558594 411.605469 425.789062 411.605469 L 410.542969 411.605469 L 410.542969 399.640625 L 425.789062 399.640625 C 427.558594 399.640625 428.988281 398.203125 428.988281 396.433594 L 428.988281 373.726562 C 428.988281 371.957031 427.558594 370.523438 425.789062 370.523438 L 322.300781 370.523438 L 322.300781 342.71875 C 321.324219 341.835938 320.402344 340.878906 319.554688 339.859375 C 318.410156 340.964844 317.1875 341.972656 315.894531 342.875 L 315.894531 370.523438 L 300.644531 370.523438 C 298.878906 370.523438 297.441406 371.957031 297.441406 373.726562 L 297.441406 396.433594 C 297.441406 398.203125 298.878906 399.640625 300.644531 399.640625 L 315.894531 399.640625 L 315.894531 411.605469 L 300.644531 411.605469 C 298.878906 411.605469 297.441406 413.042969 297.441406 414.8125 L 297.441406 430.683594 C 297.441406 432.457031 298.878906 433.890625 300.644531 433.890625 L 315.894531 433.890625 L 315.894531 443.871094 L 271.394531 443.871094 C 269.625 443.871094 268.1875 445.304688 268.1875 447.074219 C 268.1875 448.84375 269.625 450.28125 271.394531 450.28125 L 538.597656 450.28125 C 540.367188 450.28125 541.800781 448.84375 541.800781 447.074219 C 541.800781 445.304688 540.367188 443.871094 538.597656 443.871094 Z M 322.300781 399.640625 L 404.132812 399.640625 L 404.132812 411.605469 L 322.300781 411.605469 Z M 322.300781 433.890625 L 404.132812 433.890625 L 404.132812 443.871094 L 322.300781 443.871094 Z M 322.300781 433.890625 " fill-opacity="1" fill-rule="nonzero"/></g><path fill="#9eff1f" d="M 409.324219 302.648438 C 413.214844 313.113281 422.492188 320.675781 433.539062 322.390625 C 443.746094 323.960938 454.027344 320.3125 460.953125 312.804688 L 460.953125 224.738281 C 460.953125 222.96875 462.390625 221.535156 464.160156 221.535156 C 465.929688 221.535156 467.359375 222.96875 467.359375 224.738281 L 467.359375 257.199219 L 490.296875 234.261719 C 491.546875 233.011719 493.578125 233.011719 494.828125 234.261719 C 496.078125 235.511719 496.078125 237.542969 494.828125 238.792969 L 467.359375 266.261719 L 467.359375 297.535156 C 467.367188 297.605469 467.367188 297.667969 467.359375 297.738281 L 467.359375 310.574219 C 467.550781 310.761719 467.71875 310.96875 467.855469 311.199219 C 473.058594 319.8125 482.515625 324.980469 492.398438 324.988281 C 494.039062 324.988281 495.6875 324.84375 497.335938 324.550781 C 508.894531 322.496094 518.167969 313.375 520.410156 301.851562 C 522.65625 290.335938 517.488281 278.402344 507.554688 272.15625 C 506.71875 271.636719 506.175781 270.761719 506.074219 269.789062 C 505.964844 268.816406 506.308594 267.847656 507.007812 267.160156 C 514.703125 259.585938 517.675781 248.421875 514.761719 238.027344 C 511.832031 227.625 503.484375 219.644531 492.96875 217.195312 C 491.441406 216.839844 490.394531 215.421875 490.5 213.851562 C 491.339844 201.945312 484.90625 190.953125 474.105469 185.84375 C 463.316406 180.734375 450.734375 182.726562 442.0625 190.925781 C 433.371094 199.128906 430.664062 211.582031 435.144531 222.644531 C 435.542969 223.605469 435.441406 224.695312 434.878906 225.570312 C 434.324219 226.449219 433.371094 227 432.335938 227.046875 C 422.859375 227.507812 414.628906 233.199219 410.867188 241.902344 C 407.09375 250.609375 408.570312 260.503906 414.714844 267.730469 C 415.730469 268.929688 415.730469 270.679688 414.714844 271.878906 C 407.484375 280.394531 405.421875 292.191406 409.324219 302.648438 Z M 409.324219 302.648438 " fill-opacity="1" fill-rule="nonzero"/><path fill="#9eff1f" d="M 276.089844 326.417969 C 279.121094 334.515625 286.304688 340.367188 294.832031 341.6875 C 302.65625 342.894531 310.539062 340.144531 315.894531 334.445312 L 315.894531 320.015625 L 295.257812 299.398438 C 294.007812 298.148438 294.007812 296.125 295.257812 294.867188 C 296.511719 293.617188 298.535156 293.617188 299.792969 294.867188 L 315.894531 310.964844 L 315.894531 271.988281 C 315.894531 270.222656 317.324219 268.785156 319.09375 268.785156 C 320.863281 268.785156 322.300781 270.222656 322.300781 271.988281 L 322.300781 290.003906 L 335.023438 277.28125 C 336.273438 276.03125 338.304688 276.03125 339.554688 277.28125 C 340.808594 278.53125 340.808594 280.5625 339.554688 281.8125 L 322.300781 299.0625 L 322.300781 332.71875 C 322.40625 332.835938 322.5 332.964844 322.578125 333.105469 C 327.277344 340.859375 336.425781 345 345.34375 343.410156 C 354.273438 341.835938 361.433594 334.800781 363.167969 325.894531 C 364.902344 316.992188 360.917969 307.773438 353.25 302.953125 C 352.417969 302.429688 351.875 301.558594 351.769531 300.585938 C 351.660156 299.613281 352.007812 298.644531 352.703125 297.957031 C 358.652344 292.101562 360.945312 283.46875 358.683594 275.433594 C 356.421875 267.390625 349.972656 261.222656 341.847656 259.339844 C 340.320312 258.984375 339.269531 257.566406 339.378906 255.996094 C 340.023438 246.789062 335.050781 238.296875 326.726562 234.363281 C 318.511719 230.472656 308.5625 232.054688 301.964844 238.289062 C 295.355469 244.523438 293.210938 254.367188 296.628906 262.789062 C 297.023438 263.75 296.921875 264.839844 296.359375 265.714844 C 295.800781 266.59375 294.851562 267.136719 293.816406 267.191406 C 286.53125 267.542969 280.210938 271.914062 277.320312 278.605469 C 274.460938 285.199219 275.621094 292.988281 280.269531 298.449219 C 281.289062 299.644531 281.289062 301.402344 280.273438 302.601562 C 274.679688 309.195312 273.078125 318.324219 276.089844 326.417969 Z M 276.089844 326.417969 " fill-opacity="1" fill-rule="nonzero"/></svg>