<svg xmlns="http://www.w3.org/2000/svg" xmlns:xlink="http://www.w3.org/1999/xlink" width="1080" zoomAndPan="magnify" viewBox="0 0 810 809.999993" height="1080" preserveAspectRatio="xMidYMid meet" version="1.0"><defs><clipPath id="f28a709db4"><path d="M 153.480469 81 L 656.503906 81 L 656.503906 729 L 153.480469 729 Z M 153.480469 81 " clip-rule="nonzero"/></clipPath><clipPath id="cdd4ddf853"><path d="M 153.480469 316.082031 C 153.480469 181.875 266.085938 81 404.992188 81 C 543.898438 81 656.503906 181.875 656.503906 316.082031 C 656.503906 489.164062 404.992188 729 404.992188 729 C 404.992188 729 153.480469 489.164062 153.480469 316.082031 Z M 153.480469 316.082031 " clip-rule="nonzero"/></clipPath><clipPath id="809e7269bc"><path d="M 0.480469 0 L 503.503906 0 L 503.503906 648 L 0.480469 648 Z M 0.480469 0 " clip-rule="nonzero"/></clipPath><clipPath id="7ae3c6cb1a"><path d="M 0.480469 235.082031 C 0.480469 100.875 113.085938 0 251.992188 0 C 390.898438 0 503.503906 100.875 503.503906 235.082031 C 503.503906 408.164062 251.992188 648 251.992188 648 C 251.992188 648 0.480469 408.164062 0.480469 235.082031 Z M 0.480469 235.082031 " clip-rule="nonzero"/></clipPath><clipPath id="79d6bab4b1"><rect x="0" width="504" y="0" height="648"/></clipPath><clipPath id="d1b03564b4"><path d="M 205.492188 126.609375 L 604.507812 126.609375 L 604.507812 525.625 L 205.492188 525.625 Z M 205.492188 126.609375 " clip-rule="nonzero"/></clipPath><clipPath id="5c0048a85f"><path d="M 405 126.609375 C 294.816406 126.609375 205.492188 215.933594 205.492188 326.117188 C 205.492188 436.300781 294.816406 525.625 405 525.625 C 515.183594 525.625 604.507812 436.300781 604.507812 326.117188 C 604.507812 215.933594 515.183594 126.609375 405 126.609375 Z M 405 126.609375 " clip-rule="nonzero"/></clipPath><clipPath id="1eaafbc9a0"><path d="M 0.492188 0.609375 L 399.507812 0.609375 L 399.507812 399.625 L 0.492188 399.625 Z M 0.492188 0.609375 " clip-rule="nonzero"/></clipPath><clipPath id="9cf6805e73"><path d="M 200 0.609375 C 89.816406 0.609375 0.492188 89.933594 0.492188 200.117188 C 0.492188 310.300781 89.816406 399.625 200 399.625 C 310.183594 399.625 399.507812 310.300781 399.507812 200.117188 C 399.507812 89.933594 310.183594 0.609375 200 0.609375 Z M 200 0.609375 " clip-rule="nonzero"/></clipPath><clipPath id="b37d2efb09"><rect x="0" width="400" y="0" height="400"/></clipPath><clipPath id="ee18a1cd85"><path d="M 260.136719 265 L 537 265 L 537 463.917969 L 260.136719 463.917969 Z M 260.136719 265 " clip-rule="nonzero"/></clipPath></defs><g clip-path="url(#f28a709db4)"><g clip-path="url(#cdd4ddf853)"><g transform="matrix(1, 0, 0, 1, 153, 81)"><g clip-path="url(#79d6bab4b1)"><g clip-path="url(#809e7269bc)"><g clip-path="url(#7ae3c6cb1a)"><path fill="#9eff1f" d="M 503.503906 648 L 0.480469 648 L 0.480469 -0.429688 L 503.503906 -0.429688 Z M 503.503906 648 " fill-opacity="1" fill-rule="nonzero"/></g></g></g></g></g></g><g clip-path="url(#d1b03564b4)"><g clip-path="url(#5c0048a85f)"><g transform="matrix(1, 0, 0, 1, 205, 126)"><g clip-path="url(#b37d2efb09)"><g clip-path="url(#1eaafbc9a0)"><g clip-path="url(#9cf6805e73)"><path fill="#ffffff" d="M 0.492188 0.609375 L 399.507812 0.609375 L 399.507812 399.625 L 0.492188 399.625 Z M 0.492188 0.609375 " fill-opacity="1" fill-rule="nonzero"/></g></g></g></g></g></g><path fill="#9eff1f" d="M 488.050781 355.914062 C 499.53125 355.914062 508.519531 346.925781 508.519531 335.445312 C 508.519531 323.960938 499.53125 314.976562 488.050781 314.976562 C 476.566406 314.976562 467.578125 323.960938 467.578125 335.445312 C 467.578125 346.925781 476.566406 355.914062 488.050781 355.914062 Z M 488.050781 355.914062 " fill-opacity="1" fill-rule="nonzero"/><path fill="#9eff1f" d="M 488.050781 306.488281 C 491.042969 306.488281 493.042969 304.492188 493.042969 301.496094 L 493.042969 291.511719 C 493.042969 288.515625 491.042969 286.515625 488.050781 286.515625 C 485.054688 286.515625 483.054688 288.515625 483.054688 291.511719 L 483.054688 301.496094 C 483.054688 304.492188 485.054688 306.488281 488.050781 306.488281 Z M 488.050781 306.488281 " fill-opacity="1" fill-rule="nonzero"/><path fill="#9eff1f" d="M 460.589844 314.976562 C 461.589844 315.972656 463.085938 316.472656 464.085938 316.472656 C 465.082031 316.472656 466.582031 315.972656 467.578125 314.976562 C 469.578125 312.976562 469.578125 309.980469 467.578125 307.984375 L 460.589844 300.996094 C 458.59375 299 455.597656 299 453.601562 300.996094 C 451.601562 302.992188 451.601562 305.988281 453.601562 307.984375 Z M 460.589844 314.976562 " fill-opacity="1" fill-rule="nonzero"/><path fill="#9eff1f" d="M 454.101562 330.453125 L 444.113281 330.453125 C 441.117188 330.453125 439.121094 332.449219 439.121094 335.445312 C 439.121094 338.441406 441.117188 340.4375 444.113281 340.4375 L 454.101562 340.4375 C 457.09375 340.4375 459.09375 338.441406 459.09375 335.445312 C 459.09375 332.449219 456.597656 330.453125 454.101562 330.453125 Z M 454.101562 330.453125 " fill-opacity="1" fill-rule="nonzero"/><path fill="#9eff1f" d="M 453.101562 370.390625 C 454.101562 371.390625 455.597656 371.890625 456.597656 371.890625 C 457.59375 371.890625 459.09375 371.390625 460.089844 370.390625 L 467.082031 363.402344 C 469.078125 361.40625 469.078125 358.410156 467.082031 356.414062 C 465.082031 354.417969 462.085938 354.417969 460.089844 356.414062 L 453.101562 363.402344 C 451.105469 365.398438 451.105469 368.394531 453.101562 370.390625 Z M 453.101562 370.390625 " fill-opacity="1" fill-rule="nonzero"/><path fill="#9eff1f" d="M 493.042969 379.878906 L 493.042969 369.894531 C 493.042969 366.898438 491.042969 364.902344 488.050781 364.902344 C 485.054688 364.902344 483.054688 366.898438 483.054688 369.894531 L 483.054688 379.878906 C 483.054688 382.875 485.054688 384.871094 488.050781 384.871094 C 491.042969 384.871094 493.042969 382.375 493.042969 379.878906 Z M 493.042969 379.878906 " fill-opacity="1" fill-rule="nonzero"/><path fill="#9eff1f" d="M 519.003906 371.890625 C 520.5 371.890625 521.5 371.390625 522.496094 370.390625 C 524.496094 368.394531 524.496094 365.398438 522.496094 363.402344 L 515.507812 356.414062 C 513.511719 354.417969 510.515625 354.417969 508.519531 356.414062 C 506.523438 358.410156 506.523438 361.40625 508.519531 363.402344 L 515.507812 370.390625 C 516.507812 371.390625 518.003906 371.890625 519.003906 371.890625 Z M 519.003906 371.890625 " fill-opacity="1" fill-rule="nonzero"/><path fill="#9eff1f" d="M 517.007812 335.445312 C 517.007812 338.441406 519.003906 340.4375 522 340.4375 L 531.984375 340.4375 C 534.980469 340.4375 536.976562 338.441406 536.976562 335.445312 C 536.976562 332.449219 534.980469 330.453125 531.984375 330.453125 L 522 330.453125 C 519.003906 330.453125 517.007812 332.949219 517.007812 335.445312 Z M 517.007812 335.445312 " fill-opacity="1" fill-rule="nonzero"/><path fill="#9eff1f" d="M 512.011719 316.472656 C 513.511719 316.472656 514.507812 315.972656 515.507812 314.976562 L 522.496094 307.984375 C 524.496094 305.988281 524.496094 302.992188 522.496094 300.996094 C 520.5 299 517.503906 299 515.507812 300.996094 L 508.519531 307.984375 C 506.523438 309.980469 506.523438 312.976562 508.519531 314.976562 C 509.515625 315.972656 510.515625 316.472656 512.011719 316.472656 Z M 512.011719 316.472656 " fill-opacity="1" fill-rule="nonzero"/><path fill="#9eff1f" d="M 339.269531 248.074219 C 341.269531 248.074219 342.765625 248.574219 344.761719 249.074219 C 339.769531 242.582031 329.285156 234.59375 304.820312 234.59375 C 274.367188 234.59375 264.882812 246.578125 262.386719 254.066406 L 314.808594 254.066406 C 323.292969 249.074219 331.28125 247.074219 339.269531 248.074219 Z M 339.269531 248.074219 " fill-opacity="1" fill-rule="nonzero"/><path fill="#9eff1f" d="M 353.75 244.578125 C 354.25 244.082031 354.25 243.582031 354.746094 243.082031 C 355.246094 235.09375 351.753906 223.113281 336.273438 207.632812 C 314.308594 185.667969 299.332031 187.664062 292.339844 191.160156 L 329.285156 227.605469 C 342.265625 231.101562 349.753906 238.089844 353.75 244.578125 Z M 353.75 244.578125 " fill-opacity="1" fill-rule="nonzero"/><path fill="#9eff1f" d="M 301.828125 276.03125 C 280.359375 297.5 282.355469 312.480469 285.351562 319.96875 L 339.269531 266.046875 L 345.261719 260.058594 C 342.765625 259.058594 339.769531 258.058594 335.777344 258.058594 C 328.285156 257.558594 316.804688 261.554688 301.828125 276.03125 Z M 301.828125 276.03125 " fill-opacity="1" fill-rule="nonzero"/><path fill="#9eff1f" d="M 405.171875 276.03125 C 383.207031 254.066406 368.226562 256.5625 361.238281 259.558594 L 421.148438 319.96875 C 425.144531 312.976562 426.640625 298 405.171875 276.03125 Z M 405.171875 276.03125 " fill-opacity="1" fill-rule="nonzero"/><path fill="#9eff1f" d="M 392.691406 254.066406 L 445.113281 254.066406 C 442.617188 246.578125 433.132812 234.59375 402.675781 234.59375 C 380.710938 234.59375 370.222656 240.585938 364.734375 246.578125 C 364.734375 247.074219 364.734375 248.074219 364.234375 248.574219 C 371.222656 247.074219 380.707031 247.574219 392.691406 254.066406 Z M 392.691406 254.066406 " fill-opacity="1" fill-rule="nonzero"/><g clip-path="url(#ee18a1cd85)"><path fill="#9eff1f" d="M 531.984375 453.769531 L 418.152344 453.769531 C 409.167969 440.789062 391.691406 420.816406 362.734375 410.832031 C 355.246094 408.335938 347.257812 406.339844 338.769531 404.34375 C 327.289062 420.316406 316.804688 429.804688 316.304688 430.304688 C 315.304688 431.300781 314.308594 431.300781 312.808594 431.300781 C 311.3125 431.300781 309.816406 430.800781 308.816406 429.804688 C 306.820312 427.808594 307.316406 424.8125 309.316406 422.8125 C 309.816406 422.316406 347.257812 389.363281 356.246094 337.441406 C 359.242188 321.964844 360.738281 299.496094 361.238281 273.535156 L 353.25 265.546875 L 347.757812 271.539062 C 346.757812 294.007812 345.261719 312.976562 342.265625 328.453125 C 332.78125 383.871094 293.339844 418.320312 291.839844 419.820312 C 290.84375 420.816406 289.84375 420.816406 288.347656 420.816406 C 286.847656 420.816406 285.351562 420.316406 284.351562 419.320312 C 282.355469 417.324219 282.855469 414.328125 284.851562 412.328125 C 284.851562 412.328125 289.84375 407.835938 296.335938 400.347656 C 284.851562 399.847656 275.367188 400.347656 267.878906 400.347656 C 263.382812 400.347656 260.386719 403.84375 260.386719 408.335938 L 260.386719 458.761719 C 260.386719 461.757812 262.386719 463.753906 265.378906 463.753906 L 531.484375 463.753906 C 533.980469 463.753906 536.476562 461.257812 536.476562 458.761719 C 536.476562 456.265625 534.980469 453.769531 531.984375 453.769531 Z M 531.984375 453.769531 " fill-opacity="1" fill-rule="nonzero"/></g><path fill="#9eff1f" d="M 533.980469 411.332031 L 516.007812 404.34375 C 503.527344 399.347656 489.546875 399.347656 476.566406 404.34375 C 466.082031 408.335938 454.597656 408.335938 444.613281 404.34375 C 432.132812 399.347656 418.152344 399.347656 405.171875 404.34375 C 396.1875 407.835938 386.199219 408.335938 376.714844 405.339844 C 383.703125 408.835938 390.195312 412.328125 396.1875 416.824219 C 400.679688 416.324219 404.671875 415.324219 408.667969 413.828125 C 419.152344 409.832031 430.632812 409.832031 440.621094 413.828125 C 453.101562 418.820312 467.082031 418.820312 480.0625 413.828125 C 490.546875 409.832031 502.027344 409.832031 512.011719 413.828125 L 529.988281 420.816406 C 530.484375 420.816406 530.984375 421.316406 531.984375 421.316406 C 533.980469 421.316406 535.976562 419.820312 536.476562 418.320312 C 537.976562 415.324219 536.476562 412.328125 533.980469 411.332031 Z M 533.980469 411.332031 " fill-opacity="1" fill-rule="nonzero"/><path fill="#9eff1f" d="M 533.980469 436.292969 L 516.007812 429.304688 C 503.527344 424.3125 489.546875 424.3125 476.566406 429.304688 C 466.082031 433.296875 454.597656 433.296875 444.613281 429.304688 C 433.132812 424.8125 421.148438 424.3125 409.664062 427.808594 C 412.660156 430.800781 415.15625 433.296875 417.652344 436.292969 C 425.640625 434.796875 433.628906 435.796875 441.117188 438.789062 C 453.601562 443.78125 467.578125 443.78125 480.558594 438.789062 C 491.042969 434.796875 502.527344 434.796875 512.511719 438.789062 L 524.996094 443.78125 L 530.484375 445.78125 C 530.984375 445.78125 531.484375 446.28125 532.484375 446.28125 C 533.980469 446.28125 535.480469 445.78125 536.476562 444.28125 C 536.976562 443.78125 536.976562 443.285156 537.476562 442.785156 C 537.976562 440.289062 536.476562 437.292969 533.980469 436.292969 Z M 533.980469 436.292969 " fill-opacity="1" fill-rule="nonzero"/></svg>