<svg xmlns="http://www.w3.org/2000/svg" xmlns:xlink="http://www.w3.org/1999/xlink" width="1080" zoomAndPan="magnify" viewBox="0 0 810 809.999993" height="1080" preserveAspectRatio="xMidYMid meet" version="1.0"><defs><clipPath id="a51bbb71f3"><path d="M 153.480469 81 L 656.503906 81 L 656.503906 729 L 153.480469 729 Z M 153.480469 81 " clip-rule="nonzero"/></clipPath><clipPath id="ddb08ab003"><path d="M 153.480469 316.082031 C 153.480469 181.875 266.085938 81 404.992188 81 C 543.898438 81 656.503906 181.875 656.503906 316.082031 C 656.503906 489.164062 404.992188 729 404.992188 729 C 404.992188 729 153.480469 489.164062 153.480469 316.082031 Z M 153.480469 316.082031 " clip-rule="nonzero"/></clipPath><clipPath id="d535ec006a"><path d="M 0.480469 0 L 503.503906 0 L 503.503906 648 L 0.480469 648 Z M 0.480469 0 " clip-rule="nonzero"/></clipPath><clipPath id="a12e631d2e"><path d="M 0.480469 235.082031 C 0.480469 100.875 113.085938 0 251.992188 0 C 390.898438 0 503.503906 100.875 503.503906 235.082031 C 503.503906 408.164062 251.992188 648 251.992188 648 C 251.992188 648 0.480469 408.164062 0.480469 235.082031 Z M 0.480469 235.082031 " clip-rule="nonzero"/></clipPath><clipPath id="3e5b18d5c5"><rect x="0" width="504" y="0" height="648"/></clipPath><clipPath id="d71ae67792"><path d="M 205.492188 126.609375 L 604.507812 126.609375 L 604.507812 525.625 L 205.492188 525.625 Z M 205.492188 126.609375 " clip-rule="nonzero"/></clipPath><clipPath id="bcfa993afa"><path d="M 405 126.609375 C 294.816406 126.609375 205.492188 215.933594 205.492188 326.117188 C 205.492188 436.300781 294.816406 525.625 405 525.625 C 515.183594 525.625 604.507812 436.300781 604.507812 326.117188 C 604.507812 215.933594 515.183594 126.609375 405 126.609375 Z M 405 126.609375 " clip-rule="nonzero"/></clipPath><clipPath id="9f07d8307d"><path d="M 0.492188 0.609375 L 399.507812 0.609375 L 399.507812 399.625 L 0.492188 399.625 Z M 0.492188 0.609375 " clip-rule="nonzero"/></clipPath><clipPath id="d039e67d92"><path d="M 200 0.609375 C 89.816406 0.609375 0.492188 89.933594 0.492188 200.117188 C 0.492188 310.300781 89.816406 399.625 200 399.625 C 310.183594 399.625 399.507812 310.300781 399.507812 200.117188 C 399.507812 89.933594 310.183594 0.609375 200 0.609375 Z M 200 0.609375 " clip-rule="nonzero"/></clipPath><clipPath id="6d6cd891d8"><rect x="0" width="400" y="0" height="400"/></clipPath><clipPath id="e968b30d4f"><path d="M 252 270 L 351.605469 270 L 351.605469 428 L 252 428 Z M 252 270 " clip-rule="nonzero"/></clipPath><clipPath id="4b64168df2"><path d="M 247.355469 349 L 295 349 L 295 427 L 247.355469 427 Z M 247.355469 349 " clip-rule="nonzero"/></clipPath><clipPath id="2e4e8e01a0"><path d="M 354.71875 261.707031 L 562.46875 261.707031 L 562.46875 428.207031 L 354.71875 428.207031 Z M 354.71875 261.707031 " clip-rule="nonzero"/></clipPath></defs><g clip-path="url(#a51bbb71f3)"><g clip-path="url(#ddb08ab003)"><g transform="matrix(1, 0, 0, 1, 153, 81)"><g clip-path="url(#3e5b18d5c5)"><g clip-path="url(#d535ec006a)"><g clip-path="url(#a12e631d2e)"><path fill="#9eff1f" d="M 503.503906 648 L 0.480469 648 L 0.480469 -0.429688 L 503.503906 -0.429688 Z M 503.503906 648 " fill-opacity="1" fill-rule="nonzero"/></g></g></g></g></g></g><g clip-path="url(#d71ae67792)"><g clip-path="url(#bcfa993afa)"><g transform="matrix(1, 0, 0, 1, 205, 126)"><g clip-path="url(#6d6cd891d8)"><g clip-path="url(#9f07d8307d)"><g clip-path="url(#d039e67d92)"><path fill="#ffffff" d="M 0.492188 0.609375 L 399.507812 0.609375 L 399.507812 399.625 L 0.492188 399.625 Z M 0.492188 0.609375 " fill-opacity="1" fill-rule="nonzero"/></g></g></g></g></g></g><g clip-path="url(#e968b30d4f)"><path fill="#9eff1f" d="M 341.84375 321.234375 C 341.730469 321.148438 333.058594 314.984375 332.292969 314.441406 C 325.691406 309.75 325.328125 309.921875 324.066406 306.90625 C 323.6875 306 323.605469 306.042969 319.105469 295.679688 C 318.164062 293.507812 318.0625 293.574219 316.773438 290.53125 C 311.949219 279.121094 309.808594 272.597656 299.753906 270.507812 C 295.046875 269.527344 288.425781 270.71875 283.484375 274.980469 C 282.371094 275.941406 281.761719 276.46875 270.730469 288.203125 C 269.722656 289.273438 259.46875 300.183594 258.3125 301.726562 C 255.777344 305.105469 256.496094 307.894531 255.136719 316.472656 C 255.0625 316.945312 253.835938 326.722656 253.726562 327.613281 C 252.335938 338.699219 252.417969 339.191406 252.59375 340.183594 C 253.703125 346.542969 261.566406 348.613281 265.710938 344.023438 C 268.171875 341.300781 268.078125 337.046875 269.03125 329.804688 C 269.316406 327.625 270.804688 312.382812 271.621094 310.578125 C 271.84375 310.078125 271.914062 309.921875 276.109375 305.453125 C 276.652344 304.875 276.585938 304.835938 277.085938 304.230469 C 277.65625 303.539062 277.804688 303.894531 278.6875 303.976562 C 278.660156 304.191406 278.734375 304.410156 278.703125 304.625 C 278.679688 304.816406 278.421875 305.136719 278.238281 307.578125 C 277.851562 312.703125 278.070312 314.671875 276.679688 329.097656 C 276.28125 333.203125 275.0625 341.398438 281.769531 349.292969 C 290.171875 359.191406 291.441406 359.378906 294.324219 362.707031 C 295.023438 363.507812 295.011719 363.496094 295.710938 364.289062 C 297.472656 366.28125 297.636719 366.117188 299.363281 368.140625 C 299.867188 368.734375 304.304688 373.394531 304.734375 373.851562 C 308.257812 377.554688 312.164062 381.324219 312.894531 383.359375 C 313.707031 385.617188 317.199219 400.117188 319.234375 406.984375 C 320.816406 412.320312 322.199219 421.789062 325.53125 425.054688 C 328.402344 427.875 333.960938 429.332031 338.433594 425.6875 C 338.855469 425.34375 341.144531 423.476562 341.628906 419.691406 C 342.003906 416.753906 341.3125 416.808594 333.390625 386.191406 C 329.847656 372.5 329.789062 372.378906 326.804688 368.898438 C 326.367188 368.386719 326.402344 368.367188 321.488281 362.34375 C 311.632812 350.269531 311.824219 350.128906 310.960938 349.085938 C 309.625 347.46875 309.773438 347.109375 310.101562 342.457031 C 310.558594 336.042969 311.148438 328.816406 311.242188 327.632812 C 311.484375 324.675781 311.597656 323.519531 311.632812 323.164062 C 311.703125 322.4375 311.769531 321.265625 311.773438 320.949219 C 311.800781 319.226562 311.632812 319.171875 311.910156 318.882812 C 311.933594 318.855469 313 318.800781 313.058594 318.824219 C 313.328125 318.921875 313.03125 319.246094 315.644531 321.351562 C 316.5 322.039062 330.714844 332.386719 338.929688 338.25 C 344.992188 342.574219 351.683594 339.058594 351.523438 332.070312 C 351.410156 327.199219 348.277344 326.144531 341.84375 321.234375 Z M 341.84375 321.234375 " fill-opacity="1" fill-rule="evenodd"/></g><g clip-path="url(#4b64168df2)"><path fill="#9eff1f" d="M 281.542969 355.5 C 278.175781 352.035156 277.917969 350.953125 277.351562 350.085938 C 277.097656 350.089844 277.003906 349.625 276.75 349.628906 C 276.273438 349.632812 276.253906 351.699219 276.015625 352.851562 C 274.765625 358.949219 273.839844 367.269531 273.109375 371.417969 C 271.878906 378.449219 272.355469 380.015625 267.996094 385.625 C 266.433594 387.632812 264.082031 391.007812 263.886719 391.253906 C 262.207031 393.378906 252.28125 406.867188 251.570312 407.816406 C 250.933594 408.667969 250.90625 408.621094 250.265625 409.441406 C 241.121094 421.210938 255.699219 430.832031 263.441406 423.414062 C 264.050781 422.832031 264.042969 422.824219 269.8125 415.015625 C 275.347656 407.53125 275.320312 407.515625 275.832031 406.890625 C 277.460938 404.90625 279.453125 401.90625 279.945312 401.261719 C 280.4375 400.617188 284.699219 395.0625 285.992188 393.15625 C 289.046875 388.644531 289.984375 387.855469 290.882812 383.289062 C 292.347656 375.859375 294.019531 370.167969 294.003906 369.179688 C 293.988281 368.113281 293.757812 368.140625 289.902344 364.191406 C 285.6875 359.871094 285.75 359.835938 281.542969 355.5 Z M 281.542969 355.5 " fill-opacity="1" fill-rule="evenodd"/></g><path fill="#9eff1f" d="M 321.203125 246.585938 C 321.25 247.214844 321.261719 247.84375 321.246094 248.472656 C 321.226562 249.105469 321.179688 249.730469 321.101562 250.355469 C 321.023438 250.980469 320.914062 251.601562 320.773438 252.214844 C 320.632812 252.832031 320.464844 253.4375 320.265625 254.035156 C 320.066406 254.632812 319.835938 255.21875 319.582031 255.792969 C 319.324219 256.371094 319.039062 256.929688 318.726562 257.480469 C 318.414062 258.027344 318.078125 258.558594 317.714844 259.070312 C 317.347656 259.585938 316.960938 260.082031 316.546875 260.554688 C 316.132812 261.03125 315.699219 261.488281 315.242188 261.921875 C 314.785156 262.355469 314.308594 262.761719 313.808594 263.148438 C 313.3125 263.535156 312.796875 263.898438 312.261719 264.234375 C 311.730469 264.570312 311.179688 264.878906 310.617188 265.160156 C 310.054688 265.441406 309.476562 265.695312 308.890625 265.917969 C 308.300781 266.144531 307.703125 266.339844 307.09375 266.507812 C 306.488281 266.671875 305.871094 266.808594 305.25 266.917969 C 304.628906 267.023438 304.003906 267.097656 303.375 267.140625 C 302.746094 267.1875 302.117188 267.199219 301.488281 267.183594 C 300.859375 267.167969 300.230469 267.117188 299.605469 267.039062 C 298.980469 266.960938 298.359375 266.851562 297.746094 266.710938 C 297.132812 266.570312 296.527344 266.402344 295.929688 266.203125 C 295.332031 266.003906 294.742188 265.777344 294.167969 265.519531 C 293.59375 265.261719 293.03125 264.976562 292.484375 264.664062 C 291.9375 264.355469 291.40625 264.015625 290.890625 263.652344 C 290.378906 263.285156 289.882812 262.898438 289.40625 262.484375 C 288.929688 262.074219 288.476562 261.636719 288.042969 261.179688 C 287.609375 260.722656 287.199219 260.246094 286.8125 259.746094 C 286.425781 259.25 286.066406 258.734375 285.730469 258.199219 C 285.394531 257.667969 285.085938 257.117188 284.804688 256.554688 C 284.523438 255.992188 284.269531 255.414062 284.042969 254.828125 C 283.816406 254.238281 283.621094 253.640625 283.457031 253.03125 C 283.289062 252.425781 283.152344 251.808594 283.046875 251.1875 C 282.941406 250.566406 282.867188 249.941406 282.820312 249.316406 C 282.777344 248.6875 282.761719 248.058594 282.78125 247.425781 C 282.796875 246.796875 282.84375 246.167969 282.921875 245.542969 C 283.003906 244.917969 283.113281 244.300781 283.25 243.683594 C 283.390625 243.070312 283.558594 242.464844 283.761719 241.867188 C 283.960938 241.269531 284.1875 240.683594 284.445312 240.105469 C 284.699219 239.53125 284.984375 238.96875 285.296875 238.421875 C 285.609375 237.875 285.949219 237.34375 286.3125 236.832031 C 286.675781 236.316406 287.066406 235.820312 287.476562 235.34375 C 287.890625 234.867188 288.324219 234.414062 288.78125 233.980469 C 289.242188 233.546875 289.71875 233.136719 290.214844 232.75 C 290.714844 232.363281 291.230469 232.003906 291.761719 231.667969 C 292.296875 231.332031 292.84375 231.023438 293.40625 230.742188 C 293.972656 230.460938 294.546875 230.207031 295.136719 229.980469 C 295.722656 229.757812 296.324219 229.558594 296.929688 229.394531 C 297.539062 229.226562 298.152344 229.089844 298.773438 228.984375 C 299.394531 228.878906 300.019531 228.804688 300.648438 228.757812 C 301.277344 228.714844 301.90625 228.699219 302.535156 228.71875 C 303.164062 228.734375 303.792969 228.78125 304.417969 228.863281 C 305.042969 228.941406 305.664062 229.050781 306.277344 229.191406 C 306.890625 229.328125 307.5 229.5 308.097656 229.699219 C 308.695312 229.898438 309.28125 230.125 309.855469 230.382812 C 310.429688 230.640625 310.992188 230.921875 311.539062 231.234375 C 312.089844 231.546875 312.617188 231.886719 313.132812 232.25 C 313.648438 232.613281 314.140625 233.003906 314.617188 233.414062 C 315.09375 233.828125 315.550781 234.265625 315.980469 234.722656 C 316.414062 235.179688 316.824219 235.65625 317.210938 236.152344 C 317.597656 236.652344 317.960938 237.167969 318.292969 237.699219 C 318.628906 238.234375 318.9375 238.78125 319.222656 239.347656 C 319.503906 239.910156 319.757812 240.484375 319.980469 241.074219 C 320.207031 241.664062 320.402344 242.261719 320.570312 242.867188 C 320.734375 243.476562 320.871094 244.089844 320.976562 244.710938 C 321.082031 245.332031 321.160156 245.957031 321.203125 246.585938 Z M 321.203125 246.585938 " fill-opacity="1" fill-rule="nonzero"/><g clip-path="url(#2e4e8e01a0)"><path fill="#9eff1f" d="M 493.335938 261.707031 C 485.679688 261.707031 479.472656 267.914062 479.472656 275.570312 C 479.472656 283.226562 485.679688 289.429688 493.335938 289.429688 C 500.992188 289.429688 507.195312 283.226562 507.195312 275.570312 C 507.195312 267.914062 500.992188 261.707031 493.335938 261.707031 Z M 467.617188 289.347656 C 465.8125 289.355469 464.085938 290.066406 462.796875 291.324219 L 426.195312 325.980469 C 423.066406 328.929688 423.351562 333.984375 426.789062 336.566406 L 451.75 355.273438 L 451.75 393.390625 C 451.613281 402.765625 465.746094 402.765625 465.613281 393.390625 L 465.613281 351.808594 C 465.617188 349.625 464.59375 347.570312 462.851562 346.257812 L 452.210938 338.269531 L 477.410156 314.410156 L 487.785156 328.253906 C 489.097656 329.996094 491.152344 331.019531 493.335938 331.015625 L 514.128906 331.015625 C 523.5 331.152344 523.5 317.019531 514.128906 317.152344 L 496.800781 317.152344 L 486.40625 303.292969 L 478.09375 292.191406 C 476.84375 290.480469 474.878906 289.429688 472.761719 289.347656 Z M 396.304688 344.875 C 373.339844 344.875 354.722656 363.496094 354.722656 386.460938 C 354.722656 409.425781 373.339844 428.042969 396.304688 428.042969 C 419.273438 428.042969 437.890625 409.425781 437.890625 386.460938 C 437.890625 363.496094 419.273438 344.875 396.304688 344.875 Z M 521.058594 344.875 C 498.089844 344.875 479.472656 363.496094 479.472656 386.460938 C 479.472656 409.425781 498.089844 428.042969 521.058594 428.042969 C 544.027344 428.042969 562.640625 409.425781 562.640625 386.460938 C 562.640625 363.496094 544.027344 344.875 521.058594 344.875 Z M 396.304688 358.738281 C 411.617188 358.738281 424.027344 371.148438 424.027344 386.460938 C 424.027344 401.769531 411.617188 414.183594 396.304688 414.183594 C 380.996094 414.183594 368.582031 401.769531 368.582031 386.460938 C 368.582031 371.148438 380.996094 358.738281 396.304688 358.738281 Z M 521.058594 358.738281 C 536.371094 358.738281 548.78125 371.148438 548.78125 386.460938 C 548.78125 401.769531 536.371094 414.183594 521.058594 414.183594 C 505.746094 414.183594 493.335938 401.769531 493.335938 386.460938 C 493.335938 371.148438 505.746094 358.738281 521.058594 358.738281 Z M 521.058594 358.738281 " fill-opacity="1" fill-rule="nonzero"/></g></svg>