<svg xmlns="http://www.w3.org/2000/svg" xmlns:xlink="http://www.w3.org/1999/xlink" width="1080" zoomAndPan="magnify" viewBox="0 0 810 809.999993" height="1080" preserveAspectRatio="xMidYMid meet" version="1.0"><defs><clipPath id="7768fc8d8e"><path d="M 153.480469 81 L 656.503906 81 L 656.503906 729 L 153.480469 729 Z M 153.480469 81 " clip-rule="nonzero"/></clipPath><clipPath id="f280c1da65"><path d="M 153.480469 316.082031 C 153.480469 181.875 266.085938 81 404.992188 81 C 543.898438 81 656.503906 181.875 656.503906 316.082031 C 656.503906 489.164062 404.992188 729 404.992188 729 C 404.992188 729 153.480469 489.164062 153.480469 316.082031 Z M 153.480469 316.082031 " clip-rule="nonzero"/></clipPath><clipPath id="775874a468"><path d="M 0.480469 0 L 503.503906 0 L 503.503906 648 L 0.480469 648 Z M 0.480469 0 " clip-rule="nonzero"/></clipPath><clipPath id="c506fcdad7"><path d="M 0.480469 235.082031 C 0.480469 100.875 113.085938 0 251.992188 0 C 390.898438 0 503.503906 100.875 503.503906 235.082031 C 503.503906 408.164062 251.992188 648 251.992188 648 C 251.992188 648 0.480469 408.164062 0.480469 235.082031 Z M 0.480469 235.082031 " clip-rule="nonzero"/></clipPath><clipPath id="9d788df833"><rect x="0" width="504" y="0" height="648"/></clipPath><clipPath id="97aca0d999"><path d="M 205.492188 126.609375 L 604.507812 126.609375 L 604.507812 525.625 L 205.492188 525.625 Z M 205.492188 126.609375 " clip-rule="nonzero"/></clipPath><clipPath id="f99f0f79a9"><path d="M 405 126.609375 C 294.816406 126.609375 205.492188 215.933594 205.492188 326.117188 C 205.492188 436.300781 294.816406 525.625 405 525.625 C 515.183594 525.625 604.507812 436.300781 604.507812 326.117188 C 604.507812 215.933594 515.183594 126.609375 405 126.609375 Z M 405 126.609375 " clip-rule="nonzero"/></clipPath><clipPath id="86a6069932"><path d="M 0.492188 0.609375 L 399.507812 0.609375 L 399.507812 399.625 L 0.492188 399.625 Z M 0.492188 0.609375 " clip-rule="nonzero"/></clipPath><clipPath id="fc13d207e2"><path d="M 200 0.609375 C 89.816406 0.609375 0.492188 89.933594 0.492188 200.117188 C 0.492188 310.300781 89.816406 399.625 200 399.625 C 310.183594 399.625 399.507812 310.300781 399.507812 200.117188 C 399.507812 89.933594 310.183594 0.609375 200 0.609375 Z M 200 0.609375 " clip-rule="nonzero"/></clipPath><clipPath id="dc39fd761f"><rect x="0" width="400" y="0" height="400"/></clipPath><clipPath id="cd0774c91e"><path d="M 375 378 L 403 378 L 403 453.921875 L 375 453.921875 Z M 375 378 " clip-rule="nonzero"/></clipPath><clipPath id="beeaacc0fb"><path d="M 407 378 L 435 378 L 435 453.921875 L 407 453.921875 Z M 407 378 " clip-rule="nonzero"/></clipPath><clipPath id="ac64d4cca1"><path d="M 256.101562 238 L 382 238 L 382 290 L 256.101562 290 Z M 256.101562 238 " clip-rule="nonzero"/></clipPath><clipPath id="572df433db"><path d="M 407 165.921875 L 452 165.921875 L 452 209 L 407 209 Z M 407 165.921875 " clip-rule="nonzero"/></clipPath><clipPath id="6be1cb04e1"><path d="M 342 217 L 468 217 L 468 453.921875 L 342 453.921875 Z M 342 217 " clip-rule="nonzero"/></clipPath><clipPath id="32bfd52efd"><path d="M 428 238 L 553.851562 238 L 553.851562 290 L 428 290 Z M 428 238 " clip-rule="nonzero"/></clipPath></defs><g clip-path="url(#7768fc8d8e)"><g clip-path="url(#f280c1da65)"><g transform="matrix(1, 0, 0, 1, 153, 81)"><g clip-path="url(#9d788df833)"><g clip-path="url(#775874a468)"><g clip-path="url(#c506fcdad7)"><path fill="#1f48ff" d="M 503.503906 648 L 0.480469 648 L 0.480469 -0.429688 L 503.503906 -0.429688 Z M 503.503906 648 " fill-opacity="1" fill-rule="nonzero"/></g></g></g></g></g></g><g clip-path="url(#97aca0d999)"><g clip-path="url(#f99f0f79a9)"><g transform="matrix(1, 0, 0, 1, 205, 126)"><g clip-path="url(#dc39fd761f)"><g clip-path="url(#86a6069932)"><g clip-path="url(#fc13d207e2)"><path fill="#ffffff" d="M 0.492188 0.609375 L 399.507812 0.609375 L 399.507812 399.625 L 0.492188 399.625 Z M 0.492188 0.609375 " fill-opacity="1" fill-rule="nonzero"/></g></g></g></g></g></g><path fill="#1f48ff" d="M 317.546875 294.589844 C 310.957031 294.589844 303.503906 294.582031 296.042969 294.566406 C 292.429688 294.558594 288.824219 294.550781 285.3125 294.542969 L 285.3125 354.890625 L 337.214844 354.890625 L 337.214844 294.476562 C 334.871094 294.566406 331.371094 294.574219 326.042969 294.582031 C 323.453125 294.585938 320.59375 294.589844 317.546875 294.589844 Z M 324.398438 342.914062 C 324.398438 344.277344 323.300781 345.375 321.9375 345.375 L 299.800781 345.375 C 298.441406 345.375 297.34375 344.277344 297.34375 342.914062 L 297.34375 308.417969 C 297.34375 307.058594 298.441406 305.960938 299.800781 305.960938 L 321.9375 305.960938 C 323.300781 305.960938 324.398438 307.058594 324.398438 308.417969 Z M 324.398438 342.914062 " fill-opacity="1" fill-rule="nonzero"/><path fill="#1f48ff" d="M 302.261719 321.433594 L 319.480469 321.433594 L 319.480469 340.457031 L 302.261719 340.457031 Z M 302.261719 321.433594 " fill-opacity="1" fill-rule="nonzero"/><path fill="#1f48ff" d="M 302.261719 310.878906 L 319.480469 310.878906 L 319.480469 316.515625 L 302.261719 316.515625 Z M 302.261719 310.878906 " fill-opacity="1" fill-rule="nonzero"/><g clip-path="url(#cd0774c91e)"><path fill="#1f48ff" d="M 375.429688 378.683594 L 402.523438 378.683594 L 402.523438 454.011719 L 375.429688 454.011719 Z M 375.429688 378.683594 " fill-opacity="1" fill-rule="nonzero"/></g><path fill="#1f48ff" d="M 375.429688 353.167969 L 434.492188 353.167969 L 434.492188 373.761719 L 375.429688 373.761719 Z M 375.429688 353.167969 " fill-opacity="1" fill-rule="nonzero"/><path fill="#1f48ff" d="M 271.488281 359.808594 L 337.214844 359.808594 L 337.214844 380.394531 L 271.488281 380.394531 Z M 271.488281 359.808594 " fill-opacity="1" fill-rule="nonzero"/><g clip-path="url(#beeaacc0fb)"><path fill="#1f48ff" d="M 407.441406 378.683594 L 434.488281 378.683594 L 434.488281 454.011719 L 407.441406 454.011719 Z M 407.441406 378.683594 " fill-opacity="1" fill-rule="nonzero"/></g><g clip-path="url(#ac64d4cca1)"><path fill="#1f48ff" d="M 287.445312 238.671875 L 256.792969 289.539062 C 264.964844 289.570312 273.929688 289.597656 282.847656 289.617188 C 282.847656 289.617188 282.847656 289.617188 282.851562 289.617188 C 282.855469 289.617188 282.855469 289.617188 282.855469 289.617188 C 308.292969 289.679688 333.308594 289.699219 338.476562 289.589844 L 381.128906 238.671875 Z M 287.445312 238.671875 " fill-opacity="1" fill-rule="nonzero"/></g><path fill="#1f48ff" d="M 311.496094 412.621094 L 328.714844 412.621094 L 328.714844 431.640625 L 311.496094 431.640625 Z M 311.496094 412.621094 " fill-opacity="1" fill-rule="nonzero"/><path fill="#1f48ff" d="M 311.496094 402.066406 L 328.714844 402.066406 L 328.714844 407.703125 L 311.496094 407.703125 Z M 311.496094 402.066406 " fill-opacity="1" fill-rule="nonzero"/><g clip-path="url(#572df433db)"><path fill="#1f48ff" d="M 436.546875 208.113281 C 442.835938 209.203125 449.015625 207.289062 451.707031 206.269531 L 451.707031 179.011719 C 448.058594 180.195312 442.011719 181.574219 435.710938 180.484375 C 431.332031 179.726562 427.601562 176.910156 423.660156 173.929688 C 418.917969 170.347656 414.019531 166.675781 407.417969 165.921875 L 407.417969 193.476562 C 415.613281 194.230469 421.445312 198.574219 426.625 202.484375 C 430.230469 205.210938 433.34375 207.5625 436.546875 208.113281 Z M 436.546875 208.113281 " fill-opacity="1" fill-rule="nonzero"/></g><path fill="#1f48ff" d="M 271.488281 447.636719 L 337.214844 447.636719 L 337.214844 385.3125 L 271.488281 385.3125 Z M 306.578125 399.609375 C 306.578125 398.246094 307.675781 397.148438 309.035156 397.148438 L 331.171875 397.148438 C 332.53125 397.148438 333.632812 398.246094 333.632812 399.609375 L 333.632812 434.101562 C 333.632812 435.460938 332.53125 436.5625 331.171875 436.5625 L 309.035156 436.5625 C 307.675781 436.5625 306.578125 435.460938 306.578125 434.101562 Z M 275.207031 399.609375 C 275.207031 398.246094 276.304688 397.148438 277.667969 397.148438 L 299.800781 397.148438 C 301.164062 397.148438 302.261719 398.246094 302.261719 399.609375 L 302.261719 434.101562 C 302.261719 435.460938 301.164062 436.5625 299.800781 436.5625 L 277.667969 436.5625 C 276.304688 436.5625 275.207031 435.460938 275.207031 434.101562 Z M 275.207031 399.609375 " fill-opacity="1" fill-rule="nonzero"/><path fill="#1f48ff" d="M 280.125 412.621094 L 297.34375 412.621094 L 297.34375 431.640625 L 280.125 431.640625 Z M 280.125 412.621094 " fill-opacity="1" fill-rule="nonzero"/><path fill="#1f48ff" d="M 378.808594 294.601562 C 378.808594 309.023438 390.542969 320.753906 404.960938 320.753906 C 419.378906 320.753906 431.113281 309.023438 431.113281 294.601562 C 431.113281 280.179688 419.378906 268.445312 404.960938 268.445312 C 390.539062 268.445312 378.808594 280.179688 378.808594 294.601562 Z M 407.417969 274.566406 L 407.417969 294.601562 C 407.417969 295.285156 407.132812 295.941406 406.628906 296.402344 L 397.734375 304.640625 C 397.261719 305.082031 396.660156 305.296875 396.0625 305.296875 C 395.398438 305.296875 394.738281 305.035156 394.257812 304.511719 C 393.332031 303.515625 393.390625 301.957031 394.390625 301.035156 L 402.5 293.527344 L 402.5 274.566406 C 402.5 273.207031 403.601562 272.105469 404.960938 272.105469 C 406.320312 272.105469 407.417969 273.203125 407.417969 274.566406 Z M 407.417969 274.566406 " fill-opacity="1" fill-rule="nonzero"/><path fill="#1f48ff" d="M 280.125 402.066406 L 297.34375 402.066406 L 297.34375 407.703125 L 280.125 407.703125 Z M 280.125 402.066406 " fill-opacity="1" fill-rule="nonzero"/><path fill="#1f48ff" d="M 481.203125 412.621094 L 498.417969 412.621094 L 498.417969 431.640625 L 481.203125 431.640625 Z M 481.203125 412.621094 " fill-opacity="1" fill-rule="nonzero"/><path fill="#1f48ff" d="M 472.703125 359.808594 L 538.429688 359.808594 L 538.429688 380.394531 L 472.703125 380.394531 Z M 472.703125 359.808594 " fill-opacity="1" fill-rule="nonzero"/><path fill="#1f48ff" d="M 472.703125 447.636719 L 538.429688 447.636719 L 538.429688 385.3125 L 472.703125 385.3125 Z M 507.652344 399.609375 C 507.652344 398.246094 508.753906 397.148438 510.113281 397.148438 L 532.25 397.148438 C 533.609375 397.148438 534.710938 398.246094 534.710938 399.609375 L 534.710938 434.101562 C 534.710938 435.460938 533.609375 436.5625 532.25 436.5625 L 510.113281 436.5625 C 508.753906 436.5625 507.652344 435.460938 507.652344 434.101562 Z M 476.285156 399.609375 C 476.285156 398.246094 477.382812 397.148438 478.742188 397.148438 L 500.878906 397.148438 C 502.238281 397.148438 503.339844 398.246094 503.339844 399.609375 L 503.339844 434.101562 C 503.339844 435.460938 502.238281 436.5625 500.878906 436.5625 L 478.742188 436.5625 C 477.382812 436.5625 476.285156 435.460938 476.285156 434.101562 Z M 476.285156 399.609375 " fill-opacity="1" fill-rule="nonzero"/><path fill="#1f48ff" d="M 481.203125 402.066406 L 498.417969 402.066406 L 498.417969 407.703125 L 481.203125 407.703125 Z M 481.203125 402.066406 " fill-opacity="1" fill-rule="nonzero"/><path fill="#1f48ff" d="M 512.574219 412.621094 L 529.789062 412.621094 L 529.789062 431.640625 L 512.574219 431.640625 Z M 512.574219 412.621094 " fill-opacity="1" fill-rule="nonzero"/><path fill="#1f48ff" d="M 512.574219 402.066406 L 529.789062 402.066406 L 529.789062 407.703125 L 512.574219 407.703125 Z M 512.574219 402.066406 " fill-opacity="1" fill-rule="nonzero"/><path fill="#1f48ff" d="M 483.878906 294.582031 C 478.546875 294.574219 475.046875 294.566406 472.703125 294.476562 L 472.703125 354.890625 L 524.605469 354.890625 L 524.605469 294.542969 C 521.09375 294.550781 517.488281 294.558594 513.875 294.566406 C 506.417969 294.582031 498.960938 294.589844 492.375 294.589844 C 489.324219 294.589844 486.46875 294.585938 483.878906 294.582031 Z M 512.574219 308.417969 L 512.574219 342.914062 C 512.574219 344.277344 511.472656 345.375 510.113281 345.375 L 487.976562 345.375 C 486.617188 345.375 485.519531 344.277344 485.519531 342.914062 L 485.519531 308.417969 C 485.519531 307.058594 486.617188 305.960938 487.976562 305.960938 L 510.113281 305.960938 C 511.472656 305.960938 512.574219 307.058594 512.574219 308.417969 Z M 512.574219 308.417969 " fill-opacity="1" fill-rule="nonzero"/><g clip-path="url(#6be1cb04e1)"><path fill="#1f48ff" d="M 342.132812 292.878906 L 342.132812 454.011719 L 370.507812 454.011719 L 370.507812 350.707031 C 370.507812 349.347656 371.609375 348.246094 372.96875 348.246094 L 436.949219 348.246094 C 438.308594 348.246094 439.40625 349.347656 439.40625 350.707031 L 439.40625 454.011719 L 467.78125 454.011719 L 467.78125 292.878906 L 404.957031 217.886719 Z M 436.03125 294.601562 C 436.03125 311.734375 422.089844 325.675781 404.957031 325.675781 C 387.824219 325.675781 373.886719 311.734375 373.886719 294.601562 C 373.886719 277.46875 387.824219 263.527344 404.957031 263.527344 C 422.089844 263.527344 436.03125 277.46875 436.03125 294.601562 Z M 436.03125 294.601562 " fill-opacity="1" fill-rule="nonzero"/></g><path fill="#1f48ff" d="M 490.4375 321.433594 L 507.652344 321.433594 L 507.652344 340.457031 L 490.4375 340.457031 Z M 490.4375 321.433594 " fill-opacity="1" fill-rule="nonzero"/><g clip-path="url(#32bfd52efd)"><path fill="#1f48ff" d="M 527.0625 289.617188 C 527.0625 289.617188 527.0625 289.617188 527.066406 289.617188 C 527.070312 289.617188 527.070312 289.617188 527.070312 289.617188 C 535.988281 289.597656 544.953125 289.570312 553.125 289.539062 L 522.472656 238.671875 L 428.792969 238.671875 L 471.445312 289.585938 C 476.609375 289.699219 501.628906 289.679688 527.0625 289.617188 Z M 527.0625 289.617188 " fill-opacity="1" fill-rule="nonzero"/></g><path fill="#1f48ff" d="M 490.4375 310.878906 L 507.652344 310.878906 L 507.652344 316.515625 L 490.4375 316.515625 Z M 490.4375 310.878906 " fill-opacity="1" fill-rule="nonzero"/></svg>