<svg xmlns="http://www.w3.org/2000/svg" xmlns:xlink="http://www.w3.org/1999/xlink" width="1080" zoomAndPan="magnify" viewBox="0 0 810 809.999993" height="1080" preserveAspectRatio="xMidYMid meet" version="1.0"><defs><clipPath id="0f6287fe6b"><path d="M 153.480469 81 L 656.503906 81 L 656.503906 729 L 153.480469 729 Z M 153.480469 81 " clip-rule="nonzero"/></clipPath><clipPath id="89ab73c98d"><path d="M 153.480469 316.082031 C 153.480469 181.875 266.085938 81 404.992188 81 C 543.898438 81 656.503906 181.875 656.503906 316.082031 C 656.503906 489.164062 404.992188 729 404.992188 729 C 404.992188 729 153.480469 489.164062 153.480469 316.082031 Z M 153.480469 316.082031 " clip-rule="nonzero"/></clipPath><clipPath id="9cbe819a64"><path d="M 0.480469 0 L 503.503906 0 L 503.503906 648 L 0.480469 648 Z M 0.480469 0 " clip-rule="nonzero"/></clipPath><clipPath id="0213432ba7"><path d="M 0.480469 235.082031 C 0.480469 100.875 113.085938 0 251.992188 0 C 390.898438 0 503.503906 100.875 503.503906 235.082031 C 503.503906 408.164062 251.992188 648 251.992188 648 C 251.992188 648 0.480469 408.164062 0.480469 235.082031 Z M 0.480469 235.082031 " clip-rule="nonzero"/></clipPath><clipPath id="88772a07a2"><rect x="0" width="504" y="0" height="648"/></clipPath><clipPath id="35e1313eda"><path d="M 205.492188 126.609375 L 604.507812 126.609375 L 604.507812 525.625 L 205.492188 525.625 Z M 205.492188 126.609375 " clip-rule="nonzero"/></clipPath><clipPath id="8a5c04bb0b"><path d="M 405 126.609375 C 294.816406 126.609375 205.492188 215.933594 205.492188 326.117188 C 205.492188 436.300781 294.816406 525.625 405 525.625 C 515.183594 525.625 604.507812 436.300781 604.507812 326.117188 C 604.507812 215.933594 515.183594 126.609375 405 126.609375 Z M 405 126.609375 " clip-rule="nonzero"/></clipPath><clipPath id="da7e63562d"><path d="M 0.492188 0.609375 L 399.507812 0.609375 L 399.507812 399.625 L 0.492188 399.625 Z M 0.492188 0.609375 " clip-rule="nonzero"/></clipPath><clipPath id="a77994e898"><path d="M 200 0.609375 C 89.816406 0.609375 0.492188 89.933594 0.492188 200.117188 C 0.492188 310.300781 89.816406 399.625 200 399.625 C 310.183594 399.625 399.507812 310.300781 399.507812 200.117188 C 399.507812 89.933594 310.183594 0.609375 200 0.609375 Z M 200 0.609375 " clip-rule="nonzero"/></clipPath><clipPath id="05e1960e96"><rect x="0" width="400" y="0" height="400"/></clipPath><clipPath id="f6db1ad0a1"><path d="M 481 423 L 524 423 L 524 465.394531 L 481 465.394531 Z M 481 423 " clip-rule="nonzero"/></clipPath><clipPath id="c8d1c743ac"><path d="M 344 423 L 386 423 L 386 465.394531 L 344 465.394531 Z M 344 423 " clip-rule="nonzero"/></clipPath></defs><g clip-path="url(#0f6287fe6b)"><g clip-path="url(#89ab73c98d)"><g transform="matrix(1, 0, 0, 1, 153, 81)"><g clip-path="url(#88772a07a2)"><g clip-path="url(#9cbe819a64)"><g clip-path="url(#0213432ba7)"><path fill="#1f48ff" d="M 503.503906 648 L 0.480469 648 L 0.480469 -0.429688 L 503.503906 -0.429688 Z M 503.503906 648 " fill-opacity="1" fill-rule="nonzero"/></g></g></g></g></g></g><g clip-path="url(#35e1313eda)"><g clip-path="url(#8a5c04bb0b)"><g transform="matrix(1, 0, 0, 1, 205, 126)"><g clip-path="url(#05e1960e96)"><g clip-path="url(#da7e63562d)"><g clip-path="url(#a77994e898)"><path fill="#ffffff" d="M 0.492188 0.609375 L 399.507812 0.609375 L 399.507812 399.625 L 0.492188 399.625 Z M 0.492188 0.609375 " fill-opacity="1" fill-rule="nonzero"/></g></g></g></g></g></g><path fill="#1f48ff" d="M 427.695312 256.878906 C 461.011719 256.878906 494.328125 256.871094 527.648438 256.855469 C 530.527344 256.855469 533.28125 256.996094 535.832031 258.570312 C 539 260.539062 541.011719 264.53125 540.375 268.164062 C 538.078125 281.15625 535.699219 294.128906 533.410156 307.128906 C 530.554688 323.265625 527.714844 339.410156 524.894531 355.554688 C 524.664062 356.851562 524.324219 358.132812 524.007812 359.414062 C 522.667969 364.839844 519.722656 367.523438 514.222656 367.984375 C 503.496094 368.863281 492.757812 369.566406 482.035156 370.460938 C 470.570312 371.414062 459.117188 372.507812 447.65625 373.523438 C 442.769531 373.953125 437.882812 374.351562 432.988281 374.71875 C 421.300781 375.585938 409.640625 376.386719 397.96875 377.285156 C 383.484375 378.398438 369 379.554688 354.515625 380.753906 C 350.949219 381.042969 347.386719 381.617188 343.816406 381.667969 C 338.730469 381.738281 335.152344 378.941406 334.121094 373.898438 C 332.453125 365.789062 331.085938 357.609375 329.605469 349.457031 C 326.265625 331.109375 322.929688 312.761719 319.601562 294.410156 C 318.089844 286.074219 316.5625 277.738281 315.089844 269.394531 C 313.878906 262.53125 318.371094 257.136719 325.476562 256.925781 C 328.503906 256.839844 331.535156 256.90625 334.5625 256.90625 Z M 386.515625 304.449219 L 376.886719 304.449219 C 376.695312 304.449219 376.496094 304.449219 376.320312 304.449219 C 371.535156 304.425781 371.054688 303.84375 371.453125 309.253906 C 371.925781 315.640625 372.367188 322.027344 372.898438 328.40625 C 373.128906 331.179688 373.761719 331.664062 376.460938 331.488281 C 380.972656 331.195312 385.476562 330.886719 389.976562 330.558594 C 392.972656 330.332031 395.964844 329.984375 398.964844 329.800781 C 400.910156 329.683594 402.289062 329.382812 401.492188 326.851562 C 401.164062 325.816406 401.375 324.601562 401.355469 323.46875 C 401.269531 318.015625 401.136719 312.523438 401.128906 307.050781 C 401.128906 305.082031 400.296875 304.398438 398.402344 304.433594 C 394.445312 304.496094 390.484375 304.449219 386.515625 304.449219 Z M 428.746094 269.308594 C 424.222656 269.308594 419.695312 269.359375 415.171875 269.285156 C 413.273438 269.257812 412.398438 269.910156 412.507812 271.902344 C 412.847656 278.289062 413.109375 284.675781 413.410156 291.066406 C 413.476562 292.457031 414.257812 293.015625 415.605469 293.015625 C 417.867188 292.996094 420.132812 293.015625 422.390625 293.015625 C 428.625 293.015625 434.859375 292.992188 441.0625 293.015625 C 442.828125 293.015625 444.066406 292.441406 444.109375 290.53125 C 444.253906 284.117188 444.347656 277.707031 444.429688 271.296875 C 444.429688 269.9375 443.734375 269.277344 442.324219 269.285156 C 437.800781 269.328125 433.273438 269.308594 428.746094 269.308594 Z M 473.921875 269.308594 C 469.394531 269.308594 464.871094 269.347656 460.34375 269.308594 C 458.339844 269.285156 457.03125 269.921875 456.996094 272.136719 C 456.898438 278.367188 456.824219 284.578125 456.707031 290.800781 C 456.675781 292.535156 457.574219 293.046875 459.15625 293.042969 C 467.835938 293.019531 476.507812 293.042969 485.183594 293.042969 C 486.464844 293.042969 487.386719 292.574219 487.492188 291.160156 C 487.96875 284.785156 488.402344 278.40625 488.902344 272.035156 C 489.050781 270.132812 488.34375 269.273438 486.367188 269.304688 C 482.21875 269.363281 478.070312 269.3125 473.921875 269.308594 Z M 384.4375 269.308594 C 379.910156 269.308594 375.382812 269.253906 370.855469 269.328125 C 368.128906 269.371094 367.957031 269.472656 368.128906 272.300781 C 368.484375 278.316406 369.042969 284.316406 369.488281 290.320312 C 369.652344 292.53125 370.964844 293.046875 372.945312 293.046875 C 381.058594 292.992188 389.175781 292.972656 397.289062 293.066406 C 399.460938 293.09375 400.367188 292.371094 400.3125 290.167969 C 400.15625 284.132812 400.023438 278.089844 400.058594 272.058594 C 400.058594 269.652344 398.863281 269.265625 396.894531 269.296875 C 392.742188 269.347656 388.589844 269.304688 384.4375 269.308594 Z M 428.929688 304.453125 C 424.773438 304.453125 420.609375 304.488281 416.460938 304.433594 C 414.703125 304.410156 413.550781 304.753906 413.660156 306.886719 C 414.003906 313.667969 414.269531 320.453125 414.570312 327.238281 C 414.632812 328.574219 415.265625 329.292969 416.710938 329.210938 C 423.492188 328.824219 430.273438 328.488281 437.054688 328.078125 C 438.363281 327.996094 439.648438 327.59375 440.949219 327.476562 C 442.671875 327.320312 443.085938 326.304688 443.097656 324.777344 C 443.152344 318.933594 443.167969 313.054688 443.378906 307.199219 C 443.46875 304.769531 442.277344 304.382812 440.285156 304.421875 C 436.496094 304.496094 432.714844 304.445312 428.929688 304.453125 Z M 471.441406 304.453125 C 467.09375 304.453125 462.75 304.46875 458.402344 304.453125 C 456.875 304.453125 455.886719 304.839844 455.871094 306.644531 C 455.816406 312.691406 455.695312 318.722656 455.597656 324.785156 C 455.570312 326.5 456.375 327.042969 458.074219 326.925781 C 463.917969 326.535156 469.746094 326.289062 475.578125 325.914062 C 477.824219 325.769531 480.058594 325.351562 482.304688 325.1875 C 483.71875 325.082031 484.285156 324.300781 484.476562 323.0625 C 484.707031 321.578125 484.976562 320.097656 485.113281 318.605469 C 485.460938 314.855469 485.703125 311.09375 486.078125 307.351562 C 486.324219 304.882812 486.109375 304.515625 483.351562 304.46875 C 479.382812 304.386719 475.425781 304.441406 471.441406 304.441406 Z M 346.65625 304.453125 C 344 304.453125 341.351562 304.414062 338.703125 304.453125 C 334.847656 304.519531 334.628906 304.578125 335.167969 308.238281 C 336.265625 315.695312 337.597656 323.113281 338.898438 330.539062 C 339.132812 331.886719 339.789062 333.078125 341.484375 333.015625 C 346.777344 332.832031 352.078125 332.785156 357.355469 332.378906 C 360.148438 332.164062 360.472656 331.601562 360.304688 328.695312 C 359.894531 322.097656 359.335938 315.507812 358.8125 308.921875 C 358.769531 308.363281 358.421875 307.832031 358.386719 307.28125 C 358.246094 305.242188 357.398438 304.261719 355.167969 304.402344 C 352.339844 304.574219 349.492188 304.445312 346.65625 304.441406 Z M 402.523438 353.230469 L 402.21875 353.230469 C 402.21875 350.015625 402.253906 346.796875 402.21875 343.582031 C 402.191406 341.667969 401.195312 340.957031 399.257812 341.246094 C 397.023438 341.554688 394.757812 341.667969 392.503906 341.824219 C 387.4375 342.175781 382.339844 342.566406 377.257812 342.804688 C 375.238281 342.894531 374.648438 343.824219 374.796875 345.664062 C 375.300781 351.871094 375.753906 358.082031 376.230469 364.292969 C 376.382812 366.238281 377.820312 366.132812 379.148438 366.046875 C 386.121094 365.597656 393.082031 365.058594 400.054688 364.664062 C 402.082031 364.550781 402.589844 363.539062 402.554688 361.757812 C 402.480469 358.90625 402.523438 356.066406 402.523438 353.230469 Z M 341.59375 269.3125 C 338.011719 269.3125 334.4375 269.375 330.859375 269.289062 C 328.839844 269.242188 328.132812 270.070312 328.480469 272.019531 C 329.609375 278.097656 330.78125 284.171875 331.796875 290.269531 C 332.152344 292.40625 333.277344 293.058594 335.265625 293.042969 C 341.671875 292.996094 348.074219 292.980469 354.476562 293.042969 C 356.539062 293.0625 357.070312 292.066406 356.921875 290.253906 C 356.433594 284.261719 355.949219 278.269531 355.53125 272.273438 C 355.386719 270.1875 354.457031 269.246094 352.328125 269.292969 C 348.75 269.367188 345.171875 269.3125 341.59375 269.3125 Z M 442.226562 350.6875 C 442.226562 347.164062 442.261719 343.941406 442.226562 340.726562 C 442.226562 339.394531 441.621094 338.847656 440.078125 338.964844 C 434.804688 339.355469 429.515625 339.503906 424.234375 339.832031 C 421.796875 339.988281 419.375 340.441406 416.9375 340.589844 C 415.175781 340.695312 414.75 341.585938 414.78125 343.152344 C 414.902344 348.453125 414.925781 353.753906 415.046875 359.054688 C 415.070312 359.980469 415.171875 361.027344 415.625 361.78125 C 416.011719 362.421875 416.96875 363.144531 417.640625 363.113281 C 422.351562 362.898438 427.070312 362.613281 431.761719 362.121094 C 435.078125 361.769531 438.359375 361.070312 441.65625 360.523438 C 441.84375 357.136719 442.046875 353.753906 442.226562 350.6875 Z M 454.695312 349.425781 L 454.542969 349.425781 C 454.542969 351.882812 454.515625 354.339844 454.542969 356.792969 C 454.589844 360.070312 454.621094 360.21875 457.59375 359.980469 C 464.917969 359.390625 472.222656 358.636719 479.535156 357.964844 C 480.789062 357.851562 481.636719 357.441406 481.746094 355.980469 C 482.132812 350.71875 482.675781 345.460938 482.96875 340.203125 C 483.160156 336.847656 482.703125 336.566406 479.546875 336.863281 C 477.671875 337.039062 475.796875 337.191406 473.914062 337.253906 C 469.945312 337.410156 465.964844 337.316406 462.019531 337.667969 C 454.800781 338.308594 454.808594 338.410156 454.695312 345.460938 C 454.679688 346.769531 454.699219 348.089844 454.699219 349.414062 Z M 514.894531 269.3125 C 511.867188 269.3125 508.84375 269.273438 505.816406 269.3125 C 502.476562 269.363281 502.226562 269.367188 501.824219 272.550781 C 501.066406 278.527344 500.652344 284.542969 500.0625 290.546875 C 499.90625 292.171875 500.515625 293.019531 502.253906 293.011719 C 508.304688 292.988281 514.355469 292.964844 520.410156 293.035156 C 522.488281 293.058594 523.464844 292.210938 523.804688 290.152344 C 524.816406 284.027344 525.949219 277.921875 527.070312 271.816406 C 527.371094 270.167969 526.910156 269.28125 525.121094 269.296875 C 521.703125 269.335938 518.285156 269.3125 514.894531 269.3125 Z M 363.519531 363.996094 C 363.105469 358.539062 362.707031 353.085938 362.257812 347.628906 C 362.195312 346.890625 361.792969 346.175781 361.714844 345.4375 C 361.535156 343.765625 360.675781 343.226562 359.039062 343.355469 C 354.335938 343.722656 349.621094 343.980469 344.914062 344.292969 C 341.980469 344.484375 341.605469 344.835938 342.089844 347.714844 C 343.15625 354.03125 344.355469 360.328125 345.472656 366.636719 C 345.746094 368.195312 346.535156 369.015625 348.152344 368.894531 C 352.101562 368.589844 356.050781 368.261719 360.003906 367.960938 C 363.703125 367.675781 363.703125 367.6875 363.519531 364.011719 Z M 510.257812 304.445312 C 507.230469 304.445312 504.203125 304.476562 501.179688 304.445312 C 499.511719 304.417969 498.878906 305.1875 498.753906 306.804688 C 498.363281 311.871094 497.855469 316.933594 497.417969 322.023438 C 497.222656 324.226562 497.691406 324.75 499.753906 324.589844 C 502.761719 324.371094 505.757812 324.046875 508.765625 323.847656 C 511.03125 323.703125 513.328125 323.847656 515.5625 323.53125 C 516.464844 323.398438 517.800781 322.457031 517.964844 321.675781 C 518.980469 316.886719 519.714844 312.042969 520.546875 307.214844 C 520.867188 305.347656 520.253906 304.367188 518.210938 304.425781 C 515.558594 304.5 512.90625 304.445312 510.257812 304.445312 Z M 498.109375 356.695312 C 502.179688 356.304688 505.929688 355.914062 509.6875 355.609375 C 511.210938 355.480469 512.164062 354.832031 512.414062 353.273438 C 513.359375 347.703125 514.332031 342.140625 515.1875 336.5625 C 515.257812 336.121094 514.535156 335.121094 514.21875 335.136719 C 508.566406 335.394531 502.921875 335.726562 497.285156 336.128906 C 495.859375 336.234375 495.699219 337.457031 495.601562 338.65625 C 495.246094 343.164062 494.820312 347.667969 494.457031 352.179688 C 494.378906 353.121094 494.167969 354.128906 494.457031 354.988281 C 494.683594 355.667969 495.484375 356.324219 496.183594 356.628906 C 496.824219 356.921875 497.671875 356.695312 498.109375 356.695312 Z M 498.109375 356.695312 " fill-opacity="1" fill-rule="nonzero"/><path fill="#1f48ff" d="M 432.25 418.191406 C 403.273438 418.191406 374.292969 418.132812 345.316406 418.246094 C 339.472656 418.269531 334.648438 416.570312 330.613281 412.324219 C 324.945312 406.367188 324.519531 396.917969 328.554688 389.628906 C 330.019531 386.984375 331.671875 384.429688 332.964844 381.707031 C 333.601562 380.359375 333.824219 378.941406 333.625 377.460938 C 329.773438 355.753906 325.761719 334.070312 321.910156 312.367188 C 318.332031 292.324219 314.894531 272.261719 311.371094 252.210938 C 310.199219 245.523438 308.976562 238.847656 307.890625 232.152344 C 307.472656 229.601562 306.332031 228.253906 303.640625 227.8125 C 296.191406 226.597656 288.789062 225.117188 281.386719 223.75 C 279.164062 223.339844 276.914062 223.042969 274.707031 222.558594 C 271.203125 221.777344 269.011719 218.863281 269.371094 215.625 C 269.761719 212.242188 272.878906 209.707031 276.699219 210.171875 C 281.375 210.757812 286 211.699219 290.640625 212.539062 C 298.800781 214.015625 306.941406 215.582031 315.117188 216.988281 C 317.09375 217.328125 318.042969 218.113281 318.375 220.15625 C 319.285156 225.734375 320.4375 231.269531 321.449219 236.832031 C 324.445312 253.335938 327.480469 269.832031 330.386719 286.351562 C 334.015625 306.960938 337.496094 327.59375 341.101562 348.207031 C 342.855469 358.226562 344.75 368.222656 346.609375 378.210938 C 347.097656 380.847656 347.035156 383.195312 345.398438 385.613281 C 343.199219 388.898438 341.734375 392.671875 339.554688 395.980469 C 336.960938 399.929688 339.304688 406.179688 345.324219 405.644531 C 346.640625 405.527344 347.976562 405.644531 349.300781 405.644531 L 518.621094 405.644531 C 520.132812 405.644531 521.671875 405.523438 523.15625 405.738281 C 523.554688 405.792969 523.949219 405.886719 524.332031 406.019531 C 524.714844 406.148438 525.078125 406.316406 525.429688 406.519531 C 525.78125 406.722656 526.109375 406.957031 526.414062 407.222656 C 526.71875 407.488281 526.996094 407.777344 527.242188 408.097656 C 527.492188 408.417969 527.707031 408.757812 527.890625 409.117188 C 528.074219 409.480469 528.222656 409.855469 528.332031 410.242188 C 528.441406 410.632812 528.515625 411.03125 528.546875 411.433594 C 528.582031 411.835938 528.578125 412.238281 528.53125 412.640625 C 528.222656 416.058594 526.214844 417.960938 522.585938 418.167969 C 521.078125 418.253906 519.558594 418.195312 518.042969 418.195312 Z M 432.25 418.191406 " fill-opacity="1" fill-rule="nonzero"/><g clip-path="url(#f6db1ad0a1)"><path fill="#1f48ff" d="M 481.832031 444.527344 C 481.050781 434.789062 490.402344 423.382812 502.453125 423.574219 C 513.929688 423.753906 523.445312 431.804688 523.605469 444.03125 C 523.765625 455.566406 515.816406 465.339844 502.695312 465.339844 C 489.0625 465.335938 481.363281 453.980469 481.832031 444.527344 Z M 502.871094 434.960938 C 497.210938 434.960938 493.0625 439.027344 493.15625 444.523438 C 493.246094 449.796875 497.722656 454.097656 503.132812 454.105469 C 507.554688 454.105469 512.441406 448.933594 512.402344 444.285156 C 512.34375 439.3125 507.914062 434.976562 502.855469 434.960938 Z M 502.871094 434.960938 " fill-opacity="1" fill-rule="nonzero"/></g><g clip-path="url(#c8d1c743ac)"><path fill="#1f48ff" d="M 385.453125 444.589844 C 385.40625 456.007812 376.132812 465.574219 365.167969 465.519531 C 353.199219 465.460938 344.351562 456.214844 344.011719 444.214844 C 343.703125 433.070312 353.753906 423.386719 364.925781 423.472656 C 375.644531 423.570312 386.449219 433.414062 385.453125 444.589844 Z M 374.121094 445.109375 C 374.363281 439.65625 370.769531 435.296875 365.769531 434.980469 C 360.058594 434.632812 355.789062 438.335938 355.4375 443.710938 C 355.074219 449.234375 358.769531 453.617188 364.398438 453.914062 C 365.007812 453.957031 365.617188 453.9375 366.226562 453.855469 C 366.832031 453.777344 367.425781 453.636719 368.003906 453.433594 C 368.582031 453.234375 369.136719 452.976562 369.660156 452.664062 C 370.1875 452.351562 370.679688 451.992188 371.132812 451.582031 C 371.585938 451.167969 371.996094 450.71875 372.355469 450.222656 C 372.71875 449.730469 373.03125 449.207031 373.285156 448.648438 C 373.542969 448.09375 373.742188 447.515625 373.882812 446.921875 C 374.023438 446.324219 374.101562 445.722656 374.121094 445.109375 Z M 374.121094 445.109375 " fill-opacity="1" fill-rule="nonzero"/></g></svg>