<svg xmlns="http://www.w3.org/2000/svg" xmlns:xlink="http://www.w3.org/1999/xlink" width="1080" zoomAndPan="magnify" viewBox="0 0 810 809.999993" height="1080" preserveAspectRatio="xMidYMid meet" version="1.0"><defs><clipPath id="e76dd85fe2"><path d="M 153.480469 81 L 656.503906 81 L 656.503906 729 L 153.480469 729 Z M 153.480469 81 " clip-rule="nonzero"/></clipPath><clipPath id="734c49fb1d"><path d="M 153.480469 316.082031 C 153.480469 181.875 266.085938 81 404.992188 81 C 543.898438 81 656.503906 181.875 656.503906 316.082031 C 656.503906 489.164062 404.992188 729 404.992188 729 C 404.992188 729 153.480469 489.164062 153.480469 316.082031 Z M 153.480469 316.082031 " clip-rule="nonzero"/></clipPath><clipPath id="553c11aa44"><path d="M 0.480469 0 L 503.503906 0 L 503.503906 648 L 0.480469 648 Z M 0.480469 0 " clip-rule="nonzero"/></clipPath><clipPath id="63fd6355f2"><path d="M 0.480469 235.082031 C 0.480469 100.875 113.085938 0 251.992188 0 C 390.898438 0 503.503906 100.875 503.503906 235.082031 C 503.503906 408.164062 251.992188 648 251.992188 648 C 251.992188 648 0.480469 408.164062 0.480469 235.082031 Z M 0.480469 235.082031 " clip-rule="nonzero"/></clipPath><clipPath id="3ab31cddf8"><rect x="0" width="504" y="0" height="648"/></clipPath><clipPath id="6077a2e144"><path d="M 205.492188 126.609375 L 604.507812 126.609375 L 604.507812 525.625 L 205.492188 525.625 Z M 205.492188 126.609375 " clip-rule="nonzero"/></clipPath><clipPath id="f8514bda92"><path d="M 405 126.609375 C 294.816406 126.609375 205.492188 215.933594 205.492188 326.117188 C 205.492188 436.300781 294.816406 525.625 405 525.625 C 515.183594 525.625 604.507812 436.300781 604.507812 326.117188 C 604.507812 215.933594 515.183594 126.609375 405 126.609375 Z M 405 126.609375 " clip-rule="nonzero"/></clipPath><clipPath id="3a50362da0"><path d="M 0.492188 0.609375 L 399.507812 0.609375 L 399.507812 399.625 L 0.492188 399.625 Z M 0.492188 0.609375 " clip-rule="nonzero"/></clipPath><clipPath id="032bfa7387"><path d="M 200 0.609375 C 89.816406 0.609375 0.492188 89.933594 0.492188 200.117188 C 0.492188 310.300781 89.816406 399.625 200 399.625 C 310.183594 399.625 399.507812 310.300781 399.507812 200.117188 C 399.507812 89.933594 310.183594 0.609375 200 0.609375 Z M 200 0.609375 " clip-rule="nonzero"/></clipPath><clipPath id="024ce84980"><rect x="0" width="400" y="0" height="400"/></clipPath><clipPath id="a4a09e593e"><path d="M 260.398438 185.722656 L 549.898438 185.722656 L 549.898438 453.472656 L 260.398438 453.472656 Z M 260.398438 185.722656 " clip-rule="nonzero"/></clipPath></defs><g clip-path="url(#e76dd85fe2)"><g clip-path="url(#734c49fb1d)"><g transform="matrix(1, 0, 0, 1, 153, 81)"><g clip-path="url(#3ab31cddf8)"><g clip-path="url(#553c11aa44)"><g clip-path="url(#63fd6355f2)"><path fill="#9eff1f" d="M 503.503906 648 L 0.480469 648 L 0.480469 -0.429688 L 503.503906 -0.429688 Z M 503.503906 648 " fill-opacity="1" fill-rule="nonzero"/></g></g></g></g></g></g><g clip-path="url(#6077a2e144)"><g clip-path="url(#f8514bda92)"><g transform="matrix(1, 0, 0, 1, 205, 126)"><g clip-path="url(#024ce84980)"><g clip-path="url(#3a50362da0)"><g clip-path="url(#032bfa7387)"><path fill="#ffffff" d="M 0.492188 0.609375 L 399.507812 0.609375 L 399.507812 399.625 L 0.492188 399.625 Z M 0.492188 0.609375 " fill-opacity="1" fill-rule="nonzero"/></g></g></g></g></g></g><g clip-path="url(#a4a09e593e)"><path fill="#9eff1f" d="M 346.042969 378.949219 L 359.644531 378.949219 L 359.644531 293.707031 L 329.65625 293.707031 C 329.105469 313.117188 325.648438 332.441406 319.25 351.007812 L 330.734375 351.007812 C 339.175781 351.007812 346.046875 357.894531 346.046875 366.324219 L 346.046875 378.949219 Z M 368.367188 378.949219 L 387.835938 378.949219 L 387.835938 366.320312 C 387.835938 362.734375 389.085938 359.414062 391.175781 356.796875 C 383.773438 336.570312 381.460938 314.878906 384.175781 293.707031 L 368.367188 293.707031 Z M 387.835938 425.316406 L 346.042969 425.316406 L 346.042969 437.945312 C 346.042969 446.390625 339.167969 453.261719 330.726562 453.261719 L 307.820312 453.261719 C 299.378906 453.261719 292.503906 446.390625 292.503906 437.945312 L 292.503906 366.320312 C 292.503906 365.664062 292.542969 365.027344 292.609375 364.414062 C 250.5 324.332031 249.476562 257.375 290.757812 216.09375 C 328.085938 178.765625 387.515625 175.433594 428.742188 208.476562 C 446.226562 222.464844 459.050781 242.019531 464.597656 264.46875 C 530.988281 290.4375 565.648438 364.480469 542.222656 432.625 C 539.960938 439.230469 534.1875 443.699219 527.214844 444.226562 C 503.066406 446.085938 478.640625 441.328125 457.019531 430.539062 C 451.628906 427.851562 446.402344 424.78125 441.386719 421.351562 L 441.386719 437.941406 C 441.386719 446.382812 434.492188 453.257812 426.070312 453.257812 L 403.144531 453.257812 C 394.71875 453.257812 387.828125 446.382812 387.828125 437.941406 L 387.828125 425.316406 Z M 387.835938 387.671875 L 346.042969 387.671875 L 346.042969 416.605469 L 387.835938 416.605469 Z M 403.144531 351.003906 L 426.070312 351.003906 C 434.492188 351.003906 441.386719 357.886719 441.386719 366.320312 L 441.386719 410.652344 C 446.824219 414.765625 452.53125 418.394531 458.484375 421.515625 L 537.527344 360.363281 C 529.292969 325.28125 506.015625 295.183594 474.117188 278.382812 L 395.074219 339.519531 C 396.027344 343.617188 397.210938 347.679688 398.589844 351.707031 C 400.035156 351.253906 401.554688 351.003906 403.144531 351.003906 Z M 426.074219 359.734375 L 403.152344 359.734375 C 399.53125 359.734375 396.566406 362.699219 396.566406 366.320312 L 396.566406 437.945312 C 396.566406 441.566406 399.53125 444.53125 403.152344 444.53125 L 426.074219 444.53125 C 429.695312 444.53125 432.660156 441.566406 432.660156 437.945312 L 432.660156 366.320312 C 432.660156 362.699219 429.695312 359.734375 426.074219 359.734375 Z M 307.820312 351.003906 L 310.007812 351.003906 C 316.738281 332.472656 320.375 313.117188 320.941406 293.699219 L 269.222656 293.699219 C 270.300781 317.367188 280.105469 339.429688 296.5 356.03125 C 299.300781 352.945312 303.351562 351.003906 307.820312 351.003906 Z M 330.726562 359.734375 L 307.820312 359.734375 C 304.199219 359.734375 301.234375 362.699219 301.234375 366.320312 L 301.234375 437.945312 C 301.234375 441.566406 304.199219 444.53125 307.820312 444.53125 L 330.734375 444.53125 C 334.351562 444.53125 337.320312 441.566406 337.320312 437.945312 L 337.320312 366.320312 C 337.320312 362.699219 334.347656 359.734375 330.726562 359.734375 Z M 488.566406 364.835938 C 490.472656 363.371094 493.199219 363.707031 494.660156 365.613281 C 496.144531 367.523438 495.789062 370.246094 493.882812 371.707031 L 490.597656 374.25 L 493.074219 377.464844 C 494.539062 379.375 494.1875 382.097656 492.292969 383.5625 C 490.386719 385.023438 487.664062 384.675781 486.199219 382.78125 L 483.707031 379.585938 L 480.421875 382.128906 C 478.515625 383.589844 475.792969 383.242188 474.328125 381.347656 C 472.847656 379.441406 473.203125 376.699219 475.109375 375.234375 L 478.390625 372.695312 L 474.609375 367.820312 L 471.328125 370.363281 C 469.417969 371.828125 466.695312 371.476562 465.214844 369.566406 C 463.75 367.675781 464.097656 364.9375 466.011719 363.472656 L 469.292969 360.929688 L 465.511719 356.054688 L 462.230469 358.597656 C 460.320312 360.0625 457.582031 359.714844 456.117188 357.800781 C 454.652344 355.914062 455 353.171875 456.914062 351.707031 L 460.199219 349.164062 L 456.414062 344.292969 L 453.113281 346.835938 C 451.222656 348.296875 448.484375 347.949219 447.019531 346.035156 C 445.554688 344.148438 445.902344 341.40625 447.816406 339.941406 L 451.101562 337.398438 L 447.316406 332.507812 L 444.015625 335.070312 C 442.125 336.535156 439.386719 336.183594 437.921875 334.273438 C 436.457031 332.382812 436.804688 329.640625 438.699219 328.179688 L 442.003906 325.636719 L 439.511719 322.4375 C 438.046875 320.53125 438.394531 317.789062 440.308594 316.328125 C 442.195312 314.863281 444.9375 315.210938 446.402344 317.125 L 448.875 320.320312 L 452.179688 317.777344 C 454.066406 316.296875 456.808594 316.648438 458.273438 318.558594 C 459.734375 320.445312 459.386719 323.1875 457.492188 324.652344 L 454.191406 327.195312 L 457.972656 332.085938 L 461.273438 329.542969 C 463.164062 328.058594 465.90625 328.414062 467.371094 330.320312 C 468.832031 332.226562 468.484375 334.953125 466.589844 336.414062 L 463.289062 338.957031 L 467.070312 343.847656 L 470.371094 341.308594 C 472.261719 339.84375 475.003906 340.179688 476.46875 342.085938 C 477.929688 343.992188 477.582031 346.714844 475.6875 348.179688 L 472.402344 350.722656 L 476.167969 355.613281 L 479.46875 353.070312 C 481.378906 351.605469 484.101562 351.945312 485.5625 353.851562 C 487.027344 355.757812 486.691406 358.480469 484.785156 359.945312 L 481.5 362.488281 L 485.285156 367.378906 Z M 391.773438 312.183594 C 391.839844 318.113281 392.320312 324.070312 393.21875 329.953125 L 465.320312 274.210938 C 459.84375 271.84375 454.210938 269.886719 448.46875 268.347656 Z M 392.179688 300.878906 L 437.429688 265.890625 C 427.097656 264.070312 416.535156 263.542969 406.023438 264.351562 C 402.527344 264.632812 399.753906 266.738281 398.601562 270.109375 C 395.199219 280.015625 393.023438 290.4375 392.179688 300.878906 Z M 467.28125 425.703125 C 472.742188 428.050781 478.375 430.015625 484.113281 431.566406 L 540.808594 387.710938 C 540.761719 381.761719 540.28125 375.839844 539.363281 369.9375 Z M 540.40625 399.015625 L 495.152344 434.019531 C 505.503906 435.839844 516.046875 436.351562 526.558594 435.539062 C 530.09375 435.273438 532.828125 433.140625 533.992188 429.785156 C 537.421875 419.820312 539.558594 409.46875 540.40625 399.015625 Z M 385.609375 284.996094 C 386.777344 278.988281 388.363281 273.074219 390.363281 267.28125 C 392.117188 262.195312 395.964844 258.308594 400.964844 256.574219 C 403.667969 240.449219 408.503906 224.464844 415.269531 209.46875 C 401.636719 200.707031 385.617188 195.355469 368.375 194.574219 L 368.375 284.996094 Z M 410 255.390625 C 425.066406 254.757812 440.171875 256.664062 454.59375 261.023438 C 448.800781 242.480469 437.460938 226.355469 422.484375 214.621094 C 416.710938 227.75 412.578125 241.316406 410 255.390625 Z M 312.761719 209.488281 C 323.574219 233.46875 329.222656 259.175781 329.6875 284.996094 L 359.644531 284.996094 L 359.644531 194.582031 C 342.421875 195.355469 326.402344 200.726562 312.761719 209.488281 Z M 269.222656 284.996094 L 320.992188 284.996094 C 320.53125 260.976562 315.378906 237.058594 305.539062 214.628906 C 284.253906 231.300781 270.515625 256.664062 269.222656 284.996094 Z M 269.222656 284.996094 " fill-opacity="1" fill-rule="nonzero"/></g></svg>