<svg xmlns="http://www.w3.org/2000/svg" xmlns:xlink="http://www.w3.org/1999/xlink" width="1080" zoomAndPan="magnify" viewBox="0 0 810 809.999993" height="1080" preserveAspectRatio="xMidYMid meet" version="1.0"><defs><clipPath id="39dbedb343"><path d="M 153.480469 81 L 656.503906 81 L 656.503906 729 L 153.480469 729 Z M 153.480469 81 " clip-rule="nonzero"/></clipPath><clipPath id="994786c818"><path d="M 153.480469 316.082031 C 153.480469 181.875 266.085938 81 404.992188 81 C 543.898438 81 656.503906 181.875 656.503906 316.082031 C 656.503906 489.164062 404.992188 729 404.992188 729 C 404.992188 729 153.480469 489.164062 153.480469 316.082031 Z M 153.480469 316.082031 " clip-rule="nonzero"/></clipPath><clipPath id="a9790738a7"><path d="M 0.480469 0 L 503.503906 0 L 503.503906 648 L 0.480469 648 Z M 0.480469 0 " clip-rule="nonzero"/></clipPath><clipPath id="170acee95e"><path d="M 0.480469 235.082031 C 0.480469 100.875 113.085938 0 251.992188 0 C 390.898438 0 503.503906 100.875 503.503906 235.082031 C 503.503906 408.164062 251.992188 648 251.992188 648 C 251.992188 648 0.480469 408.164062 0.480469 235.082031 Z M 0.480469 235.082031 " clip-rule="nonzero"/></clipPath><clipPath id="a458701eec"><rect x="0" width="504" y="0" height="648"/></clipPath><clipPath id="d4f09a645a"><path d="M 205.492188 126.609375 L 604.507812 126.609375 L 604.507812 525.625 L 205.492188 525.625 Z M 205.492188 126.609375 " clip-rule="nonzero"/></clipPath><clipPath id="75caeef871"><path d="M 405 126.609375 C 294.816406 126.609375 205.492188 215.933594 205.492188 326.117188 C 205.492188 436.300781 294.816406 525.625 405 525.625 C 515.183594 525.625 604.507812 436.300781 604.507812 326.117188 C 604.507812 215.933594 515.183594 126.609375 405 126.609375 Z M 405 126.609375 " clip-rule="nonzero"/></clipPath><clipPath id="9dade4d6f5"><path d="M 0.492188 0.609375 L 399.507812 0.609375 L 399.507812 399.625 L 0.492188 399.625 Z M 0.492188 0.609375 " clip-rule="nonzero"/></clipPath><clipPath id="2068e7ffbb"><path d="M 200 0.609375 C 89.816406 0.609375 0.492188 89.933594 0.492188 200.117188 C 0.492188 310.300781 89.816406 399.625 200 399.625 C 310.183594 399.625 399.507812 310.300781 399.507812 200.117188 C 399.507812 89.933594 310.183594 0.609375 200 0.609375 Z M 200 0.609375 " clip-rule="nonzero"/></clipPath><clipPath id="ee0c3d3a2b"><rect x="0" width="400" y="0" height="400"/></clipPath><clipPath id="c4d8f0d4ae"><path d="M 236 203 L 574.425781 203 L 574.425781 437 L 236 437 Z M 236 203 " clip-rule="nonzero"/></clipPath></defs><g clip-path="url(#39dbedb343)"><g clip-path="url(#994786c818)"><g transform="matrix(1, 0, 0, 1, 153, 81)"><g clip-path="url(#a458701eec)"><g clip-path="url(#a9790738a7)"><g clip-path="url(#170acee95e)"><path fill="#1f48ff" d="M 503.503906 648 L 0.480469 648 L 0.480469 -0.429688 L 503.503906 -0.429688 Z M 503.503906 648 " fill-opacity="1" fill-rule="nonzero"/></g></g></g></g></g></g><g clip-path="url(#d4f09a645a)"><g clip-path="url(#75caeef871)"><g transform="matrix(1, 0, 0, 1, 205, 126)"><g clip-path="url(#ee0c3d3a2b)"><g clip-path="url(#9dade4d6f5)"><g clip-path="url(#2068e7ffbb)"><path fill="#ffffff" d="M 0.492188 0.609375 L 399.507812 0.609375 L 399.507812 399.625 L 0.492188 399.625 Z M 0.492188 0.609375 " fill-opacity="1" fill-rule="nonzero"/></g></g></g></g></g></g><path fill="#1f48ff" d="M 408.320312 341.203125 C 406.195312 341.203125 404.09375 340.871094 402.003906 340.191406 L 305.183594 307.898438 C 303.425781 312.460938 302.550781 318.339844 302.550781 326.917969 C 308.867188 330.578125 315.023438 337.929688 315.023438 350.605469 C 315.023438 358.371094 311.140625 363.957031 307.800781 367.667969 C 322.167969 384.332031 361.691406 396.316406 408.335938 396.316406 C 467.105469 396.316406 514.730469 377.296875 514.730469 353.878906 C 514.730469 348.703125 514.730469 327.570312 514.730469 306.824219 L 414.613281 340.191406 C 412.550781 340.871094 410.449219 341.203125 408.320312 341.203125 Z M 408.320312 341.203125 " fill-opacity="1" fill-rule="nonzero"/><g clip-path="url(#c4d8f0d4ae)"><path fill="#1f48ff" d="M 570.019531 257.441406 L 410.421875 204.242188 C 409.039062 203.789062 407.589844 203.789062 406.21875 204.242188 L 246.625 257.441406 C 243.910156 258.347656 242.074219 260.886719 242.074219 263.746094 C 242.074219 266.605469 243.910156 269.144531 246.625 270.050781 L 283.210938 282.246094 C 274.792969 292.007812 269.898438 305.773438 268.101562 328.167969 C 262.316406 330.894531 258.234375 336.707031 258.234375 343.542969 C 258.234375 350.5 262.410156 356.417969 268.371094 359.089844 C 263.167969 404.375 236.050781 419.472656 236.050781 423.339844 C 236.050781 425.308594 257.050781 436.640625 262.039062 436.640625 C 269.753906 436.640625 288.265625 423.554688 288.265625 395.292969 C 288.265625 378.640625 286.761719 366.058594 285.179688 357.136719 C 289.449219 354.035156 292.414062 349.234375 292.414062 343.542969 C 292.414062 337.332031 288.945312 332.144531 283.984375 329.152344 C 286.789062 292.195312 298.214844 286.007812 325.851562 274.542969 C 328.617188 273.453125 333.84375 271.339844 336.863281 270.089844 C 342.289062 267.855469 347.195312 265.859375 351.902344 263.972656 C 367.105469 257.933594 379.953125 253.078125 389.753906 249.476562 C 400.488281 245.644531 405.300781 244.25 405.476562 244.195312 C 409.585938 242.8125 414.160156 245.03125 415.570312 249.222656 C 416.964844 253.398438 414.730469 257.921875 410.542969 259.328125 C 410.222656 259.4375 391.550781 264.769531 342.96875 284.851562 C 339.839844 286.140625 336.863281 287.3125 334.03125 288.429688 C 328.269531 290.703125 323.496094 292.527344 319.492188 294.359375 L 406.21875 323.261719 C 406.910156 323.472656 407.601562 323.59375 408.320312 323.59375 C 409.039062 323.59375 409.730469 323.472656 410.421875 323.25 L 570.019531 270.050781 C 572.730469 269.144531 574.566406 266.605469 574.566406 263.746094 C 574.566406 260.886719 572.730469 258.347656 570.019531 257.441406 Z M 570.019531 257.441406 " fill-opacity="1" fill-rule="nonzero"/></g></svg>